<?xml version="1.0" encoding="UTF-8"?>
<svg id="Capa_2" data-name="Capa 2" xmlns="http://www.w3.org/2000/svg" viewBox="0 0 285.08 129.53">
  <defs>
    <style>
      .cls-1 {
        fill: #fbfbfa;
        stroke: #000;
        stroke-miterlimit: 10;
        stroke-width: .2px;
      }

      .cls-2 {
        fill: #dc2e19;
      }
    </style>
  </defs>
  <g id="Brand_Manual" data-name="Brand Manual">
    <g>
      <path class="cls-1" d="M149.99,91.65c-.77-.82,3.05-2.42,3.72-3.05,5.03-4.84,5.22-14.31-1.11-18.14-9.67-5.8-20.17.24-30.18.92l2.9,1.21c-.82,1.4-4.16.58-4.3.73-.1.05-.58,1.69-.48,1.89.24.39,2.37.58,2.37,1.5-1.11.39-1.84.63-2.9,0-.77,2.9,2.56,2.32,4.35,3.19.1,5.22-1.45,10.3-1.93,15.43-.48,4.93-.48,10.06-.97,14.99-.29,2.9-1.98,9.09-1.35,11.51,0,.15,1.21,2.66,1.35,2.76.24.19,1.69-1.16,1.93-.97.73,4.01,2.03,1.16,3.63-.48-.58,1.64.68,1.6,1.55,2.9,7.5-1.45,16.44-3.19,23.02-7.35,2.9-1.84,8.56-6.19,9.38-9.48,2.32-9.14-3.24-14.27-11.03-17.56h.05ZM135,77.87c.63-.53,5.08-1.98,6.09-2.13,1.02-.15,6.92-.24,7.35,0,.24.15,1.11,2.51,1.06,3.05-.24,2.71-12.67,10.11-15.96,9.91-.39-.44.82-10.35,1.45-10.88v.05ZM144.58,111.19c-2.27,1.16-9.87,4.79-11.85,2.27-.53-.68.34-1.89.29-2.71-.1-1.6-.77-3-.53-4.88.19-1.31,1.26-3.29,1.45-4.84,1.79-1.16,14.22-.92,16.35.15.77.39.87,1.21,1.21,1.4.63.39,1.55.48,2.27.63,1.35,1.93-7.69,7.16-9.24,7.93l.05.05Z"/>
      <path class="cls-1" d="M116.26,98.66c.05-.29-.73-.15-.92-.58-.73-1.6.1-3.39,0-3.48-.15-.24-1.5,0-1.69-.1-.34-.15-.19-1.6-2.18-.58-3.77,3.29-7.54,6.77-10.88,10.4-3-3.05-6.24-5.8-8.41-9.53.92-1.69,3.29-3.29,4.64-4.69,4.3-4.55,8.85-9.33,7.21-16.3-.92-3.97-6.05-6-9.72-5.8-1.16.05-1.93.82-2.95.97-6.05.77-9.62.87-14.02,5.8-6.09,6.87.24,11.99,2.22,19.1-3.48,2.03-6.92,5.37-9.43,8.56-3.39,4.35-4.93,6.96-4.11,12.72.77,5.71,7.3,7.88,12.28,7.93,2.71,0,9.19-1.45,11.36-3.05.48-.34.34-1.21.82-1.69,1.11-1.16,4.79-1.55,6.19-2.9.53,0,3.87,4.01,4.84,4.84,1.45,1.21,2.76,2.03,4.35,3.39,2.42,2.08,2.18,0,2.47,0,.63,0,2.27,1.02,3.05.44.34-.24.44-2.27.53-2.37.48-.39,2.22.68,2.9.24,1.93-1.26.15-1.84,0-2.08-1.84-3.58-2.47-3.29-4.59-5.95-.63-.82-3.24-4.69-3.1-5.46.34-1.69,8.46-6.58,9.09-9.77l.05-.05ZM84.1,81.06c.15-.39,3.05-3.53,3.48-3.77,2.66-1.45,9.53-2.76,7.16,2.32-.39.82-5.85,6.72-6.72,7.3-.48.34-1.06.73-1.64.39-.58-.34-2.61-5.17-2.22-6.19l-.05-.05ZM91.06,109.98c-.24.44-7.54,4.06-8.51,4.3-3,.73-8.46,1.02-7.83-3.48.24-1.69,6.82-8.12,8.51-8.9.82-.39,2.18-.97,3-.44.34.19,1.64,3.24,2.13,3.92.68.97,3.43,3.43,2.76,4.59h-.05Z"/>
      <path class="cls-1" d="M246.71,120.91c-4.21-5.08-7.45-10.93-11.41-16.15-.63-.82-3.48-3.29-3.58-3.72-.15-.73.44-.77.77-1.11,1.35-1.31,5.27-2.47,6.34-3.58.24-.29,0-.97.48-1.35.82-.73,2.76-1.79,3.39-2.56,4.74-5.56,3.48-14.27-.34-19.88-3.24-.92-5.85-3.1-9.14-3.92-4.35-1.02-11.07-.53-15.43.58-2.56.68-5.66,3.77-8.56,4.5.82,1.74,1.16,2.27-.24,3.87h3.87c-.39,1.11.44,1.84.53,3.1.58,11.85-3,26.7-3.43,38.74,0,1.16.19,2.03.48,3.1.68-.15,1.4-2.42,2.42-1.45.34.34-1.02,2.76-.24,3.39l.29-.87c1.21.68,1.79-.53,2.61-.58.44,0-.1,2.18,3.24.92,2.85-1.11,2.32-10.98,2.32-13.73l.97-6.05c.48,1.45,2.03,2.47,2.9,3.63,1.64,2.18,2.76,4.26,4.26,6.34,3.58,4.93,4.69,7.5,9.58,11.03.44.34,1.16,1.64,1.26,1.64.48.19,1.11-.44,1.55-.34.63.15.87,2.03,3.05,2.22,3,.34,1.74-2.71,2.76-2.8l3.63,1.45c.24-3.39-2.56-4.4-4.35-6.53l.05.15ZM213.35,115.83c0-1.98.19-4.06.48-6.05.15-.82-.24-.82.97-.73-.05,2.03.24,5.32-1.45,6.77ZM222.05,94.55c.87-3.29.53-14.27,2.66-16.44,1.26-1.31,11.07-.1,12.14,1.45.68.97-.29,4.35-.97,5.37-1.21,1.74-12.72,10.78-13.83,9.62Z"/>
      <path class="cls-1" d="M282.58,17.84c.05-1.21-.53-2.22-.48-3.29.29-3.92,1.35-7.88.97-11.85l-1.93.48v-1.93c-1.69-.24-1.31,2.76-2.71,3.34-1.4.58-1.16-.87-1.64-1.16-.68-.44-3-.19-3.34.34-.15.19-.92,3.92-1.02,4.55-.82,5.13-.44,11.12-1.06,16.35-1.35,1.93-3.97.73-5.46.82-1.31.1-8.51,1.4-9,.92l.44-23.16c-1.64-1.35-4.11.68-5.42.44-.48-.1-.58-1.45-1.02-1.5-.24,0-4.35,2.27-4.5,2.51-1.02,1.74.73,5.46.87,7.35.29,3.43-.87,7.21-1.02,10.64-.15,3,.73,6.87.58,9.24-.05.97-1.06.77-1.4,1.5-.58,1.16-1.79,4.16-.1,4.26-3.48,1.93-.1,1.5,0,1.93.68,2.56-1.89,11.99-1.02,13.3l.97-.48.97,6.29,2.18-1.45v2.42c2.03-.39.87-2.47,1.21-2.9.1-.1.82.24,1.21.19.44-.05.73-.44,1.26-.44,1.89-.05,3.34,1.79,3.87-2.42.24-2.18-.29-14.7.92-15.52.24-.15,4.98-.73,5.56-.73,1.21,0,2.13.82,3.05.87,1.21.1,2.56-.77,4.01.1l-1.45-1.45h1.93c-.77,4.3,1.02,3,1.45,3.39.73.73-.97,2.51-.97,3.14,0,.34.97.19,1.02.53,0,.39-.48,1.21-.53,1.89-.1,3.39-.39,10.2.87,13.15.82,1.98,3.29,2.08,4.26,3.97,2.03.19,1.5-1.74,1.64-1.89.92-1.02.92.87,1.02.92.87.73.87-.48,1.11-.73.34-.34,1.02-.48,1.16-1.02.34-1.02.15-4.88.1-6.19-.48-7.3-1.55-18.52-.97-25.68.29-3.63,2.27-7.69,2.42-11.17v.15ZM247.81,46.96c-.1.73-.39,1.5-.97.73.15-1.45-.19-3.19,0-4.59.1-.73.39-1.5.97-.73-.15,1.45.19,3.19,0,4.59ZM250.23,50.54v-3.87c.39.05,1.31-.1,1.45,0,.15.15-.73,3.77-1.45,3.87Z"/>
      <path class="cls-1" d="M112.88,60.45c.87.39,1.84.1,2.66.73.39.29,2.51,3.34,2.95,3.43,1.74.34,3.63-.44,3.53-2.42-1.45-.63-2.32.15-1.93-2.42.73.58,1.89,1.55,1.93,2.42.53.24,3.19,1.69,3.39,1.45-.24-5.42-5.56-8.85-8.41-13.11-2.37-3.48-4.01-6.96-6.53-10.25-.44-.53-1.21-.73-1.69-1.35-4.74-6.29-2.47-4.35,2.47-7.16,7.25-4.06,12.67-9.91,8.22-18.57-4.88-9.48-19.97-10.59-29.02-7.5-1.4.48-1.84,1.4-2.95,1.89-.68.34-4.06,1.21-4.21,1.35-.97.97,1.93.97.97,1.93-.24.24-1.89-.63-1.45.97,3.34-.39,1.74,1.64,1.93,1.89.29.39,2.85.53,2.95,2.66.15,3.68-1.16,9.62-1.5,13.59-.29,3.63-.19,7.45-.48,11.12-.48,5.71-1.98,11.46-1.45,17.17l1.45-2.9.24,1.93.73-.97-.48,4.35c.92,0,.44-1.5,1.69-1.45.44,0,.1,1.02.53,1.02s.97-.53,1.4-.53c.15,0,1.06,3,1.26-.44.87-.19.05,1.4,1.21.97.29-.1,1.26-1.11,1.4-1.5,2.08-6.58.87-13.69,1.74-20.51l.97-.24c2.27,3.68,4.55,7.54,7.06,11.07,1.74,2.42,7.25,10.4,9.43,11.36ZM88.7,48.12c-.29,0-.97-.63-.97-.73v-7.98c1.45-.24.77.39.97,1.16.68,2.71-.24,4.74,0,7.54ZM89.67,22.49c-1.11,1.45-1.06-2.61-1.02-3.19.15-.87.87-.58,1.02-1.02.19-.63-.44-1.69.48-1.6l-.48,5.8ZM97.75,19.73c.58-2.66-.44-5.03,3.39-5.8,1.84-.39,10.11,1.06,11.07,2.27.15.15-.34,3.43-.53,3.87-.44,1.02-5.37,5.08-6.53,5.56-2.47,1.06-6.14,1.35-8.7,2.66-.82-.87,1.02-7.11,1.31-8.61v.05Z"/>
      <path class="cls-1" d="M126.81,57.21c.15,0,1.35-2.61,2.03-1.84-.63,3.72,3,5.85,5.22,2.56,1.02-2.18,2.56-13.01,3.63-14.02.24-.24,2.8-.68,3.63-.97.87-.34,1.74-1.26,2.42-1.45,1.84-.48,5.03-.58,7.06-1.02.63.15.58.68.77,1.16,1.06,2.61,1.26,8.08,2.18,11.36.29.92,2.37,7.01,2.66,7.25.05.05,1.45-.53,1.5-.77.15-.63-1.74-5.08-1.93-6.77-.05-.53-.48-2.18.44-2.13.77,2.32,2.18,12.96,3.87,13.78,2.03,1.02,4.06-.97,3.39-3.14l1.45.48c1.21-1.6-4.21-21.71-4.35-25.15,3.34.92,1.74-2.76,1.93-2.9.15-.1,3.92-.34,3.39-1.69-.68-1.84-6.72-2.71-7.3-3.48-1.16-1.6-1.55-9-2.13-11.32-.73-3.14-2.85-7.16-3.53-10.01-.19-.77,0-2.9-.1-3.05-.19-.19-1.21.53-1.64.44-.58-.15-1.21-3.1-2.42-.44-2.42-3-3.05,1.84-5.46.39-.82-.48-.29-2.22-3.39-1.02-.39.15-3.77,3.97-3.92,4.35-.53,1.45.97.82.92,1.84,0,.77-.77,3.34-1.06,4.35-3.39,12.53-7.69,24.95-11.46,37.38-.44,1.55-.19,6.58,2.22,5.8ZM156.89,48.12c-.73.15-.58-.92-.73-1.45-.44-1.93-.58-3.92-1.21-5.8,1.5-1.64,2.37,6.77,1.93,7.25ZM145.29,14.27c1.4.97,1.79,3.24,2.18,4.79.24,1.02.15,2.08.34,3.05.29,1.4,1.98,6.38,1.26,7.54-.34.58-3.43.48-4.35.77-.87.24-.77,1.02-1.26,1.21-.82.29-2.51.24-3.48.53l5.32-17.89Z"/>
      <path class="cls-1" d="M200.29,101.81l1.93.48c-.68-2.8,2.03-3.77,1.45-6.77-1.89,1.06-1.11-.53-2.13-.48-.92,0-2.27.68-3.19.97-1.31-8.85-3.68-17.41-6.29-25.92-2.47.58-1.6-1.26-1.98-1.64-.53-.48-5.27,1.64-6.09,1.79-1.35.19-2.42-1.45-5.08-.19-1.55.68-4.88,4.74-2.32,5.42-3.82,10.3-6.14,21.23-9.33,31.77-.97,3.19-5.95,12.43-2.47,14.85,1.98,1.4,2.18.24,2.85-1.4.73.44,2.66,3.82,2.95,3.87.15,0,3-1.11,3.1-1.21.58-.44,2.51-12.67,3.63-14.27l12.82-3.34c1.4,5.56,1.6,12.09,4.3,17.26,1.31,2.51,2.66,2.13,3.43,3.34.87,1.31-.05,3.19,2.18,3.1,3.63-.15,2.56-2.27,2.22-4.84l1.21,1.45c.73.19,1.11-.58,1.21-1.21.44-2.56-2.08-8.37-2.76-11.27-.87-3.82-1.74-7.79-1.6-11.7l-.05-.05ZM188.1,94.99c-.29.44-3.58.82-4.4,1.06-.39.15-.34.77-.77.87-.92.29-2.47.29-3.48.53l4.84-16.44c.92-.19,1.21.44,1.55,1.11.87,1.64,3,11.7,2.22,12.86h.05ZM194.97,106.16l.97,6.77c-.73,0-.92-1.45-1.11-2.03-.19-.73-1.74-5.22.15-4.74ZM196.42,122.6c-.68,0-1.11-1.89-1.21-2.37-.29-1.45.05-2.9-.68-4.16-.05-.39.92-.29.97-.24.24.24,1.26,5.9.97,6.77h-.05Z"/>
      <path class="cls-1" d="M39.37,43.57c-.87-8.27-10.3-13.54-16.54-17.7-1.5-1.02-2.37-1.4-3.72-2.22-.63-.39-4.21-2.66-4.4-2.85-1.79-1.98.68-2.32,1.45-3.39.73-.97.87-2.03,1.93-2.9,2.85-2.37,7.3-2.42,10.64-1.21l-2.42,1.21c2.27.19,1.06.73,1.45,1.79.24.63,1.4-.1.48,1.79.92.19,1.45-.77,2.27-.87,1.26-.15,1.84,1.21,2.32-.58.92-.19.63,1.64,2.66.97.1-1.11-.77-2.42-.53-3.53.1-.39,1.21-.68,1.69-1.31,1.98-2.47,1.26-6-.92-8.03C30.62-.05,21.29-1.74,15.39,2.61c-1.11.82-2.03,2.27-3.14,3.14-3.43,2.8-11.17,8.37-10.16,13.54,0,.24,1.74,3.82,2.03,4.3,1.69,3.14,9.09,10.49,12.04,12.62,3.34,2.37,8.51,4.01,11.95,6.38,1.11.77.63,1.74,0,2.76-.97,1.74-9.43,6.58-11.41,6.96-4.4.77-8.7-2.27-12.91-2.8-.87.63,1.84.44.73,1.45-.34.29-2.61-.77-3.39-.48-.1.05.34,1.84.48,2.08.39.77,1.89-.29,1.45,1.31-2.32-1.31-4.01.29-2.18,2.42.48.58,1.4,1.89,1.5,1.98,1.26.92,8.51,3.53,10.25,3.68,4.4.44,12.24-2.08,16.01-4.5,3.34-2.08,11.12-9.82,10.69-13.93l.05.05Z"/>
      <path class="cls-1" d="M276.84,96.1c-4.74-3.14-10.4-5.42-14.9-8.8-.82-.63-2.71-.19-1.35-1.89,2.61-1.02,8.17-2.37,10.16-4.01,1.5-1.26,1.6-3.1,4.74-3.24.63.73-.15,2.61.29,3.29.39.63,4.11,1.26,3.58-.87l-.73-.97c1.31-3.97,2.95,1.55,2.42,3.39,1.21-.58,1.21-1.79,1.69,0,2.27-3.97,3.19-6.48,0-10.35-1.69-2.03-2.95-2.8-5.8-3.14-5.22-.68-14.75,2.32-19.2,5.37-3.39,2.32-8.66,7.83-8.51,12.19.1,2.42,1.64,4.84,2.9,6.82l22.73,12.62c.15,1.74-7.11,6.14-8.75,6.72-4.3,1.55-10.06.48-14.51.24.77,2.56-1.35,1.74-1.45,2.18-.34,1.79.82,2.47,2.42,2.66.82.87-3.39,2.22-.48,2.42l-.97,1.45c1.35-.44,2.56,1.11,3.58,1.02.24,0,.24-.87.58-.97,3.29-.97,0,2.71,1.93,3.29,2.51.77,6.05.24,8.51-.53,6.72-2.08,17.94-9.77,19.1-17.17.1-.77.24-1.5.1-2.27-.44-2.42-5.95-7.98-8.08-9.38v-.05Z"/>
      <path class="cls-1" d="M77.1,42.8c-.1-.1.1-1.69-.97-2.22-2.42-1.26-4.79,3.14-6.14,4.16-1.93,1.45-7.83,4.5-10.2,4.74-1.11.1-4.88-.82-5.46-1.69-.73-1.06-1.69-6.24-1.84-7.74-.73-8.9,2.56-18.18,8.61-24.62,1.84,1.11,7.74.73,8.12,3,.15.73-.77,1.74-.15,2.61,1.26,1.79,6.29,1.74,6.92-.87.92-3.63.24-10.64-2.08-13.64-.87-1.16-5.46-3.48-6.87-3.77-1.45-.29-8.56.77-9.67,1.45-.29.19-4.35,4.84-4.88,5.51-1.84,2.37-3.77,5.66-5.32,8.22-.48.77-1.4,3.43-1.55,3.53-.1.05-1.26-.68-1.45-.48-.68,1.5,0,3.1-.19,4.4-.24,2.03-1.5,4.35-1.74,7.01-.48,5.95,1.79,21.18,7.45,24.42.87.53,2.13.39,2.22.48.15.15-1.69,1.69,1.79,2.32,3.72.68,10.06-.05,13.69-.87l-.48-.97,2.9-1.45c-.1-.05.1-.39,0-.48s.05-.34,0-.48c-.1-.15-.77-.24-.82-.68-.15-1.26,2.71-1.84,3.97-2.71,1.06-.73,6.53-6.24,6.53-7.01,0-.15-.87-2.56-.97-2.66s-1.26.68-1.45.48h.05ZM45.18,24.9h-.48v-2.9c1.5.48.53,1.74.48,2.9Z"/>
      <path class="cls-1" d="M206.95,54.89c1.35,1.93,6.24,5.42,8.7,5.37,3-.05,10.78-1.21,13.4-2.51.24-.15,1.84-1.4,1.35-1.89-.15-.15-2.95,1.55-4.21,1.84-.48.1-2.13.53-2.03-.34,1.4.29,1.93-1.4,2.51-1.6,1.31-.48,2.61-.34,4.26-1.02,1.11-.48,6.38-3.97,6.72-4.88.53-1.26-2.51-.29-2.76-.1-.29.19-2.18,3.58-3.05,2.76-.92-.92,2.13-1.98,2.42-2.27.87-.82,4.98-5.46,4.35-6.43l-2.42-.48.97-1.69c-1.64.73-1.45-.73-1.69-.77-1.55-.1-9.09,5.42-11.07,6.34-3.1,1.45-6.53,1.64-9.87,1.35-.68-3.05-3.77-7.35-3.87-10.4,0-.97.39-4.55.58-5.66.15-.82,1.55-6,1.84-6.19.1-.05,1.26.68,1.45.48,0-.63.1-1.26.39-1.79.63-1.31,7.01-9.53,7.98-10.16,4.98-3.19,4.4.82,6.14,3,3.05,3.87,3.48-.24,4.64-.73,1.55-.63.77.82,1.64.92,0-1.26.63-2.47.82-3.72.05-.48-.48-1.45-.34-1.6.05-.1,1.79.82,1.93-.24,0-.15-.48-1.89-.63-2.03-.39-.48-4.01-2.22-4.69-2.8-.92-.77-.48-2.13-2.32-3-3.63-1.69-8.8-1.16-11.95,1.31-2.37,1.89-3.34,2.76-6,4.64-12.57,8.75-13.2,32.45-5.13,44.2l-.1.1Z"/>
      <path class="cls-1" d="M188.76,30.47c.15-2.18.82-4.59.97-6.77.24-2.85-.48-5.9.44-8.66,5.32-.44,10.49-1.45,15.52-3.19.15-.82-1.16-.53-1.69-.48-3.39.19-6.96.92-10.4.97-.1-1.21-.1-.82.73-.97,1.74-.24,10.35-.58,10.83-1.06.19-.24,0-.97.05-1.35l.97-.24c.15-.87-2.66-1.93-1.93-2.66.15-.15,3-.34,2.66-2.42-.48.44-1.31.53-1.93.53-9.96-.58-22.92.82-32.89,1.89-2.9.29-7.16,2.37-9.43,4.11l2.42.73c-.29,1.11-2.03-.29-1.45,1.69.15.44,1.21-.1.97.73h-2.42c-.19.82.68.29.82.58.34.53.1,1.26.15,1.84.77.19.29-.82.73-.97,1.84-.58,1.02,1.26,1.21,1.45.63.58,3.14-1.6,3.39.73,0,.15-1.79.29-.97,1.21,1.45,1.55,11.99-1.55,12.57-.97l-2.95,38.93c.1.48,2.13-.24,1.5,1.74,3.19-1.4,1.79,0,3.14,1.93l.73-1.93c.39.77.77,4.64.97,4.84.1.1,1.06-.05,1.45,0l.24-1.45.73,2.42c.68-.39,1.69-2.56,1.84-3.24,1.69-8.37.53-20.99,1.06-29.89v-.05Z"/>
      <path class="cls-2" d="M58,100.41c.52-.52,1.02-1.28,1.59-1.8s1.72-.63,1.15-1.49c-.29-.44-1.17-.57-1.43-.78-.05.83-1.46-.6-.26-.26-4.25-4.57-8.48-9.13-12.91-13.56-2.97-2.97-5.82-6.23-8.87-9.13-.83-.78-5.45-4.8-6.16-5.06-2.14-.83-7.72-.29-10.3-.39-.63,0-1.2-.26-1.8-.29-2.71-.1-5.4-.21-8.09-.26-.44.34,1.1,1.46,0,1.3-1.04-.16-2.95-2.22-3.65-.78-.7,1.38,2.95,3.52,3.94,4.43,4.46,4.17,8.58,9.52,13.17,13.7.97.86,2.24,1.17,3.26,2.48,2.01,2.56,3.42,4.17,5.84,6.42.6.55,3.42,2.53,3.42,3.13s-1.23.57-.81,1.7c-.44.13-.13-.52-.39-.52-.31,0-.78.31-1.04.52-1.43,1.3-3.05,3.44-4.57,4.83-4.9,4.51-10.07,8.9-14.87,13.56-1.3,1.28-2.97,2.63-4.38,3.83-.63,3.7,1.77,3.03,3.99,1.51.03.52-.37.94.29,1.28,5.17-1.77,10.72-1.83,16.15-2.32.52.55-.37.7-.81.76-3.26.39-6.78.39-10.12.83-.78.1-1.9.13-2.5.63-.16.65.81.42,1.17.39,3.42-.26,7.67-.91,11.19-1.33,2.69-.34,3-1.88,4.46-2.32,1.17-.34-.78,1.8.26,1.57,3.68-3.39,7.59-6.52,11.5-9.65.57-1.46,1.93-2.45,2.74-3.65-.23.03-.52,0-.78,0,0-.89.91-1.2,1.57-1.57.1-.21-.18-.7.78-.65-.29.86-.55.52-.78.65-.23.42-.55,1.2-.78,1.57.29-.05.39-.1.65-.23.13-.08,2.37-2.11,2.48-2.24.31-.39.23-.86.26-.89h-.52v-.78h.52v.78s.57,0,.91-.26c2.22-1.75,4.28-4.23,6.52-6.03v-.78c-.52.5-1.02,1.07-1.57,1.57-.26.23-2.03,1.75-2.22,1.57.05-.99,1.28-1.38,1.83-1.93l-.03-.03ZM15.85,73.13v-.26c.16.08.16.18,0,.26ZM20.41,77.04c-.6-.63-1.36-1.23-2.11-1.67-1.1-.63-1.8-.29-2.32-1.98.37-.29,3.83,2.01,4.15,2.5.21.34.34.73.29,1.15ZM21.2,80.17c-.05-.05-.1-.55.13-.52.21.29.57.39.83.6.29.26.86,1.07,1.02,1.46-.16-.47-1.85-1.41-1.96-1.57l-.03.03ZM24.06,82c.99-.13,1.43.91,2.09,1.43-1.07-.05-2.06-.16-2.09-1.43ZM34.11,76.26c.16.08.16.18,0,.26v-.26ZM31.63,73.39c.5.42,1.93.6,2.22,1.04.21.29-.31.39-.31.65,0,.21.68.65.44.91-.31.34-2.71-2.17-2.35-2.61ZM35.15,90.08c-1.62-1.1-3.21-2.74-3.65-4.7,1.43,1.38,2.9,2.79,3.65,4.7ZM29.8,87.47l-.78-.26v-.26h.78v.52ZM30.06,88c-.18-.08.16-.44.52-.26.18.08-.16.44-.52.26ZM29,71.72c-.23-.37.03-.57,0-.76,0-.16-.99-.23-.5-.68.34-.31.68.42.83.6.23.31,1.64,2.11,1.51,2.27-.23.23-1.72-1.23-1.85-1.43ZM30.85,88v-.52h1.04c.31.13-.89.65-1.04.52ZM31.11,88.52c.16-.13,1.46.44,1.75.63.42.26,1.04,1.3,1.38,1.72-1.62.37-2.66-.94-3.13-2.35ZM34.34,92.61c-2.22-2.17.26-1.64.94.5-.23.1-.81-.34-.94-.5ZM46.63,85.91c.39-.08.94.81.89,1.02,0,.05-.76.57-.86.57-.31-.03-1.36-.55-1.2-.78l1.17-.81h0ZM45.98,107.3c-.39-.39.7-.83.91-1.04.13.39-.6,1.33-.91,1.04ZM44.93,108.08c-.26-.26.52-1.04.78-.78s-.52,1.04-.78.78ZM41.8,82.52c.05-.5.83-.31,1.07-.16.34.23.16.97.34,1.38.1.29.91.55.97.6,0-.03-.37-.94,0-.65l1.83,1.83c-.18.1-.57-.08-.78-.13.08.16.42.97.13,1.04-2.5-1.07-3.91-3.55-6.13-5.09,1.43-.63,1.49.7,2.61,1.17h-.03ZM44.67,105.21c.47.78-1.25,1.38-1.3,1.3-.44-.6.42-1.67,1.3-1.3ZM43.89,104.69v-1.04h.52v1.04h-.52ZM38.93,89.82l1.3-1.04c.16.16-.65.47-.39.78.1.1,1.12.34.65.78-.05.05-1.04-.81-1.57-.52ZM40.24,116.04c-.34.31-.55.76-1.04.65-.21-.1.76-.7,1.04-.65ZM38.93,78.34c.34-.34,1.41.94,1.04,1.3-.34.34-1.41-.94-1.04-1.3ZM25.37,111.21c.39.39-1.02,1.04-1.17,1.3-.1-.31.86-1.62,1.17-1.3ZM20.67,116.95c-.5,1.15.13.63.23.78.26.34-.89,1.17-1.17,1.28-.52.18-.23-.7-.76-.52-.5.44-2.58,2.92-3.26,2.35-.47-.39,1.36-1.3,1.46-1.41,1.43-1.2,1.67-1.83,3.5-2.5.08-.18.34-1.23.78-.78s-.57.7-.78.78v.03ZM21.72,115.78l.65-.65c.23-.03.16.5.13.52s-.63.18-.78.13ZM24.72,114.63l-2.22,1.83.63-1.3,2.74-2.09-1.17,1.57h.03ZM27.27,118.28l-1.1.39c.81-.94,1.7-2.35,3.13-2.22l-2.01,1.83h-.03ZM32.2,107.61c-.13.08-.65,1.2-.99,1.49-.31.29-.76.31-1.02.55-.89.76-1.67,1.64-2.61,2.35.39-.91,1.07-2.24,1.7-3,1.59-1.9,2.32-2.22,3.73-4.49.08-.13,1.49-1.41,1.93-1.88.57-.63,1.23-1.23,1.8-1.85l.26,1.04c.42-.65.91-.76,1.43-1.04.1-.21-.18-.7.78-.65-.31.86-.55.52-.78.65-1.59,2.9-3.97,3.7-5.14,6.08-.16.31-.08.63-.08.97l-.26-.52c-.44-.1-.16.37-.29.47-.08.05-.37-.21-.44-.16h-.03ZM34.5,115.12c.05-.34.83-.99,1.04-.78.31.31-.52,1.04-1.04.78ZM33.33,116.17v-.26c.16.08.16.18,0,.26ZM32.67,119.04c.37-.55.47-1.25,1.3-1.04.05.7-.68,1.15-1.3,1.04ZM33.72,115.91c-.29-.29.23-.81.52-.52s-.23.81-.52.52ZM34.24,120.6l2.37-2.19,2.58-1.46c-1.54,1.2-3.08,3.1-4.96,3.65ZM35.28,121.25c.23-.29.39-.47.78-.39.26.13-.52.5-.78.39ZM36.33,120.47c.39-.6.13-.81,1.04-.65.16.1-.76.81-1.04.65ZM38.78,118.62c-.29.23-.55.76-1.02.94.23-1.1,2.01-1.96,3-2.48-.65.52-1.33,1.02-1.98,1.54ZM47.28,110.43c-.5.86-3.08,3.76-3.91,4.3-.73.47-2.01.83-2.87,1.17l3-2.87c1.33-.78,2.48-1.88,3.78-2.61.08-.13.31-1.25.78-.78s-.65.7-.78.78ZM50.1,104.9c-.81,1.02-2.24,0,.21-.97.08.18-.13.89-.21.97ZM51.79,95.51l-.83-1.77c.52-.44,3.65,2.77.83,1.77ZM52.5,96.6v.78c-.5-.26-.94-.16-.78-.78h.78ZM51.06,107.3v-.26c.16.08.16.18,0,.26ZM51.72,106.78c-.08.18-.44-.16-.26-.52.08-.18.44.16.26.52ZM53.02,105.21c-.26-.31.52-1.02.78-.78.39.39-.73.83-.78.78ZM53.93,104.17v-.26c.16.08.16.18,0,.26ZM50.67,103.78c.05-.68,3.37-3.29,3.65-3,.47.44-3.03,3.05-3.65,3ZM54.85,103.26l.39-.39c.26.23-.39.65-.39.39ZM54.06,96.08c.44.89,1.28.81,2.09.52v.78c-.57-.08-1.38.13-1.9,0-.26-.05-.65-1.49-1.75-1.04,0-.5,1.2-.37,1.3-.52.05-.1-.81-1.88.97-1.1.08.05,1.57,1.04,1.64,1.12.76.91-2.01.08-2.35.26v-.03Z"/>
    </g>
  </g>
</svg>