<?xml version="1.0" encoding="UTF-8"?>
<svg id="Capa_2" data-name="Capa 2" xmlns="http://www.w3.org/2000/svg" viewBox="0 0 305.64 202.01">
  <defs>
    <style>
      .cls-1 {
        fill: #0f0e0e;
      }
    </style>
  </defs>
  <g id="Brand_Manual" data-name="Brand Manual">
    <g>
      <path class="cls-1" d="M258.94,74.85l2.59-.22c-.48-.74-1.17-.61-1.9-.69-5.53-.39-10.33.99-15.65,1.17-14.83.39-30.1-.91-44.88-.26-1.47.09-1.34,1.21-2.46,1.43-.78.17-3.07.26-4.02.3-3.59.13-7.61.09-11.07-.65-.74-.65-2.34-10.38-2.9-12.24-3.46-11.68-7.01-23.83-10.81-35.46-.52-1.64-1.86-3.16-1.86-3.37.09-2.55-.22-.95-.43-1.77-.82-3.29-1.25-7.7-1.77-11.16-.35-2.25-.82-4.45-3.42-4.58,1.34,2.94.13,5.41.48,8.39.22,1.82,1.43,3.2.82,5.02-1.69-.61-1.08-2.21-1.47-3.46-.65-1.99-1.99-5.97-2.38-8-.56-3.03,1.12-3.81.86-5.62-.13-.86-.56-1.21-.74-1.82-.17-.56.78-1.77-.78-1.86-1.3,1.69-2.98,3.2-4.02,5.06-1.34,2.38-1.47,5.36-2.59,7.78-.95,2.12-2.77,3.59-3.55,5.19-2.77,5.45-2.12,12.63-5.36,17.51-.52.78-1.12,2.38-1.99,2.77.82-2.55,2.72-6.05,3.03-8.65.09-.91-.35-.82-.65-.22-.39.74-3.07,7.52-3.16,8.13-.35,2.34.04,3.42-1.08,6.23-3.59,9.12-7.61,18.29-10.94,27.59-.39,1.51,1.47,3.93-1.04,3.46l.86,1.51-9.77.61c-1.86-.95-9.43.39-10.12-1.04l.86-1.08h-1.73l.43-1.73h-4.76c.95,1.43,3.5.48,2.38,3.03-1.99-.09-4.84-1.95-6.53-2.16-1.17-.13-2.08.48-2.98.43-.74-.04-1.3-.74-1.82-.78-.69-.09-2.34,1.95-3.16-.09l1.73-.43c-.69,0-1.56.17-2.21-.22-.43-.26.91-1.3-2.34-1.51-5.88-.39-12.58.39-18.59,0-6.18-.39-12.54-2.25-19.03-2.21-.99,0-1.86.22-2.81.48,1.21,2.21,4.71.3,5.79.39.3,0,.35.91.99,1.21,3.03,1.56,8.65-.56,11.37.74.22.09.56.56.43.65-2.16-.95-2.9,1.17-3.29,1.25-1.08.26-6.53-.78-8.65-.39-1.08.22-.91,1.21-1.38,1.3-.82.22-4.24-.26-4.45,0,0,4.58,4.11,5.06,7.05,7.01,6.05,3.89,9.6,8.39,14.83,12.41,6.18,4.71,12.11,10.85,18.2,16.04,1.47,1.25,6.18,5.02,7.61,5.66.61.26,1.86.74,2.34.35.09-.09.91-2.12.86-2.25-.17-1.08-2.42-1.69-2.98-2.25-.74-.74-1.82-3.24-3.24-4.54-.82-.74-2.38-2.08-2.59-.43l-1.95-2.59c.61,0,1.34-.13,1.95,0,.3.09,5.19,2.72,5.62,3.03,2.03,1.38,4.76,5.41,7.31,7.18,3.03,2.12,1.99.61,2.42-.26.3-.56,5.62,4.19,6.05,4.54l-4.11-1.51.22,1.73c-2.34.65-2.9-2.16-4.15-2.98-1.69-1.08-3.42-.09-2.59,1.25.52.82,7.13,5.19,8.48,6.05-.74,1.34-6.7,11.07-6.05,11.68.52-.04,1.25.17,1.64-.09,1.04-.61,4.28-11.55,6.79-11.59,1.34,0-2.72,6.44-2.98,6.96-1.82,4.06-1.82,4.19-4.15,7.96-4.5,7.35-7.05,16.91-11.07,24.82-1.04,2.08-2.94,3.81-3.2,6.1l-.22-2.59c-2.68,2.21-2.98,5.58-4.11,8.65.69-.13,1.43-2.59,1.73-.65-2.25,3.85-2.38,9.3-4.76,12.97-1.21,1.9-3.55,2.9-3.89,5.23-.13.86.61.91.86.65.09-.09,0-1.99.86-1.51-.17,1.64-1.77,2.77-2.16,4.32-.13.56.09.86.61.61,1.21-.52,6.1-8.48,5.84-10.38,2.16-.13-.43,3.68.65,4.76,1.17-.78,4.5-5.49,5.41-5.84.17-.04,2.64-.04,2.16.82-.48.95-1.95.52-2.16.65-.04,0,.39.74.26,1.3-.95,3.5-6.27,2.98-7.05,4.41-.26.48-.09,1.56-.43,2.38-.52,1.25-2.51,2.21-2.94,4.02-.22.95.3,1.99-.17,3.03,1.12,1.04,7.87-5.1,9.12-5.79.48-.26,3.59-1.64,4.19-1.86.69-.26,1.77.09,2.29-.3.43-.3.26-1.3.48-1.47.3-.26,1.3.13,1.6-.09.09-.09.17-1.43.74-2.12.43-.52,6.05-5.1,6.49-5.19,1.17-.26.35,1.51.86,1.3l7.57-6.7.43-1.08-1.08-.43c8.61-5.45,16-12.67,24.13-18.68.69-.52,3.72-2.34,2.46-.22l-8.13,6.49c-.22.48.35,1.17.35,1.64.86-.39.65-.43,1.25-.82.26-.17.86,0,.91,0,.22-.17-.61-1.38-.39-1.69.13-.17,2.85-1.64,3.55-2.21,3.59-3.03,7.18-6.23,10.68-9.34,2.64-2.34,4.8-3.2,8-4.54,1.73,0-.35,1.3,0,1.73,4.06,1.51,7.44,4.58,9.73,8.22-1.12.91-7.87-6.62-9.95-7.18-1.17-.3-3.07,1.56-2.59,1.99,1.95-.82,2.68-.22,4.28.69,4.15,2.38,6.05,6.44,10.85,8.82-.22-.48-.22-1.17-.86-1.51,1.3-.43.65-.43.65-1.51,1.04.91,3.11,1.56,3.59,2.9.17.52-.09,1.34.22,1.73.04.09,1.47.17.74.95-.22.22-1.69-.56-1.3.86,4.93,3.16,8.99,7.57,13.19,11.68,3.24-1.43-2.81-2.51-1.3-4.76,1.86.95,6.27,6.14,7.57,6.7.61.26,1.21-.39,1.95.17.91.69-.3,1.82.82,2.68.61.48,2.94.99,4.02,1.6.86.48,4.28,3.11,4.76,3.68.86.95,1.82,3.24,3.59,4.02.69.3,1.38-.22,1.73,0,.22.13,3.33,3.24,3.46,3.46.86,1.34,1.43,4.93,4.02,4.11.43-.13,0-1.38,2.55-.35.52.22.26,1.6,1.43.43,1.9-1.9-2.12-5.36,1.25-5.66l2.85,1.51c-.13-2.08-1.38-2.55-2.34-3.72-.39-.43-.35-1.3-.86-1.73-1.12-.95-3.89-.09-3.29-2.98.91-.22,1.12.78,1.73,1.04.82.35,1.99-.09,2.81,1.56.43-.26.26-1.43.13-1.86-.78-2.29-3.55-4.5-4.5-6.31-4.5-8.52-6.66-20.02-10.77-29.02-2.29-5.1-3.63-10.72-5.53-16.09-.86-2.46-2.51-5.36-3.2-8.04-.69-2.51-.69-5.06-1.38-7.61l1.25-.69c0,2.12.91,4.37,1.6,6.4.26.69-.22,1.17.99.95,0-4.24-1.38-4.41,1.95-7.35,8.48-7.48,18.64-11.42,28.19-16.78.52-.3,2.59-.86,2.68-.99,1.56-1.64-3.93.04-4.32.22-2.68,1.17-3.42,3.37-6.79,4.02-.99.17-1.64.43-1.43-.78,4.41-2.29,8.86-4.84,13.02-7.52,6.27-4.06,10.12-6.49,16.78-10.03,2.42-1.3,4.5-3.24,6.96-4.5.09-.78-.99-.43-1.38-.3-.95.3-2.21,1.64-3.37.99l7.65-5.97c-.22-.78,1.08-2.34.99-2.46-.09-.17-1.69-.17-1.3-1.3l.09-.04ZM75.17,94.74c-.56.52-3.93-1.99-3.89-3.03,1.04-.43,4.54,2.42,3.89,3.03ZM74.73,72.26c1.3-.17,10.25.3,10.81.86.43.43.09.91-.65.86-1.38-.09-2.9-.74-4.32-.86-1.69-.13-3.59.22-5.19,0-.65-.09-1.34-.35-.65-.86ZM85.33,105.12c-2.08-.61-4.58-4.41-6.75-5.36-.09-2.21-.74-2.51-2.12-4.11,3.98-.82,4.58,3.5,6.49,5.84.48.61,1.12.78,1.56,1.25.39.39,1.43,1.25,1.47,1.34.17.48.17,1.3-.65,1.08v-.04ZM104.57,82.63c.04.3.61.78.43,1.3h-3.24l-3.68-2.59c1.34,0,2.68-.13,4.02.09,1.08.17,1.95,1.08,2.46,1.21v-.86c.82-.48,10.59,0,8.65,1.73-2.72-.69-5.97-.26-8.65-.86ZM97.22,169.55c.3,2.29-1.56,1.95-2.59,3.46-.95-1.73.78-3.46,2.59-3.46ZM99.34,184.47c-1.95,1.73-.99.95-2.38,2.81-.74.99-1.86,2.25-2.81,3.03-.52-2.29.99-2.94,1.9-4.37,1.08-1.69,1.12-1.6,2.21-2.98.48-.56,2.46-4.19,3.24-3.5.99,2.59-.43,3.37-2.16,4.97v.04ZM106.3,184.68s-.91.17-.86-.22c.69-1.17,1.34-.3.86.22ZM103.7,152.69c-.26-.26,2.51-4.97,2.94-5.49.39-.52.52-1.17,1.38-.99.35.39-2.9,7.83-4.32,6.49ZM108.46,173.44c1.69-1.43,3.07-3.16,4.58-4.71.43-.48.65-1.08,1.47-.91-.74,3.76-1.73,6.01-6.05,5.62ZM121.22,166.13c-1.25,1.21-5.71,4.24-5.84,5.62h.86c.22,1.25-.99,1.43-.86,0h-.86c0-.35-.04-.69.09-.99.13-.3,3.46-4.89,3.81-5.28,1.12-1.21,3.11-1.86,4.76-1.95.48.43-1.56,2.25-1.95,2.59ZM121.87,122.85c-.69-.65,2.12-2.64,3.03-2.16.65.61-2.46,2.68-3.03,2.16ZM127.27,143.17v-.43c.26.13.26.3,0,.43ZM137.39,136.47c-1.04.48-8.99,6.79-9.47,6.31-.17-.82.48-1.04.86-1.51.82-.95,6.4-5.32,7.52-5.88.69-.35,1.21-.52,1.99-.39l-.91,1.47ZM137.87,62.31c-.95,1.08-1.6,2.9-1.73,3.03-1.43,1.38-.39-3.29-.43-3.46l-1.3.65,1.12-3.63,2.77-2.59c1.21,2.34-.39,3.81-.43,6.05.48-.56.91-1.43,1.73-1.3.43.52-1.82,4.76-1.73,1.3v-.04ZM138.73,73.99c-.13-.13,1.6-2.98,2.59-2.59.17,1.43-1.17,2.77-2.59,2.59ZM143.92,45.45c.13,2.12.74,2.38-1.73,3.89,0-.86.35-2.98.82-3.63.35-.48.65-.17.91-.26-.09-1.04.39-1.64,1.3-2.16-.39,1.73,0,1.69-1.3,2.16ZM146.08,42.85c-.13.3-.74-.26-.43-.86.13-.3.74.26.43.86ZM216.78,183.86c1.08.86,1.69,2.03,1.51,3.46-.82-.56-2.98-2.51-1.51-3.46ZM214.4,197.66c.48.48-.39,1.34-.86.86s.39-1.34.86-.86ZM206.27,185.46c.48.26,1.12.04,1.64.09v.43c-1.6-.39-.22,2.08-1.51,1.73-1.21-.35-4.5-2.25-4.5-3.68,2.34-2.94,3.46.91,4.37,1.43ZM196.67,169.12l2.16,2.16c-1.04-.69-2.59-.48-2.16-2.16ZM228.24,77.88l-.86,1.73,2.81-.43c1.04,1.47-5.15,2.81-5.41,2.59.56-1.56,1.38-4.06,3.46-3.89ZM228.24,81.77c.09,2.08-1.12,2.12-2.16,3.03.43-.43,1.99.82.65,1.3-.91.35-.78-1.12-.65-1.3-.99.91-1.82,2.12-3.46,2.16-.22-3.5,3.07-4.15,5.62-5.19ZM214.84,87.39c.09.09.22,1.04-.3,1.3-.17.13-3.46,1.43-3.59,1.3v-2.16c.82.43,3.76-.56,3.89-.43ZM210.94,81.34l-.43,3.46c-1.69.04.09-1.95-2.59-1.3-.78-.56,2.55-2.16,3.03-2.16ZM208.57,89.12l1.08.65c0,.3-.95.52-1.17.78-.39.48-.43,1.43-.61,1.56-.52.35-2.59-.09-3.42.04l4.11-3.03ZM204.02,93.01l3.89-.43c.43.48-2.72,5.84-3.89,4.76-.48-1.43,1.69-2.64,1.73-2.81.43-1.34-2.21.17-1.73-1.51ZM198.84,102.53l-2.42,2.55c-4.5,1.6.43-2.46,2.42-2.55ZM179.59,95.65c.43.39-.65,1.08-.65.65l.65-.65ZM174.19,67.28c0-.39.78-.3.86-.22.61.56,1.64,6.49,1.73,7.78-1.34.26-.65-.43-.91-1.04-.74-1.86-1.77-4.54-1.69-6.53ZM169,49.34c.09.09.26,1.3.65,1.3.13,0,1.56-1.73,1.95-.22.39,1.43-1.25,1.3-1.34,1.77-.3,2.21,2.42,5.15,2.21,7.48-.99.3-1.3-.99-1.6-1.64-.48-1.17-2.81-7.78-2.72-8.52,0-.39.78-.3.86-.22v.04ZM168.13,75.28c.04,1.51-.86,3.24-2.59,3.03l2.59-3.03ZM166.84,71.39c-.48.04-.95-1.47-1.04-1.77-.17-.74-.39-1.34-.26-2.12,1.47.69,1.34,2.55,1.3,3.89ZM165.54,66.2c.48.48-.39,1.34-.86.86s.39-1.34.86-.86ZM160.78,81.77c-.48.61-4.11,4.58-4.76,3.89-.91-.95,3.68-4.15,4.76-3.89ZM156.03,93.88l-.91,1.47-4.71,3.72c-1.12-1.34,3.81-5.71,5.62-5.19ZM156.89,63.18c.09-.09,2.08,0,2.59-.86.74,1.43-.43,4.06-2.21,2.85-.48-.35-.56-1.82-.39-1.99ZM159.36,18.12c.3.61.56,2.81.09,3.11-2.51,1.64-1.77-6.44-.09-3.11ZM155.55,50.81c2.34-.43,2.38,3.11,2.16,3.29-.82.82-1.43-.86-1.51-.86-1.47-.35-1.3,1.25-1.73,1.3-.56,0-1.77-3.2,1.08-3.72ZM153.43,41.56c-.04,1.25.56,3.5-1.3,3.46.04-1.25-.56-3.5,1.3-3.46ZM151.49,33.77c.35-.56-.09-1.08,1.08-.86.61.95-1.77,5.19-2.59,4.32.22-1.12.95-2.46,1.51-3.46ZM154.3,98.2c.56.48-3.72,4.97-4.32,4.32-.78-.82,3.5-5.06,4.32-4.32ZM148.68,147.06c-.65-.69,1.86-2.25,2.59-1.95-.22.61-1.82,2.72-2.59,1.95ZM157.54,109.05c-1.21,2.46-4.11,2.68-5.45,3.63-.35.26-3.68,3.55-3.85,3.76-.09.13.99,2.12-.91,2.55-.17-2.25.74-3.42,1.51-5.19.48-1.04,0-3.33,1.73-.86,1.9-2.85,5.06-4.97,7.31-7.39,3.16-3.37,6.01-6.96,9.12-10.33.65-.69,4.89-6.44,5.84-5.62-4.5,6.96-10.81,12.58-15.35,19.46h.04ZM171.59,121.12c-.3-.3,1.82-5.45,3.03-4.32-.13,1.82-.78,4.24-3.03,4.32ZM172.24,104.26c-.39-.04-.26-.99-.22-1.3-2.21,1.25-2.98,4.11-5.62,4.54,1.43-1.17,5.06-7.05,6.27-7.57,1.56-.65-.56,2.51-.65,3.03l3.03-2.59c.39,2.21-1.56,2.72-2.81,3.89ZM175.36,99.97c-.09,0-1.17-.99-1.17-1.08.09-.48,1.9-3.5,2.59-2.81l-.86,2.16c.82.35,2.08-1.9,2.59-1.3.95,1.08-1.64,3.33-3.16,3.03ZM186.51,174.31v-.43c.26.13.26.3,0,.43ZM189.76,175.17c-3.63.26-2.08,0-2.81-2.16-.43-1.34-.61.95-1.73.43-.56-.26-.74-1.6-1.25-2.21-.61-.65-5.62-3.89-5.02-4.71,3.63-1.3,7.09,3.33,9.21,5.88.65.78,2.08.78,1.6,2.72v.04ZM185.43,99.5l1.73-2.38,2.16-.65c-.78,2.08-1.6,2.72-3.89,3.03ZM191.48,137.98c-.74.3-1.99-1.73-2.08-2.03-.22-.74-.09-1.51-.09-2.29,1.3,1.08,2.51,2.55,2.16,4.32ZM185.43,83.5c-.74-.56.04-.78.65-.86,1.25-.17,4.02.39,4.11-1.3h.43c0,.22,0,.65.13.74.43.26,1.73.48,2.34.52.91.09,3.33-1.04,3.2.91h-10.85ZM205.06,112.47c-3.42,2.77-7.48,4.63-10.59,7.78-.56-3.5,4.45-4.45,6.49-6.66.69-.74.78-1.73,1.3-2.16.56-.56,1.9-.69,2.72-1.17,1.38-.82,2.42-2.34,4.19-2.08.56.48-3.59,3.89-4.11,4.32v-.04ZM208.35,105.98c-.13-.13.95-2.68,1.12-2.98.17-.35.86-.3,1.04-.78.13-.43-.13-1.21,0-1.43,0-.04.65.39,1.25.22.69-.17,1.73-2.03,2.21-1.51.3.35-3.59,7.52-5.62,6.49ZM213.62,94.74c-5.58,2.55,0-1.38.26-1.77.69-1.21-1.17-1.99,2.68-1.64l-2.94,3.42h0ZM216.56,108.58c.22-.78,1.9-1.12,2.59-1.3-.26.82-1.82,1.34-2.59,1.3ZM217,83.5c.69-1.43,1.86-1.99,3.46-1.73-.56,1.9-1.69,1.9-3.46,1.73ZM223.79,95.3c-.82.52-1.86.13-2.64.35-.35.09-.3.74-.35.78-.48.3-1.21-.39-1.21-.56,0-.39,5.32-3.5,6.01-4.37l6.53-1.04-8.35,4.84h0ZM249,83.5c-2.25.86-10.64,6.1-12.54,4.37-.91-.82,2.21-1.08,2.85-1.69.56-.61.61-1.69,1.04-1.99,1.04-.69,4.37-1.47,6.18-2.81,1.9-1.43,1.08-2.16,1.56-2.81.3-.39,2.85-1.77,3.07-1.51.91,1.08-3.46,4.8-2.16,6.44Z"/>
      <path class="cls-1" d="M201.26,71.26c5.62.26,11.03.78,16.78,1.04,4.63.22,12.97.56,17.34,0,.48-.04,2.16-1.69,4.37-1.73,2.51,0,1.82,1.9,5.23-.78.35-.26.78,0,.56-.99-1.12-.09-2.12.39-3.24.43-9.6.39-18.98-.3-28.54-.48-4.76-.09-14.1-.65-18.25.82-.43.17-1.25.26-.61.91.26.22,5.45.65,6.36.69v.09Z"/>
      <path class="cls-1" d="M216.18,179.24c.09.48.65,1.73.99,2.03,1.73,1.38,1.34-.13,1.73-.74.13-.17.61-.13.69-.43,0-.13.04-2.38,0-2.51,0-.43-.82,0-1.34-.52-.52-.48-1.64-3.55-1.25-4.06l1.3.43-.86-3.03-1.3,1.73c0-1.51-1.08-3.24-1.3-4.58-.35-2.25-.22-5.58-.56-7.74-.82-5.41-5.23-17.3-7.48-22.7-.43-.99-1.04-2.64-2.38-2.59.48,1.21-.09,2.25.17,3.46.82,4.19,4.76,11.07,5.02,15.39.04.78-.82.52-.91.86-.35,1.64,1.21,2.51,1.77,3.81,2.03,4.8,2.72,11.16,4.97,16.22.48,1.08,1.95,2.72,2.34,3.72.48,1.3-1.95-.09-1.69,1.25h.09Z"/>
      <path class="cls-1" d="M107.81,73.99c1.6.43,6.96,0,9.08,0s1.64,1.25,1.82,1.3c1.56.43,1.3-.65,1.77-.82.86-.35,2.72.26,2.72-1.77-5.32,0-10.68-.09-16,.43,0,.26.52.82.65.86h-.04Z"/>
      <path class="cls-1" d="M200.95,135.65c0,2.12,2.38,4.93,3.33,7.05.99,2.25,1.51,4.84,2.51,7.01.3.65-.04,1.08,1.08.86-1.51-3.55-2.29-8.13-3.81-11.55-.65-1.51-1.99-2.38-2.25-4.02-.82-.04-.86-.22-.86.65Z"/>
      <path class="cls-1" d="M102.84,137.12c-.35-.39-1.34.26-1.73.65-1.3,1.25-2.77,6.92-3.46,8.86,1.86-1.56,3.85-5.28,4.76-7.52.17-.48.74-1.64.39-1.95l.04-.04Z"/>
      <path class="cls-1" d="M94.19,156.14c-.13-.09-.99-.13-1.34.26-1.38,1.69-2.25,7.09-3.42,9.25.39-.04,1.04-.95,1.25-1.25.61-.99,4.11-7.78,3.5-8.26Z"/>
      <path class="cls-1" d="M205.32,132.79c.56-.56-1.21-5.53-3.03-5.19-.52,1.21,1.77,6.4,3.03,5.19Z"/>
      <path class="cls-1" d="M252.67,71.39c1.08,0,1.51-1.73.86-1.73l-4.67.52-3.33,1.21h7.13Z"/>
      <path class="cls-1" d="M95.49,129.77c-7.39-.86-14.88-.22-22.27-.43-15.52-.43-31.18-1.34-46.66-1.77-1.99-.04-4.58-.17-6.53,0-.78.04-1.69-.09-1.9.86l11.24.86c.43,1.82-2.29.09-2.59,1.3h7.35l-.43-.86c3.07.09,6.14.17,9.21.26,4.06.13,8.13.52,12.19.65,1.95.04,2.9-.65,4.97.22.69.3,1.08-.04.86,1.04-6.4,0-12.84.74-19.24.74-8.48.04-17.34-.61-25.51-1.12-4.24-.3-8.43-1.38-12.76-.91l2.59.86c-2.55,0-4.97-.22-5.84,2.59-.13.48-.43.65.22,1.08,1.73,1.08,7.35.48,9.69.69.43.04,2.03.17,1.99.82-2.25.82-4.97,0-7.05,1.3-.65.43-3.03,3.03-2.46,3.89.61.86,6.23.56,7.44,0,.52-.22,0-1.04.95-.86.39.09.09.61.52.86.86.48,3.59.26,4.58,0,.56-.13,0-1.04.74-.86l.43,4.32c-3.68.09-7.35.3-11.03.43-.61,0-1.34.48-1.69.48s.13-1.95-1.9,0c-.61,1.38,2.51,1.99,3.37,2.12l-.86.43c-.13,2.21,3.16.61,3.89,2.16-1.17,0-2.59-.09-3.72.35-.78.3-.69.91-1.04,1.12-1.38.91-2.68.22-2.59,3.29,1.3.65,2.03-.43,3.24-.48,9.25-.35,18.77,1.08,28.11,1.34.69,0,1.6.56,2.12.39.74-.22.43-1.38.99-1.73.74-.48,3.98-.82,4.45.43h-2.16v1.3c2.21.09,4.5-.13,6.7,0,9.43.48,18.72,1.21,28.06,1.3,2.08,0,5.1,1.25,6.27-.39l-9.73-.43-16.65-1.08c.56-.82,1.04-.61,1.82-.56,8.09.39,16.17.91,24.26,1.12l.74-.78-20.76-.86c.22-.78,2.12-.82,2.81-.86,4.06-.3,10.12-.13,14.31,0,1.51.04,10.55,1.21,10.98.82,1.04-1.99,1.08-4.02,1.64-5.92.52-1.73,2.59-4.5,3.16-6.36.39-1.25-1.9-.39-2.16-.65-.13-.13.09-2.08,0-2.59.74-.13,3.07.26,3.42-.04.04-.04.56-1.6.48-1.64-.91-.91-.69,1.08-1.3.86.48-1.99-.86-.78-1.3-1.73l2.59-.86c-2.55-.52-5.15-.99-7.78-.86l1.3-.86c-2.08-.04-4.19.04-6.27,0-3.89-.09-7.7-.61-11.68-.86-1.99-.13-4.06.09-6.05,0-.52,0-1.6.35-1.51-.43,1.77-.13,3.63.17,5.36-.04.61-.09,1.69-.26,1.56-.82l-1.73-.43c1.99.35,4.06-.3,5.88-.39,3.46-.13,12.32-.48,15.57-.04.91.13,1.82.95,1.9.91.09-.09,0-.99.69-1.21.43-.13,4.28.17,4.5-.09.09-.09-.04-.95,0-1.3v-.04ZM12.47,150.96c.56-.99,2.9-.17,3.89-.43-.61.99-2.9.17-3.89.43ZM17.01,150.09v-.43c.26.13.26.3,0,.43ZM34.09,139.71l2.59-.86-1.3-1.3c4.28.56,8.26,0,12.54,0l-.43.86,1.3.43c-4.89.13-9.73,1.47-14.7.86ZM55.27,133.23c1.77.61,4.58-1.38,5.62.43-1.38,0-2.77.04-4.11,0-.52,0-1.6.35-1.51-.43ZM63.92,148.36c.22-1.3,4.5-1.56,4.76-1.3v1.3h-4.76ZM76.46,137.12v1.3c-1.99.99-3.24-.78-4.06-.82-1.56-.09-4.71.78-6.49.86l-10.16-.65c6.79-1.38,13.88-.22,20.76-.65l-.04-.04Z"/>
      <path class="cls-1" d="M13.11,77.01c-2.16.56-6.44-.39-8.86,0l.17,1.77c2.81.78,6.18,0,9.12.39.43.04,1.82,2.08,2.77.48l-1.73-.43c5.88-.78,11.11,1.56,16.86,1.3,0,.65-1.56.78-1.99.82-3.72.43-7.22.04-10.68.22-4.54.22-9.12.82-13.71.69-.86,1.21,2.94,1.21,3.46,1.51.65.39,1.38,3.24,1.95,3.24h15.35v1.3h-8c-.48,0-8.35,1.43-8.78,1.6-.39.17-.43.65-.69.86-.3.26-1.04,0-1.17.39-.74,2.46,2.21,2.64,4.11,2.81,2.29.17,5.49-.52,7.31-.3,6.14.61,12.5.09,18.2.74.99.13,2.9.35,2.81,1.73-3.29.22-6.53-.69-9.73-.86-3.81-.22-7.48-.09-11.2,0-2.08.04-4.19-.09-6.27,0l1.73,3.46c-.26.35-6.75.61-5.62,2.16l58.38,2.59c.17-.74-.22-.86-.65-1.3-5.41-5.28-13.32-3.63-20.11-5.19.3-.35,1.43-1.73,1.56-1.77,1.69-.17,1.38,1.64,1.47,1.77.13.17,3.24-.82,4.11-.78,1.17.04,2.72.99,3.98,1.12.43.04,1.34.35.99-.56-.48-1.12-4.54-3.03-5.84-4.11-2.46-2.12-4.28-4.71-7.18-6.66-1.51-.99-5.06-2.12-5.84-2.81-.78-.65-.52-1.77-.61-1.77h-6.05c-.04-.99-.13-.78.65-.86,1.6-.22,6.44.65,6.7.43.95-.82-1.82-1.21-2.21-1.6-.52-.52-.74-2.25-1.08-2.34l-9.43.35c-1.56-1.08-2.64-.56-4.37-.3l-5.41-.86c1.99-1.43.82-.48,1.38-.13.65.39,2.94-.35,4.02-.35,3.63-.09,7.44-.09,10.81-.17,1.38,0,3.16.39,4.54.65.3-1.3-.78-.61-1.47-1.3-.26-.26-.22-1.43-1.08-.82-.04,0,.09.74-.3.82-.95.26-2.55-.17-3.59,0l1.3-1.3c-2.55.56-5.36-.52-8-.43-3.68.13-7.7,1.51-11.46,1.3l3.03.86-11.24.43c-.69.52,0,.78.65.86,2.55.35,5.06-.52,7.57-.43,0,.26-.52.82-.65.86v-.09ZM37.98,86.53c.13.43-1.82.86-1.95.86h-6.27c-.17-1.12.17-.78.95-.99,2.42-.69,4.76.52,7.26.13Z"/>
      <path class="cls-1" d="M288.99,85.66c-5.62-.65-10.42-.78-16.09-1.56-2.51-.35-4.97.26-7.48.26v1.3c.26,3.72,2.03,1.82,4.54,1.82,3.89,0,9.25.74,13.02.39,1.73-.17,3.81-.95,5.97-.74,1.04.09,2.16,1.04,3.5.78.43-.09-.26-1.9,1.51-1.34-.86-1.51-3.37-.69-4.97-.86v-.04ZM266.94,85.23v-.43c.26.13.26.3,0,.43Z"/>
      <path class="cls-1" d="M265.86,80.52c-.13.78-1.25.09-.86,1.73,6.96-.35,14.14.61,20.97-.86.39-.04,5.66.3,4.11-.86h-16l9.51-1.3c-1.99-1.3-4.02.35-5.45.39-.17,0-.13-.82-.48-.86-.74-.13-4.32.61-4.5.48-.69-.78.39-1.51,1.3-1.51-1.64-.95-.17-2.51-2.38-1.95-.61.17.35,1.12.22,1.3-.26.3-6.79,1.9-7.78,1.73-.17,1.12.22,1.6,1.3,1.73h.04ZM274.51,81.34c-.09.95-2.98.35-3.03-.43l3.03.43Z"/>
      <path class="cls-1" d="M263.05,103.82c-1.73-.48-5.53.35-7.57,0v1.3c1.08-.39,7.91.26,8.22,0,.26-.22-.3-1.21-.65-1.3Z"/>
      <path class="cls-1" d="M294.83,98.2c-4.19.22-2.29,0-2.81-1.25-1.04-2.64-2.55-1.77-4.24-2.29-3.24-.95,1.99-2.46,3.37-2.08.17-.17-.26-1.17-.3-1.21-1.12-.86-10.9-.86-12.89-.95.3-.61,2.12-.69,2.85-.82.61-.13,1.25-.04,1.9-.04.09-1.08.09-.74-.65-.86-3.07-.43-4.28-.52-7.22.48-.3.09-.3.74-.65.82-1.95.43-5.02.3-7.05.43l1.3-1.3c-2.08.61-2.03-1.3-3.89-.86l.65,1.3c-.82.13-1.3-2.16-2.38-1.3-1.3,1.04,1.6.22.86,1.08-2.34.17-.65,1.25-.86,1.51-.17.22-4.71,1.21-5.36,1.69-.43.35-.04.99-.56,1.34-1.25.82-4.28.78-5.71,1.99l-.61-.26c.86.09.95-1.6-.04-1.3-1.43.43-2.81,2.34-4.54,2.16l2.59.65c0,.39-1.69.48-2.16.86s-.35.99-.43,1.08c2.55-.04-.22,1.34-1.73,1.73-1.04.91-2.9,1.6-3.03,1.73-.43.43-.09.91.65.86,1.86-.13,3.85-.78,5.84-.43l-1.3-.86c4.24-.39,8.52-.26,12.76-.43,7.61-.3,15.57-.61,23.35-.86,3.68-.13,6.14.61,9.56-.86.35-.13.13.82.43.91,1.43.26,2.72-2.29,2.38-2.59l-.09-.04ZM247.27,99.07l3.03-1.73c-.52.99-1.99,1.56-3.03,1.73ZM258.03,96.51s.17,1.04.43,1.3c-5.02,1.56-1.43-2.08-.43-1.3ZM277.97,99.93l5.41-.86c1.86.3,5.02-.86,6.27.86h-11.68Z"/>
      <path class="cls-1" d="M248.72,132.67h-11.59c-.14,0-1.12.98-1.05,1.41h10.89c.42,0,2.39-1.12,1.76-1.41Z"/>
      <path class="cls-1" d="M231.16,80.52c-.42-.14-1.12.14-1.41,0-.28,2.32,1.83,2.11,1.41,0Z"/>
      <path class="cls-1" d="M281.11,152.06c1.41-.42,1.26-1.83,1.76-1.83.91,0,1.97.7,2.81.7,2.39-.14,4.78-1.12,7.31-.63.63-2.74-4.5-.77-4.92-2.81,1.9.14,6.32.63,5.55-2.39-.49-2.11-7.38-.7-9.35-1.12-.56-.14-.56-1.26-1.34-1.62-1.34-.56-18.48-1.26-21.22-1.19-2.11,0-14.47,2.18-15.18,1.41-1.19-5.13,4.78-2.11,8.08-2.04,6.82.21,8.92-1.05,15.6.63,4.01.98,7.73-1.69,10.54-1.97,1.05-.07,1.48,1.26,2.67,1.34.63,0,0-1.26.7-1.41,1.62-.35.84.98,1.19,1.19.56.35,4.15.42,4.99.21,1.69-.42-.49-.84,4.36-.7,3.65.14,7.24-.07,10.89,0-.14-.77.21-3.3,0-3.51l-83.62-.35c.35,3.3,6.32,1.48,6.89,1.83.28.21.35,1.34.84,1.62.63.42,9.63.7,11.8.91.91.07,1.41-.28,2.25-.56-.28,3.37-3.44,2.39-5.2,2.81-.7.14-.42,1.34-.49,1.41-.42.35-1.62-1.69-2.11-1.41,0,0,.14,1.05-.49,1.41-1.19.7-3.16.56-4.43,1.41l.35-2.11-4.57.7.7,1.41-4.22.7c-.28.28.49,4.08.7,4.22.7.49,8.71-2.32,9.42-2.18.63.14.56,1.69,1.55,2.04,1.83.63,5.2-.21,7.31.14l-1.41,1.41c9.2,1.83,18.41.77,27.75.7,4.29,0,7.52,1.05,12.37-.28l.14-.07ZM287.37,147.43l-6.82,1.83-5.83-.42c.21-1.34,1.12-1.05,2.04-1.19,3.44-.56,7.17,0,10.61-.21ZM274.72,143.91c1.76-.21,3.72,0,3.51,2.11h-3.51v-2.11ZM272.96,138.99c.42.21.42.49,0,.7v-.7Z"/>
    </g>
  </g>
</svg>