<?xml version="1.0" encoding="UTF-8"?>
<svg id="Capa_2" data-name="Capa 2" xmlns="http://www.w3.org/2000/svg" viewBox="0 0 476.58 39.04">
  <defs>
    <style>
      .cls-1 {
        fill: #fbfbfa;
        stroke: #000;
        stroke-miterlimit: 10;
        stroke-width: .2px;
      }
    </style>
  </defs>
  <g id="Brand_Manual" data-name="Brand Manual">
    <path class="cls-1" d="M242.87.87c.72.3,3.24.8,4.46,1.34l-.81-1.33c13.48.65,25.82.34,38.39.24l-4.85,1.52c-1.29.49-7.25-.35-8.24-.16-.84.16.44,1.08.19,1.13-.46.11-12.13-.8-14.11-.77-2.12.03-3.35.64-5.82.5,5.53,2.2,6.91.54,10.41.53,15.28-.04,29.92.18,45.46-.09,6.88-.12,15.86.17,23.43.59-1.01-1.66,6.67-1.2,10.41-1.13l-6-1.08.55-1.33c3.75,1.14,4.13.65,4.97-.19l2.02.84c2.9-1.29,2,.67,2.35.93.84.62,1.91,1.19,3.57,1.4l15.46-.48c6.44,2.6,3.66.84,5.82.63,1.15-.11,4.77.98,6.29.52,2-.6-4.85-.99-2.79-1.33,7.4,1.38,11.29,1.44,13.17-.47,1.14-1.16-2.8-1.98,5.05-1.38,2.05.15,1.59,2.03,3.89,1.83s-2.12-1.84-2-1.88c2.09.42,6.18.14,6.57.19,1.71.25,3.43.95,5.34,1.25,3.61.57,4.99-3.37,8.5,2.45l-3.93-1.08-1.06.86c4.7,1.18,6.88.33,10,.28l-4.43-2.18c-.12-.1,2.57-.56,3.06-.56,2.67.03,15.54,1.64,16.7,1.37.29-.07-1.12-1.08-.21-1.16s3.29.67,4.05.66c1.04-.02.82-1.1,2.17-1.14,1.08-.03,4.02.81,5.71.89,2.09.11,2.85-.73,4.45-.73,1.35,0,3.74.62,5.24.59,2.31-.05,3.31-1.73,8.14-.08l-.4-.88-4.04-1.29c1.45-.34,4.58.21,6.19.15,1.77-.07,2.52-1.55,5.15-.09l-2.55.83c6.6,3.45,2.73.11,7.19.64.68,1.14.73,3.64-.27,4.25-.73.45-3.15,0-3.94.3-1.22.46-2.42,2.64-2.84,2.65s-3.05-1-4.43-1.13c-.69-.07-10.08,1.18-9.54,1.49,4.02.72,5.19.35,9.48,2.23l.41-1.42,2.23,1,1-1.26c1.12.54,4.23,1.75,4.8,2.16.19.13-.89.18-.69.4.11.12,1.74.57,1.85.86.27.74-.45,1.34-.47,2.03l-7.4-.83,3.22,2.02-2.53-.29,1.01,1.2-4.7-1.28-.77-1.74c.75,1.81-8.97,1.72-10.7-.67l-5.36-.7,4.69,1.3-2.73.77c3.89,1.63,7.38.57,8.27.75,2.2.44,5.03,1.64,7.4,1.83l8.8.34c-1.9,2.15-.11,6.85-2.39,8.68-1.58,1.26-13.04.05-9.71,3.33.62.61,3.21.93,2.02,1.6-3.19-1.17-4.73-1.81-6.04-3.18-5.15-.67-4.19,1.75-11.65-1.31.95,1.99-4.36,3.06-10.29.6l1,1.02c-1.79-.59-7.4-1.15-8.22-1-8.1,1.53-11.68.82-21.54,1.21-4.05.16-10.29-.42-11.16,1.51-4.84-2.38-6.76-.99-10.09-.99-7.09,0-15.04.25-22.83.18-.36,0-2.4-.91-3.31-.57-1.96.71,7.15,1.75,8.21,1.92,2.87.46,7.89,1.39,10.64,1.67,2.33.24,5.31.16,3.21-1.15l2.94,1.07c1.11.24,1.37-.31,2.34-.26,6.56.31,11.74.48,19.74,1.09,4.59.35,14.84-1.17,20.77-.76,1.73.12,4.04,1.01,5.14.97,6.38-.23,9.55-2.88,19.05-1.54,2.64.63,1.8.61.62.81-2.8.46-6.67-.52-9.35-.06-2.08.36-1.63,1.51-2.13,1.6-1.22.23-5.53-.64-6.38-.55-.37.04-3.1,1.93-4.55,1.94-1.85.02-3.85-.65-4.72-.69-.31-.01.89,1.09-1.1.78l-.44-.86-2.28-.65c-1.35,1.02-7.38.66-11.42.11-1.4-.19-4.15-1.06-4.62-1.05s-2.37,1.68-6.37,1.6c-2.11-.04-5.48-.81-7.02-.78-2.8.05-1.86,1.98-9.55-.7,2.26,2.58-4.33.64-6.14.71-4.16.15-8.67.38-13.69.33-3.45-.03-8.73-.7-11.43-.33-1.53.21-2.14,1.01-3.54,1.23-4.19.67-12.1.81-18.9.45l-2.06-1.71c.23,1.9-1.68.25-2.32.23-4.72-.13-4.99.77-7.67,1.6l-1.45-1.54c-.04,1.18-4.79-.3-6.71-.35-.88-.02-1.32,1.29-4.07.42-3.02-.96.52-2,.08-2.64l-2.73.37-3.2-1.22-4.09.58,2.25,1-3.76-.08,6.53,1.41c1.91,1.02-1.63.7-2.73.78l-1.12-1.07-3.89-1.03-.38,1.01-2.18-.98c-.11,1.61-4.83.49-7.83.7l2.19,1.17c-4.87-1.52-4.4-.33-6.31-.1-1.74.21-1.64.43-1.79.44-2.82.21-5.83-.95-6.66-.87-.48.05-.21.67-.8.7-2.42.11-13.22.31-15.43.12-2.08-.18-3.51-1.12-4.13-1.17-.35-.03-.39,1.52-2.95,1.47l-.98-1.03-6.05-.88.68.85c-4.67-.08-5.13.37-10.61-.39-.49-.07-.51,1.04-5.04-1.17l1.99,1.88c-5.18-.31-10.04-.52-13.82.08-1.07.17-.39,1.03-1.6,1.02-2.14-.01-4.49-1.06-4.64-1.04-.44.05-.29.7-1.1.74-1.93.11-4.74-.27-6.29.22l-1.54-1.18c.11,1.19-3.65-.48-6.31-.43-.78.01-5.74,1.12-5.34,1.42l2.2.32.56.78,3.04.68c-3.63-.22-5.25.55-9.74-.92l-.47.92c-5.31-2.04-4.7.82-8.04.78-1.29-.02-3.51-.68-4.27-.58-1.04.14.83,1.58-4.03-.07.3.89,4.51,1.21.29,1.21l-2.16-1.34-1.96.22,2.25,1-7.23-1.22,5.2-.66c-4.66-2.89-7.38.18-9.28.21-.6.01-2.13-.64-3.24-.52-2.01.21-1.41,1.57-1.69,1.54-3.15-.26-1.38-1.28-3.31-1.66l-2.63.23,2.21,1.17c-4.19-.45-13.97-1.68-16.95-1.5-1.7.11-.54,1.2-.73,1.19-2.67-.25-6.51-.83-9.41-.92-1.68-.05-2.26,1.09-6.58-.39l.92,1.39-3.66-.81c-.41,1.38-1.77.2-3.73.12-2.24-.09.02,1.95-7.32-.72.92-1.54-3.65-2.53-1.26-.31l-7.04-1.93c.66-.56,2.21-.37-.2-1.57-2.99.29-3.73-.33-6.45-1.78l-.4,1.42-10.58-2.91,3.71.26-2.28-1.23,1.1-1.38c-2.8-.92-6.47.46-4.88,1.7-5.13-1.14.18-1.23-1.28-2.26-3.44-.14-2.61.69-7.6-.2-3.09-.55.35-1.28-1.97-2.05l-13.17-2.07L.03,10.25l4.81.72-.68-.85,4.15-.08,2.74,1.51-1.81-2.36c4.89.76,9.32.44,13.24.63,5.03.24,11.98.77,16.61.86,1.34.03,2.42-1.28,6.39-.33l1.96,2.06c-.15-2.18,2.48-1.12,5.38-1.5,4.83-.63,8.67-1.48,14.99-1.3,1.2.03,3.48.68,3.97.64.64-.05.48-.92,1.78-1.16,3.08-.58,11.65.06,14.88,0,2.56-.05,6.13-1.04,10.73-.99,1.95.02,3.32.76,3.43.75,1.49-.17,6.15-2.52,9.01-.99,2.96-1.12,12.18.12,15.54,0,1.2-.04.35-1.06,1.76-1.14,1.94-.11,7.53.59,10.98.44,2.5-.11,5.07-.44,6.74-.98l4.44,1.57c-1.12-1.59,7.31-.67,10.29-.82,7.47-.36,16.55-.58,23.57-1.16,2.68-.22,7.73.63,5.08-1.79,3.11.38,2.53,1.82,3.82,2.18,1.03.29,12.22.1,11.07-1.14l2.13,1.34c-.18-2.24,6.27-.6,7.54-.69,1.53-.1-1.63-1.93,3.79.36,1.15-.41,3.66-.84,5.4-.91,1.09-.04,2.73.58,3.35.56.72-.02.79-1.17,4.24-.45-1.45-.95-4.35-1.06-5.9-1.21-9.28-.95-23.32-.75-32.67-1.07-11.99-.41-22.05.84-34,.8-1.52,0-13.72-.22-14.55-.31M368.08,17.9l-7.66-2.12.33,1.23-3.31-1.67c-.3,1.49-5.58.24-3.22,2.54,4.22.79,4.6-.62,9.73,1.14l.44-1.39,3.41,1.32.29-1.06ZM193.91,8.11l-8.88-.38-2.46.31c6.22,1.87,6.03.06,10.92,1.46l.42-1.39ZM175.15,30.38c7.1,2.97,15.27,2.57,17.41.98l-5.28.42-2.63-1.08-1.38.36-6.35-2.48-1.78,1.8ZM123.28,21.46c-6.13-2.75-4-.38-9.53-1.43l.84.93-7.16-1.58.87,1.56-3.64-.62c2.97,2.13,4.98.83,6.66.87,3.57.07,5.04-.15,7.43-.11,1.13.02,4.07,1,4.55.37ZM125.24,23.52c-4.75-1.46-4.24-.29-5.72-.06-.91.14-4.62-1.33-4.3-.23.71,2.37,10.89.77,10.02.29ZM95.48,26l-.58-2.44-8.31.38c-1.73-1.34-.02-1.87-4.89-2.86-.56.43,1.47.61,2.12,1.25,2.61,2.58-8-.12-5.76,3.06,8.01,2.91,5.69,1.24,7.35.83.65-.16,1.64.16,2.29,0,1.74-.43,2.73-1.78,7.77-.22ZM91.45,31.8c2.9.54,4.16.62,3.85-.51l-3.39.25-3.83-1.47-1.86,2.16,2.43.28-.38,1.43,1.65-.22c-.96-1.24,1.77.5,2.05.48,1.41-.09-.32-1.07-2.14-1.36l2.36.25-.75-1.28Z"/>
  </g>
</svg>