<?xml version="1.0" encoding="UTF-8"?>
<svg id="Capa_2" data-name="Capa 2" xmlns="http://www.w3.org/2000/svg" viewBox="0 0 66.41 62.21">
  <defs>
    <style>
      .cls-1 {
        fill: #fbfbfa;
        stroke: #000;
        stroke-miterlimit: 10;
        stroke-width: .2px;
      }
    </style>
  </defs>
  <g id="Brand_Manual" data-name="Brand Manual">
    <g>
      <path class="cls-1" d="M24.15,53.01c-.41.38-.77.82-1.18,1.21.81-.05,1.23-.81,1.79-1.26.48-.4,1.51-.78,1.53-1.46-.07.03-.24,0-.38.07-.42.21-1.39,1.11-1.74,1.45h-.01Z"/>
      <path class="cls-1" d="M38.1,50.69c-.12-.36-.41-.4-.66-.53.16.31.12.6.66.53Z"/>
      <path class="cls-1" d="M65.44,23.08l.8-.07c-.15-.23-.36-.19-.58-.21-1.7-.12-3.17.31-4.8.36-4.55.12-9.24-.28-13.78-.08-.45.03-.41.37-.76.44-.24.05-.94.08-1.23.09-1.1.04-2.34.03-3.4-.2-.23-.2-.72-3.19-.89-3.76-1.06-3.58-2.15-7.31-3.32-10.88-.16-.5-.57-.97-.57-1.04.03-.78-.07-.29-.13-.54-.25-1.01-.38-2.36-.54-3.42-.11-.69-.25-1.37-1.05-1.41.41.9.04,1.66.15,2.57.07.56.44.98.25,1.54-.52-.19-.33-.68-.45-1.06-.2-.61-.61-1.83-.73-2.46-.17-.93.35-1.17.27-1.73-.04-.27-.17-.37-.23-.56-.05-.17.24-.54-.24-.57-.4.52-.92.98-1.23,1.55-.41.73-.45,1.65-.8,2.39-.29.65-.85,1.1-1.09,1.59-.85,1.67-.65,3.88-1.65,5.38-.16.24-.35.73-.61.85.25-.78.84-1.86.93-2.65.03-.28-.11-.25-.2-.07-.12.23-.94,2.31-.97,2.5-.11.72.01,1.05-.33,1.91-1.1,2.8-2.34,5.61-3.36,8.47-.12.46.45,1.21-.32,1.06l.27.46-3,.19c-.57-.29-2.89.12-3.11-.32l.27-.33h-.53l.13-.53h-1.46c.29.44,1.08.15.73.93-.61-.03-1.49-.6-2-.66-.36-.04-.64.15-.92.13-.23-.01-.4-.23-.56-.24-.21-.03-.72.6-.97-.03l.53-.13c-.21,0-.48.05-.68-.07-.13-.08.28-.4-.72-.46-1.81-.12-3.86.12-5.71,0-1.9-.12-3.85-.69-5.84-.68-.31,0-.57.07-.86.15.37.68,1.45.09,1.78.12.09,0,.11.28.31.37.93.48,2.65-.17,3.49.23.07.03.17.17.13.2-.66-.29-.89.36-1.01.38-.33.08-2-.24-2.65-.12-.33.07-.28.37-.42.4-.25.07-1.3-.08-1.37,0,0,1.41,1.26,1.55,2.16,2.15,1.86,1.19,2.95,2.57,4.55,3.81,1.9,1.45,3.72,3.33,5.59,4.92.45.38,1.9,1.54,2.34,1.74.19.08.57.23.72.11.03-.03.28-.65.27-.69-.05-.33-.74-.52-.92-.69-.23-.23-.56-1-1-1.39-.25-.23-.73-.64-.8-.13l-.6-.8c.19,0,.41-.04.6,0,.09.03,1.59.84,1.73.93.62.42,1.46,1.66,2.24,2.2.93.65.61.19.74-.08.09-.17,1.73,1.29,1.86,1.39l-1.26-.46.07.53c-.72.2-.89-.66-1.27-.92-.52-.33-1.05-.03-.8.38.16.25,2.19,1.59,2.6,1.86-.23.41-2.06,3.4-1.86,3.58.16-.01.38.05.5-.03.32-.19,1.31-3.54,2.08-3.56.41,0-.84,1.98-.92,2.14-.56,1.25-.56,1.29-1.27,2.44-1.38,2.26-2.16,5.19-3.4,7.62-.32.64-.9,1.17-.98,1.87l-.07-.8c-.82.68-.92,1.71-1.26,2.65.21-.04.44-.8.53-.2-.69,1.18-.73,2.85-1.46,3.98-.37.58-1.09.89-1.19,1.61-.04.27.19.28.27.2.03-.03,0-.61.27-.46-.05.5-.54.85-.66,1.33-.04.17.03.27.19.19.37-.16,1.87-2.6,1.79-3.19.66-.04-.13,1.13.2,1.46.36-.24,1.38-1.69,1.66-1.79.05-.01.81-.01.66.25-.15.29-.6.16-.66.2-.01,0,.12.23.08.4-.29,1.08-1.92.92-2.16,1.35-.08.15-.03.48-.13.73-.16.38-.77.68-.9,1.23-.07.29.09.61-.05.93.35.32,2.42-1.57,2.8-1.78.15-.08,1.1-.5,1.29-.57.21-.08.54.03.7-.09.13-.09.08-.4.15-.45.09-.08.4.04.49-.03.03-.03.05-.44.23-.65.13-.16,1.86-1.57,1.99-1.59.36-.08.11.46.27.4l2.32-2.06.13-.33-.33-.13c2.64-1.67,4.91-3.89,7.41-5.73.21-.16,1.14-.72.76-.07l-2.5,1.99c-.07.15.11.36.11.5.27-.12.2-.13.38-.25.08-.05.27,0,.28,0,.07-.05-.19-.42-.12-.52.04-.05.88-.5,1.09-.68,1.1-.93,2.2-1.91,3.28-2.87.81-.72,1.47-.98,2.46-1.39.53,0-.11.4,0,.53,1.25.46,2.28,1.41,2.99,2.52-.35.28-2.42-2.03-3.05-2.2-.36-.09-.94.48-.8.61.6-.25.82-.07,1.31.21,1.27.73,1.86,1.98,3.33,2.71-.07-.15-.07-.36-.27-.46.4-.13.2-.13.2-.46.32.28.96.48,1.1.89.05.16-.03.41.07.53.01.03.45.05.23.29-.07.07-.52-.17-.4.27,1.51.97,2.76,2.32,4.05,3.58,1-.44-.86-.77-.4-1.46.57.29,1.92,1.88,2.32,2.06.19.08.37-.12.6.05.28.21-.09.56.25.82.19.15.9.31,1.23.49.27.15,1.31.96,1.46,1.13.27.29.56,1,1.1,1.23.21.09.42-.07.53,0,.07.04,1.02,1,1.06,1.06.27.41.44,1.51,1.23,1.26.13-.04,0-.42.78-.11.16.07.08.49.44.13.58-.58-.65-1.65.38-1.74l.88.46c-.04-.64-.42-.78-.72-1.14-.12-.13-.11-.4-.27-.53-.35-.29-1.19-.03-1.01-.92.28-.07.35.24.53.32.25.11.61-.03.86.48.13-.08.08-.44.04-.57-.24-.7-1.09-1.38-1.38-1.94-1.38-2.61-2.04-6.15-3.3-8.91-.7-1.57-1.11-3.29-1.7-4.94-.27-.76-.77-1.65-.98-2.47-.21-.77-.21-1.55-.42-2.34l.38-.21c0,.65.28,1.34.49,1.96.08.21-.07.36.31.29,0-1.3-.42-1.35.6-2.26,2.6-2.3,5.72-3.5,8.65-5.15.16-.09.8-.27.82-.31.48-.5-1.21.01-1.33.07-.82.36-1.05,1.04-2.08,1.23-.31.05-.5.13-.44-.24,1.35-.7,2.72-1.49,4-2.31,1.92-1.25,3.11-1.99,5.15-3.08.74-.4,1.38-1,2.14-1.38.03-.24-.31-.13-.42-.09-.29.09-.68.5-1.04.31l2.35-1.83c-.07-.24.33-.72.31-.76-.03-.05-.52-.05-.4-.4h.03ZM9.03,29.18c-.17.16-1.21-.61-1.19-.93.32-.13,1.39.74,1.19.93ZM8.9,22.28c.4-.05,3.15.09,3.32.27.13.13.03.28-.2.27-.42-.03-.89-.23-1.33-.27-.52-.04-1.1.07-1.59,0-.2-.03-.41-.11-.2-.27ZM12.15,32.37c-.64-.19-1.41-1.35-2.07-1.65-.03-.68-.23-.77-.65-1.26,1.22-.25,1.41,1.08,1.99,1.79.15.19.35.24.48.38.12.12.44.38.45.41.05.15.05.4-.2.33h0ZM18.05,25.47c.01.09.19.24.13.4h-1l-1.13-.8c.41,0,.82-.04,1.23.03.33.05.6.33.76.37v-.27c.25-.15,3.25,0,2.65.53-.84-.21-1.83-.08-2.65-.27ZM15.8,52.15c.09.7-.48.6-.8,1.06-.29-.53.24-1.06.8-1.06ZM16.45,56.72c-.6.53-.31.29-.73.86-.23.31-.57.69-.86.93-.16-.7.31-.9.58-1.34.33-.52.35-.49.68-.92.15-.17.76-1.29,1-1.08.31.8-.13,1.04-.66,1.53h0ZM18.58,56.79s-.28.05-.27-.07c.21-.36.41-.09.27.07ZM17.79,46.97c-.08-.08.77-1.53.9-1.69.12-.16.16-.36.42-.31.11.12-.89,2.4-1.33,1.99ZM19.25,53.34c.52-.44.94-.97,1.41-1.45.13-.15.2-.33.45-.28-.23,1.15-.53,1.84-1.86,1.73ZM23.16,51.1c-.38.37-1.75,1.3-1.79,1.73h.27c.07.38-.31.44-.27,0h-.27c0-.11-.01-.21.03-.31.04-.09,1.06-1.5,1.17-1.62.35-.37.96-.57,1.46-.6.15.13-.48.69-.6.8ZM23.36,37.81c-.21-.2.65-.81.93-.66.2.19-.76.82-.93.66ZM25.02,44.05v-.13c.08.04.08.09,0,.13ZM28.13,41.99c-.32.15-2.76,2.08-2.91,1.94-.05-.25.15-.32.27-.46.25-.29,1.96-1.63,2.31-1.81.21-.11.37-.16.61-.12l-.28.45ZM28.27,19.23c-.29.33-.49.89-.53.93-.44.42-.12-1.01-.13-1.06l-.4.2.35-1.11.85-.8c.37.72-.12,1.17-.13,1.86.15-.17.28-.44.53-.4.13.16-.56,1.46-.53.4h0ZM28.54,22.81s.49-.92.8-.8c.05.44-.36.85-.8.8ZM30.13,14.05c.04.65.23.73-.53,1.19,0-.27.11-.92.25-1.11.11-.15.2-.05.28-.08-.03-.32.12-.5.4-.66-.12.53,0,.52-.4.66ZM30.8,13.26c-.04.09-.23-.08-.13-.27.04-.09.23.08.13.27ZM52.5,56.54c.33.27.52.62.46,1.06-.25-.17-.92-.77-.46-1.06ZM51.77,60.77c.15.15-.12.41-.27.27s.12-.41.27-.27ZM49.27,57.03c.15.08.35.01.5.03v.13c-.49-.12-.07.64-.46.53-.37-.11-1.38-.69-1.38-1.13.72-.9,1.06.28,1.34.44ZM46.32,52.01l.66.66c-.32-.21-.8-.15-.66-.66ZM56.01,24.01l-.27.53.86-.13c.32.45-1.58.86-1.66.8.17-.48.42-1.25,1.06-1.19ZM56.01,25.2c.03.64-.35.65-.66.93.13-.13.61.25.2.4-.28.11-.24-.35-.2-.4-.31.28-.56.65-1.06.66-.07-1.08.94-1.27,1.73-1.59ZM51.9,26.93s.07.32-.09.4c-.05.04-1.06.44-1.1.4v-.66c.25.13,1.15-.17,1.19-.13ZM50.7,25.07l-.13,1.06c-.52.01.03-.6-.8-.4-.24-.17.78-.66.93-.66ZM49.97,27.46l.33.2c0,.09-.29.16-.36.24-.12.15-.13.44-.19.48-.16.11-.8-.03-1.05.01l1.26-.93ZM48.58,28.65l1.19-.13c.13.15-.84,1.79-1.19,1.46-.15-.44.52-.81.53-.86.13-.41-.68.05-.53-.46ZM46.99,31.57l-.74.78c-1.38.49.13-.76.74-.78ZM41.08,29.46c.13.12-.2.33-.2.2l.2-.2ZM39.42,20.76c0-.12.24-.09.27-.07.19.17.5,1.99.53,2.39-.41.08-.2-.13-.28-.32-.23-.57-.54-1.39-.52-2ZM37.83,15.25s.08.4.2.4c.04,0,.48-.53.6-.07.12.44-.38.4-.41.54-.09.68.74,1.58.68,2.3-.31.09-.4-.31-.49-.5-.15-.36-.86-2.39-.84-2.61,0-.12.24-.09.27-.07h0ZM37.56,23.21c.01.46-.27,1-.8.93l.8-.93ZM37.17,22.02c-.15.01-.29-.45-.32-.54-.05-.23-.12-.41-.08-.65.45.21.41.78.4,1.19ZM36.77,20.42c.15.15-.12.41-.27.27s.12-.41.27-.27ZM35.31,25.2c-.15.19-1.26,1.41-1.46,1.19-.28-.29,1.13-1.27,1.46-1.19ZM33.85,28.92l-.28.45-1.45,1.14c-.35-.41,1.17-1.75,1.73-1.59ZM34.11,19.49s.64,0,.8-.27c.23.44-.13,1.25-.68.88-.15-.11-.17-.56-.12-.61ZM34.87,5.66c.09.19.17.86.03.96-.77.5-.54-1.98-.03-.96ZM33.7,15.7c.72-.13.73.96.66,1.01-.25.25-.44-.27-.46-.27-.45-.11-.4.38-.53.4-.17,0-.54-.98.33-1.14ZM33.05,12.86c-.01.38.17,1.08-.4,1.06.01-.38-.17-1.08.4-1.06ZM32.45,10.47c.11-.17-.03-.33.33-.27.19.29-.54,1.59-.8,1.33.07-.35.29-.76.46-1.06ZM33.32,30.25c.17.15-1.14,1.53-1.33,1.33-.24-.25,1.08-1.55,1.33-1.33ZM31.59,45.24c-.2-.21.57-.69.8-.6-.07.19-.56.84-.8.6ZM34.31,33.58c-.37.76-1.26.82-1.67,1.11-.11.08-1.13,1.09-1.18,1.15-.03.04.31.65-.28.78-.05-.69.23-1.05.46-1.59.15-.32,0-1.02.53-.27.58-.88,1.55-1.53,2.24-2.27.97-1.04,1.84-2.14,2.8-3.17.2-.21,1.5-1.98,1.79-1.73-1.38,2.14-3.32,3.86-4.71,5.97h.01ZM38.63,37.28c-.09-.09.56-1.67.93-1.33-.04.56-.24,1.3-.93,1.33ZM38.83,32.1c-.12-.01-.08-.31-.07-.4-.68.38-.92,1.26-1.73,1.39.44-.36,1.55-2.16,1.92-2.32.48-.2-.17.77-.2.93l.93-.8c.12.68-.48.84-.86,1.19ZM39.78,30.79s-.36-.31-.36-.33c.03-.15.58-1.08.8-.86l-.27.66c.25.11.64-.58.8-.4.29.33-.5,1.02-.97.93ZM43.21,53.61v-.13c.08.04.08.09,0,.13ZM44.2,53.87c-1.11.08-.64,0-.86-.66-.13-.41-.19.29-.53.13-.17-.08-.23-.49-.38-.68-.19-.2-1.73-1.19-1.54-1.45,1.11-.4,2.18,1.02,2.83,1.81.2.24.64.24.49.84h0ZM42.87,30.64l.53-.73.66-.2c-.24.64-.49.84-1.19.93ZM44.73,42.46c-.23.09-.61-.53-.64-.62-.07-.23-.03-.46-.03-.7.4.33.77.78.66,1.33ZM42.87,25.73c-.23-.17.01-.24.2-.27.38-.05,1.23.12,1.26-.4h.13c0,.07,0,.2.04.23.13.08.53.15.72.16.28.03,1.02-.32.98.28h-3.33ZM48.9,34.63c-1.05.85-2.3,1.42-3.25,2.39-.17-1.08,1.37-1.37,1.99-2.04.21-.23.24-.53.4-.66.17-.17.58-.21.84-.36.42-.25.74-.72,1.29-.64.17.15-1.1,1.19-1.26,1.33h0ZM49.91,32.63s.29-.82.35-.92c.05-.11.27-.09.32-.24.04-.13-.04-.37,0-.44,0-.01.2.12.38.07.21-.05.53-.62.68-.46.09.11-1.1,2.31-1.73,1.99ZM51.53,29.18c-1.71.78,0-.42.08-.54.21-.37-.36-.61.82-.5l-.9,1.05h0ZM52.43,33.43c.07-.24.58-.35.8-.4-.08.25-.56.41-.8.4ZM52.56,25.73c.21-.44.57-.61,1.06-.53-.17.58-.52.58-1.06.53ZM54.65,29.36c-.25.16-.57.04-.81.11-.11.03-.09.23-.11.24-.15.09-.37-.12-.37-.17,0-.12,1.63-1.08,1.84-1.34l2-.32-2.56,1.49h0ZM62.38,25.73c-.69.27-3.27,1.87-3.85,1.34-.28-.25.68-.33.88-.52.17-.19.19-.52.32-.61.32-.21,1.34-.45,1.9-.86.58-.44.33-.66.48-.86.09-.12.88-.54.94-.46.28.33-1.06,1.47-.66,1.98Z"/>
      <path class="cls-1" d="M47.73,21.98c1.73.08,3.38.24,5.15.32,1.42.07,3.98.17,5.32,0,.15-.01.66-.52,1.34-.53.77,0,.56.58,1.61-.24.11-.08.24,0,.17-.31-.35-.03-.65.12-1,.13-2.95.12-5.83-.09-8.76-.15-1.46-.03-4.33-.2-5.6.25-.13.05-.38.08-.19.28.08.07,1.67.2,1.95.21v.03Z"/>
      <path class="cls-1" d="M52.31,55.12c.03.15.2.53.31.62.53.42.41-.04.53-.23.04-.05.19-.04.21-.13,0-.04.01-.73,0-.77,0-.13-.25,0-.41-.16-.16-.15-.5-1.09-.38-1.25l.4.13-.27-.93-.4.53c0-.46-.33-1-.4-1.41-.11-.69-.07-1.71-.17-2.38-.25-1.66-1.61-5.31-2.3-6.97-.13-.31-.32-.81-.73-.8.15.37-.03.69.05,1.06.25,1.29,1.46,3.4,1.54,4.73.01.24-.25.16-.28.27-.11.5.37.77.54,1.17.62,1.47.84,3.42,1.53,4.98.15.33.6.84.72,1.14.15.4-.6-.03-.52.38h.03Z"/>
      <path class="cls-1" d="M19.05,22.81c.49.13,2.14,0,2.79,0s.5.38.56.4c.48.13.4-.2.54-.25.27-.11.84.08.84-.54-1.63,0-3.28-.03-4.91.13,0,.08.16.25.2.27h-.01Z"/>
      <path class="cls-1" d="M47.64,41.74c0,.65.73,1.51,1.02,2.16.31.69.46,1.49.77,2.15.09.2-.01.33.33.27-.46-1.09-.7-2.5-1.17-3.54-.2-.46-.61-.73-.69-1.23-.25-.01-.27-.07-.27.2Z"/>
      <path class="cls-1" d="M17.52,42.19c-.11-.12-.41.08-.53.2-.4.38-.85,2.12-1.06,2.72.57-.48,1.18-1.62,1.46-2.31.05-.15.23-.5.12-.6h.01Z"/>
      <path class="cls-1" d="M14.87,48.03s-.31-.04-.41.08c-.42.52-.69,2.18-1.05,2.84.12-.01.32-.29.38-.38.19-.31,1.26-2.39,1.08-2.54Z"/>
      <path class="cls-1" d="M48.98,40.86c.17-.17-.37-1.7-.93-1.59-.16.37.54,1.96.93,1.59Z"/>
      <path class="cls-1" d="M63.51,22.02c.33,0,.46-.53.27-.53l-1.43.16-1.02.37h2.19Z"/>
      <path class="cls-1" d="M20.97,55.26c-.27.62.66-.25.72-.28.33-.25.69-.28.88-.78-.32,0-1.51.88-1.59,1.06Z"/>
    </g>
  </g>
</svg>