<?xml version="1.0" encoding="UTF-8"?>
<svg id="Capa_2" data-name="Capa 2" xmlns="http://www.w3.org/2000/svg" viewBox="0 0 408.73 33.32">
  <defs>
    <style>
      .cls-1 {
        fill: #100f0f;
      }
    </style>
  </defs>
  <g id="Brand_Manual" data-name="Brand Manual">
    <path class="cls-1" d="M208.32.66c.62.26,2.78.69,3.82,1.15l-.69-1.14c11.56.56,22.15.29,32.93.2l-4.16,1.3c-1.11.42-6.22-.3-7.07-.14-.72.14.38.92.16.97-.39.09-10.41-.69-12.1-.66-1.82.03-2.87.55-4.99.43,4.74,1.89,5.93.46,8.93.45,13.11-.03,25.67.15,39-.08,5.9-.1,13.61.14,20.1.51-.87-1.43,5.72-1.03,8.93-.97l-5.15-.92.47-1.15c3.22.98,3.54.56,4.27-.16l1.74.72c2.49-1.1,1.71.57,2.01.8.72.54,1.64,1.02,3.06,1.2l13.26-.41c5.53,2.23,3.14.72,4.99.54.98-.1,4.1.84,5.4.45,1.71-.52-4.16-.85-2.39-1.14,6.35,1.18,9.69,1.24,11.3-.4.98-1-2.4-1.7,4.33-1.18,1.76.13,1.36,1.74,3.34,1.57s-1.82-1.57-1.71-1.61c1.79.36,5.3.12,5.63.16,1.47.21,2.95.81,4.58,1.07,3.1.49,4.28-2.89,7.29,2.1l-3.37-.93-.91.74c4.03,1.01,5.9.28,8.58.24l-3.8-1.87c-.11-.09,2.21-.48,2.63-.48,2.29.03,13.34,1.41,14.33,1.17.25-.06-.96-.92-.18-1s2.82.57,3.47.56c.89-.01.71-.94,1.86-.98.93-.03,3.45.69,4.9.77,1.79.09,2.45-.63,3.82-.63,1.16,0,3.2.53,4.5.5,1.98-.04,2.84-1.48,6.98-.06l-.35-.75-3.46-1.11c1.24-.29,3.93.18,5.31.13,1.52-.06,2.16-1.33,4.42-.07l-2.19.71c5.66,2.96,2.34.09,6.17.55.58.98.63,3.12-.23,3.65-.63.38-2.7,0-3.38.26-1.05.39-2.07,2.27-2.43,2.27s-2.61-.86-3.8-.97c-.59-.06-8.65,1.01-8.18,1.28,3.45.62,4.45.3,8.14,1.91l.35-1.21,1.91.86.86-1.08c.96.46,3.62,1.5,4.12,1.86.16.12-.76.16-.59.34.09.1,1.5.49,1.59.74.23.64-.38,1.15-.4,1.74l-6.34-.71,2.76,1.74-2.17-.25.87,1.03-4.03-1.1-.66-1.49c.65,1.55-7.7,1.48-9.18-.58l-4.6-.6,4.02,1.11-2.34.66c3.33,1.4,6.33.49,7.09.64,1.89.38,4.32,1.41,6.35,1.57l7.55.29c-1.63,1.84-.09,5.88-2.05,7.45-1.35,1.08-11.19.04-8.33,2.86.53.52,2.76.8,1.74,1.37-2.73-1-4.06-1.56-5.18-2.72-4.42-.57-3.6,1.5-10-1.12.82,1.7-3.74,2.62-8.83.52l.86.88c-1.54-.51-6.35-.99-7.05-.86-6.95,1.31-10.02.7-18.48,1.04-3.48.14-8.83-.36-9.57,1.29-4.15-2.04-5.8-.85-8.66-.85-6.08,0-12.9.21-19.58.15-.31,0-2.06-.78-2.84-.49-1.68.61,6.14,1.5,7.04,1.65,2.46.39,6.77,1.19,9.13,1.43,1.99.21,4.56.14,2.76-.98l2.52.92c.95.21,1.17-.27,2.01-.23,5.63.27,10.07.41,16.93.94,3.93.3,12.73-1,17.82-.65,1.49.1,3.46.87,4.41.84,5.47-.2,8.19-2.47,16.34-1.33,2.27.54,1.55.53.53.69-2.4.39-5.72-.44-8.02-.05-1.79.3-1.39,1.29-1.83,1.38-1.05.2-4.75-.55-5.47-.47-.32.04-2.66,1.65-3.9,1.66-1.59.02-3.3-.56-4.05-.59-.27-.01.77.93-.94.67l-.37-.73-1.95-.56c-1.16.87-6.34.57-9.8.09-1.2-.16-3.56-.91-3.96-.9s-2.03,1.44-5.46,1.38c-1.81-.04-4.7-.69-6.02-.67-2.4.04-1.6,1.7-8.19-.6,1.94,2.21-3.71.55-5.27.61-3.57.12-7.44.32-11.74.28-2.96-.03-7.49-.6-9.81-.28-1.31.18-1.83.86-3.04,1.06-3.6.57-10.38.69-16.21.39l-1.77-1.47c.2,1.63-1.44.21-1.99.2-4.05-.11-4.28.66-6.58,1.37l-1.25-1.32c-.03,1.01-4.11-.26-5.75-.3-.76-.02-1.13,1.11-3.49.36-2.59-.82.45-1.71.07-2.26l-2.34.31-2.74-1.04-3.51.49,1.93.85-3.22-.07,5.61,1.21c1.63.88-1.39.6-2.34.67l-.96-.92-3.34-.89-.32.87-1.87-.84c-.09,1.38-4.15.42-6.72.6l1.88,1c-4.18-1.3-3.77-.29-5.42-.09-1.49.18-1.41.37-1.53.38-2.42.18-5-.82-5.71-.75-.41.04-.18.57-.68.6-2.07.1-11.34.26-13.24.1-1.78-.15-3.01-.96-3.55-1.01-.3-.02-.33,1.3-2.53,1.26l-.84-.88-5.19-.76.59.73c-4-.07-4.4.31-9.1-.33-.42-.06-.44.89-4.33-1l1.71,1.61c-4.44-.26-8.61-.44-11.85.07-.91.15-.33.88-1.37.88-1.84,0-3.85-.91-3.98-.89-.37.04-.25.6-.94.64-1.65.09-4.07-.23-5.4.19l-1.33-1.01c.09,1.02-3.13-.41-5.41-.37-.67.01-4.92.96-4.58,1.21l1.89.28.48.67,2.61.58c-3.12-.19-4.5.47-8.36-.79l-.4.79c-4.55-1.75-4.03.7-6.9.67-1.11-.02-3.01-.59-3.66-.5-.89.12.71,1.36-3.46-.06.26.76,3.87,1.04.25,1.04l-1.85-1.15-1.68.18,1.93.86-6.2-1.05,4.46-.57c-4-2.48-6.33.15-7.96.18-.52,0-1.83-.55-2.78-.45-1.72.18-1.21,1.35-1.45,1.33-2.7-.22-1.18-1.1-2.84-1.43l-2.26.19,1.9,1.01c-3.6-.38-11.98-1.45-14.54-1.29-1.46.09-.46,1.03-.63,1.02-2.29-.22-5.59-.71-8.07-.79-1.44-.04-1.94.94-5.65-.34l.79,1.19-3.14-.7c-.35,1.18-1.52.17-3.2.1-1.92-.08.02,1.68-6.28-.62.79-1.32-3.13-2.17-1.08-.26l-6.04-1.66c.57-.48,1.9-.32-.18-1.35-2.57.25-3.2-.29-5.53-1.53l-.34,1.22-9.07-2.5,3.18.22-1.95-1.05.94-1.18c-2.4-.79-5.55.39-4.19,1.46-4.4-.98.16-1.06-1.1-1.94-2.95-.12-2.24.59-6.52-.17-2.65-.47.3-1.1-1.69-1.76l-11.3-1.78L0,8.7l4.13.62-.58-.73,3.56-.07,2.35,1.3-1.56-2.03c4.2.65,7.99.38,11.36.54,4.32.21,10.28.66,14.25.74,1.15.02,2.07-1.1,5.48-.28l1.68,1.77c-.13-1.87,2.13-.96,4.61-1.28,4.14-.54,7.44-1.27,12.86-1.12,1.03.03,2.98.59,3.4.55.55-.05.41-.79,1.52-1,2.64-.5,9.99.06,12.77,0,2.19-.04,5.26-.89,9.21-.85,1.67.02,2.85.65,2.95.64,1.28-.15,5.28-2.16,7.73-.85,2.54-.96,10.45.11,13.33,0,1.03-.04.3-.91,1.51-.98,1.66-.09,6.46.51,9.42.38,2.15-.09,4.35-.38,5.78-.84l3.81,1.34c-.96-1.37,6.27-.58,8.83-.7,6.41-.31,14.2-.5,20.22-1,2.3-.19,6.63.54,4.36-1.53,2.66.32,2.17,1.57,3.28,1.87.89.25,10.48.08,9.49-.98l1.83,1.15c-.16-1.92,5.38-.52,6.47-.59,1.31-.09-1.4-1.65,3.25.31.98-.35,3.14-.72,4.63-.78.93-.04,2.34.5,2.88.48.62-.01.68-1,3.64-.39-1.25-.82-3.73-.91-5.06-1.04-7.97-.81-20.01-.64-28.03-.91-10.28-.35-18.92.72-29.16.68-1.3,0-11.77-.19-12.48-.27M315.74,15.27l-6.57-1.82.28,1.06-2.84-1.43c-.25,1.27-4.78.2-2.77,2.18,3.62.68,3.94-.53,8.35.98l.38-1.19,2.92,1.13.25-.91ZM166.32,6.87l-7.61-.33-2.11.27c5.33,1.6,5.18.05,9.37,1.25l.36-1.19ZM150.23,25.98c6.09,2.55,13.1,2.2,14.94.84l-4.53.36-2.25-.93-1.19.31-5.44-2.13-1.52,1.54ZM105.74,18.33c-5.26-2.35-3.43-.32-8.18-1.22l.72.8-6.14-1.35.74,1.34-3.12-.53c2.55,1.83,4.28.71,5.71.74,3.07.06,4.32-.13,6.37-.1.97.01,3.49.86,3.9.32ZM107.42,20.09c-4.07-1.25-3.64-.24-4.91-.05-.78.12-3.97-1.14-3.69-.2.61,2.04,9.34.66,8.6.25ZM81.88,22.22l-.49-2.09-7.13.33c-1.49-1.15-.01-1.61-4.19-2.45-.48.37,1.27.52,1.82,1.07,2.24,2.21-6.86-.1-4.94,2.62,6.87,2.5,4.88,1.06,6.31.71.55-.14,1.41.14,1.96,0,1.49-.37,2.34-1.53,6.66-.19ZM78.43,27.2c2.49.47,3.57.53,3.31-.44l-2.91.21-3.29-1.26-1.59,1.85,2.09.24-.32,1.22,1.42-.19c-.83-1.07,1.52.43,1.76.41,1.21-.07-.28-.92-1.84-1.16l2.02.21-.65-1.1Z"/>
  </g>
</svg>