<?xml version="1.0" encoding="UTF-8"?>
<svg id="Capa_2" data-name="Capa 2" xmlns="http://www.w3.org/2000/svg" viewBox="0 0 153.18 46.74">
  <defs>
    <style>
      .cls-1 {
        fill: #100f0f;
      }
    </style>
  </defs>
  <g id="Brand_Manual" data-name="Brand Manual">
    <g>
      <path class="cls-1" d="M120.96,33.13c-.16-.17.63-.5.77-.63,1.04-1,1.08-2.96-.23-3.75-2-1.2-4.17.05-6.24.19l.6.25c-.17.29-.86.12-.89.15-.02.01-.12.35-.1.39.05.08.49.12.49.31-.23.08-.38.13-.6,0-.16.6.53.48.9.66.02,1.08-.3,2.13-.4,3.19-.1,1.02-.1,2.08-.2,3.1-.06.6-.41,1.88-.28,2.38,0,.03.25.55.28.57.05.04.35-.24.4-.2.15.83.42.24.75-.1-.12.34.14.33.32.6,1.55-.3,3.4-.66,4.76-1.52.6-.38,1.77-1.28,1.94-1.96.48-1.89-.67-2.95-2.28-3.63h.01ZM117.86,30.28c.13-.11,1.05-.41,1.26-.44.21-.03,1.43-.05,1.52,0,.05.03.23.52.22.63-.05.56-2.62,2.09-3.3,2.05-.08-.09.17-2.14.3-2.25h0ZM119.84,37.17c-.47.24-2.04.99-2.45.47-.11-.14.07-.39.06-.56-.02-.33-.16-.62-.11-1.01.04-.27.26-.68.3-1,.37-.24,2.94-.19,3.38.03.16.08.18.25.25.29.13.08.32.1.47.13.28.4-1.59,1.48-1.91,1.64h.01Z"/>
      <path class="cls-1" d="M110.85,34.58c.01-.06-.15-.03-.19-.12-.15-.33.02-.7,0-.72-.03-.05-.31,0-.35-.02-.07-.03-.04-.33-.45-.12-.78.68-1.56,1.4-2.25,2.15-.62-.63-1.29-1.2-1.74-1.97.19-.35.68-.68.96-.97.89-.94,1.83-1.93,1.49-3.37-.19-.82-1.25-1.24-2.01-1.2-.24.01-.4.17-.61.2-1.25.16-1.99.18-2.9,1.2-1.26,1.42.05,2.48.46,3.95-.72.42-1.43,1.11-1.95,1.77-.7.9-1.02,1.44-.85,2.63.16,1.18,1.51,1.63,2.54,1.64.56,0,1.9-.3,2.35-.63.1-.07.07-.25.17-.35.23-.24.99-.32,1.28-.6.11,0,.8.83,1,1,.3.25.57.42.9.7.5.43.45,0,.51,0,.13,0,.47.21.63.09.07-.05.09-.47.11-.49.1-.08.46.14.6.05.4-.26.03-.38,0-.43-.38-.74-.51-.68-.95-1.23-.13-.17-.67-.97-.64-1.13.07-.35,1.75-1.36,1.88-2.02h.01ZM104.2,30.94c.03-.08.63-.73.72-.78.55-.3,1.97-.57,1.48.48-.08.17-1.21,1.39-1.39,1.51-.1.07-.22.15-.34.08-.12-.07-.54-1.07-.46-1.28h-.01ZM105.64,36.92c-.05.09-1.56.84-1.76.89-.62.15-1.75.21-1.62-.72.05-.35,1.41-1.68,1.76-1.84.17-.08.45-.2.62-.09.07.04.34.67.44.81.14.2.71.71.57.95h-.01Z"/>
      <path class="cls-1" d="M140.97,39.19c-.87-1.05-1.54-2.26-2.36-3.34-.13-.17-.72-.68-.74-.77-.03-.15.09-.16.16-.23.28-.27,1.09-.51,1.31-.74.05-.06,0-.2.1-.28.17-.15.57-.37.7-.53.98-1.15.72-2.95-.07-4.11-.67-.19-1.21-.64-1.89-.81-.9-.21-2.29-.11-3.19.12-.53.14-1.17.78-1.77.93.17.36.24.47-.05.8h.8c-.08.23.09.38.11.64.12,2.45-.62,5.52-.71,8.01,0,.24.04.42.1.64.14-.03.29-.5.5-.3.07.07-.21.57-.05.7l.06-.18c.25.14.37-.11.54-.12.09,0-.02.45.67.19.59-.23.48-2.27.48-2.84l.2-1.25c.1.3.42.51.6.75.34.45.57.88.88,1.31.74,1.02.97,1.55,1.98,2.28.09.07.24.34.26.34.1.04.23-.09.32-.07.13.03.18.42.63.46.62.07.36-.56.57-.58l.75.3c.05-.7-.53-.91-.9-1.35v.03ZM134.06,38.13c0-.41.04-.84.1-1.25.03-.17-.05-.17.2-.15-.01.42.05,1.1-.3,1.4ZM135.87,33.73c.18-.68.11-2.95.55-3.4.26-.27,2.29-.02,2.51.3.14.2-.06.9-.2,1.11-.25.36-2.63,2.23-2.86,1.99Z"/>
      <path class="cls-1" d="M153.06,17.37c.01-.25-.11-.46-.1-.68.06-.81.28-1.63.2-2.45l-.4.1v-.4c-.35-.05-.27.57-.56.69-.29.12-.24-.18-.34-.24-.14-.09-.62-.04-.69.07-.03.04-.19.81-.21.94-.17,1.06-.09,2.3-.22,3.38-.28.4-.82.15-1.13.17-.27.02-1.76.29-1.86.19l.09-4.79c-.34-.28-.85.14-1.12.09-.1-.02-.12-.3-.21-.31-.05,0-.9.47-.93.52-.21.36.15,1.13.18,1.52.06.71-.18,1.49-.21,2.2-.03.62.15,1.42.12,1.91-.01.2-.22.16-.29.31-.12.24-.37.86-.02.88-.72.4-.02.31,0,.4.14.53-.39,2.48-.21,2.75l.2-.1.2,1.3.45-.3v.5c.42-.08.18-.51.25-.6.02-.02.17.05.25.04.09-.01.15-.09.26-.09.39-.01.69.37.8-.5.05-.45-.06-3.04.19-3.21.05-.03,1.03-.15,1.15-.15.25,0,.44.17.63.18.25.02.53-.16.83.02l-.3-.3h.4c-.16.89.21.62.3.7.15.15-.2.52-.2.65,0,.07.2.04.21.11,0,.08-.1.25-.11.39-.02.7-.08,2.11.18,2.72.17.41.68.43.88.82.42.04.31-.36.34-.39.19-.21.19.18.21.19.18.15.18-.1.23-.15.07-.07.21-.1.24-.21.07-.21.03-1.01.02-1.28-.1-1.51-.32-3.83-.2-5.31.06-.75.47-1.59.5-2.31v.03ZM145.87,23.39c-.02.15-.08.31-.2.15.03-.3-.04-.66,0-.95.02-.15.08-.31.2-.15-.03.3.04.66,0,.95ZM146.37,24.13v-.8c.08.01.27-.02.3,0,.03.03-.15.78-.3.8Z"/>
      <path class="cls-1" d="M117.96,26.18c.18.08.38.02.55.15.08.06.52.69.61.71.36.07.75-.09.73-.5-.3-.13-.48.03-.4-.5.15.12.39.32.4.5.11.05.66.35.7.3-.05-1.12-1.15-1.83-1.74-2.71-.49-.72-.83-1.44-1.35-2.12-.09-.11-.25-.15-.35-.28-.98-1.3-.51-.9.51-1.48,1.5-.84,2.62-2.05,1.7-3.84-1.01-1.96-4.13-2.19-6-1.55-.29.1-.38.29-.61.39-.14.07-.84.25-.87.28-.2.2.4.2.2.4-.05.05-.39-.13-.3.2.69-.08.36.34.4.39.06.08.59.11.61.55.03.76-.24,1.99-.31,2.81-.06.75-.04,1.54-.1,2.3-.1,1.18-.41,2.37-.3,3.55l.3-.6.05.4.15-.2-.1.9c.19,0,.09-.31.35-.3.09,0,.02.21.11.21s.2-.11.29-.11c.03,0,.22.62.26-.09.18-.04.01.29.25.2.06-.02.26-.23.29-.31.43-1.36.18-2.83.36-4.24l.2-.05c.47.76.94,1.56,1.46,2.29.36.5,1.5,2.15,1.95,2.35ZM112.95,23.63c-.06,0-.2-.13-.2-.15v-1.65c.3-.05.16.08.2.24.14.56-.05.98,0,1.56ZM113.15,18.33c-.23.3-.22-.54-.21-.66.03-.18.18-.12.21-.21.04-.13-.09-.35.1-.33l-.1,1.2ZM114.83,17.76c.12-.55-.09-1.04.7-1.2.38-.08,2.09.22,2.29.47.03.03-.07.71-.11.8-.09.21-1.11,1.05-1.35,1.15-.51.22-1.27.28-1.8.55-.17-.18.21-1.47.27-1.78h0Z"/>
      <path class="cls-1" d="M120.84,25.51s.28-.54.42-.38c-.13.77.62,1.21,1.08.53.21-.45.53-2.69.75-2.9.05-.05.58-.14.75-.2.18-.07.36-.26.5-.3.38-.1,1.04-.12,1.46-.21.13.03.12.14.16.24.22.54.26,1.67.45,2.35.06.19.49,1.45.55,1.5.01.01.3-.11.31-.16.03-.13-.36-1.05-.4-1.4-.01-.11-.1-.45.09-.44.16.48.45,2.68.8,2.85.42.21.84-.2.7-.65l.3.1c.25-.33-.87-4.49-.9-5.2.69.19.36-.57.4-.6.03-.02.81-.07.7-.35-.14-.38-1.39-.56-1.51-.72-.24-.33-.32-1.86-.44-2.34-.15-.65-.59-1.48-.73-2.07-.04-.16,0-.6-.02-.63-.04-.04-.25.11-.34.09-.12-.03-.25-.64-.5-.09-.5-.62-.63.38-1.13.08-.17-.1-.06-.46-.7-.21-.08.03-.78.82-.81.9-.11.3.2.17.19.38,0,.16-.16.69-.22.9-.7,2.59-1.59,5.16-2.37,7.73-.09.32-.04,1.36.46,1.2ZM127.06,23.63c-.15.03-.12-.19-.15-.3-.09-.4-.12-.81-.25-1.2.31-.34.49,1.4.4,1.5ZM124.66,16.62c.29.2.37.67.45.99.05.21.03.43.07.63.06.29.41,1.32.26,1.56-.07.12-.71.1-.9.16-.18.05-.16.21-.26.25-.17.06-.52.05-.72.11l1.1-3.7Z"/>
      <path class="cls-1" d="M131.36,35.23l.4.1c-.14-.58.42-.78.3-1.4-.39.22-.23-.11-.44-.1-.19,0-.47.14-.66.2-.27-1.83-.76-3.6-1.3-5.36-.51.12-.33-.26-.41-.34-.11-.1-1.09.34-1.26.37-.28.04-.5-.3-1.05-.04-.32.14-1.01.98-.48,1.12-.79,2.13-1.27,4.39-1.93,6.57-.2.66-1.23,2.57-.51,3.07.41.29.45.05.59-.29.15.09.55.79.61.8.03,0,.62-.23.64-.25.12-.09.52-2.62.75-2.95l2.65-.69c.29,1.15.33,2.5.89,3.57.27.52.55.44.71.69.18.27-.01.66.45.64.75-.03.53-.47.46-1l.25.3c.15.04.23-.12.25-.25.09-.53-.43-1.73-.57-2.33-.18-.79-.36-1.61-.33-2.42h-.01ZM128.84,33.82c-.06.09-.74.17-.91.22-.08.03-.07.16-.16.18-.19.06-.51.06-.72.11l1-3.4c.19-.04.25.09.32.23.18.34.62,2.42.46,2.66h.01ZM130.26,36.13l.2,1.4c-.15,0-.19-.3-.23-.42-.04-.15-.36-1.08.03-.98ZM130.56,39.54c-.14,0-.23-.39-.25-.49-.06-.3.01-.6-.14-.86-.01-.08.19-.06.2-.05.05.05.26,1.22.2,1.4h-.01Z"/>
      <path class="cls-1" d="M102.75,22.69c-.18-1.71-2.13-2.8-3.42-3.66-.31-.21-.49-.29-.77-.46-.13-.08-.87-.55-.91-.59-.37-.41.14-.48.3-.7.15-.2.18-.42.4-.6.59-.49,1.51-.5,2.2-.25l-.5.25c.47.04.22.15.3.37.05.13.29-.02.1.37.19.04.3-.16.47-.18.26-.03.38.25.48-.12.19-.04.13.34.55.2.02-.23-.16-.5-.11-.73.02-.08.25-.14.35-.27.41-.51.26-1.24-.19-1.66-1.06-.99-2.99-1.34-4.21-.44-.23.17-.42.47-.65.65-.71.58-2.31,1.73-2.1,2.8,0,.05.36.79.42.89.35.65,1.88,2.17,2.49,2.61.69.49,1.76.83,2.47,1.32.23.16.13.36,0,.57-.2.36-1.95,1.36-2.36,1.44-.91.16-1.8-.47-2.67-.58-.18.13.38.09.15.3-.07.06-.54-.16-.7-.1-.02.01.07.38.1.43.08.16.39-.06.3.27-.48-.27-.83.06-.45.5.1.12.29.39.31.41.26.19,1.76.73,2.12.76.91.09,2.53-.43,3.31-.93.69-.43,2.3-2.03,2.21-2.88h.01Z"/>
      <path class="cls-1" d="M147.2,34.05c-.98-.65-2.15-1.12-3.08-1.82-.17-.13-.56-.04-.28-.39.54-.21,1.69-.49,2.1-.83.31-.26.33-.64.98-.67.13.15-.03.54.06.68.08.13.85.26.74-.18l-.15-.2c.27-.82.61.32.5.7.25-.12.25-.37.35,0,.47-.82.66-1.34,0-2.14-.35-.42-.61-.58-1.2-.65-1.08-.14-3.05.48-3.97,1.11-.7.48-1.79,1.62-1.76,2.52.02.5.34,1,.6,1.41l4.7,2.61c.03.36-1.47,1.27-1.81,1.39-.89.32-2.08.1-3,.05.16.53-.28.36-.3.45-.07.37.17.51.5.55.17.18-.7.46-.1.5l-.2.3c.28-.09.53.23.74.21.05,0,.05-.18.12-.2.68-.2,0,.56.4.68.52.16,1.25.05,1.76-.11,1.39-.43,3.71-2.02,3.95-3.55.02-.16.05-.31.02-.47-.09-.5-1.23-1.65-1.67-1.94h0Z"/>
      <path class="cls-1" d="M147.72,30.83h0l.15.2-.15-.2Z"/>
      <path class="cls-1" d="M110.55,22.53s.02-.35-.2-.46c-.5-.26-.99.65-1.27.86-.4.3-1.62.93-2.11.98-.23.02-1.01-.17-1.13-.35-.15-.22-.35-1.29-.38-1.6-.15-1.84.53-3.76,1.78-5.09.38.23,1.6.15,1.68.62.03.15-.16.36-.03.54.26.37,1.3.36,1.43-.18.19-.75.05-2.2-.43-2.82-.18-.24-1.13-.72-1.42-.78-.3-.06-1.77.16-2,.3-.06.04-.9,1-1.01,1.14-.38.49-.78,1.17-1.1,1.7-.1.16-.29.71-.32.73-.02.01-.26-.14-.3-.1-.14.31,0,.64-.04.91-.05.42-.31.9-.36,1.45-.1,1.23.37,4.38,1.54,5.05.18.11.44.08.46.1.03.03-.35.35.37.48.77.14,2.08-.01,2.83-.18l-.1-.2.6-.3s.02-.08,0-.1.01-.07,0-.1c-.02-.03-.16-.05-.17-.14-.03-.26.56-.38.82-.56.22-.15,1.35-1.29,1.35-1.45,0-.03-.18-.53-.2-.55s-.26.14-.3.1h0ZM103.95,18.83h-.1v-.6c.31.1.11.36.1.6Z"/>
      <path class="cls-1" d="M137.42,25.03c.28.4,1.29,1.12,1.8,1.11.62-.01,2.23-.25,2.77-.52.05-.03.38-.29.28-.39-.03-.03-.61.32-.87.38-.1.02-.44.11-.42-.07.29.06.4-.29.52-.33.27-.1.54-.07.88-.21.23-.1,1.32-.82,1.39-1.01.11-.26-.52-.06-.57-.02-.06.04-.45.74-.63.57-.19-.19.44-.41.5-.47.18-.17,1.03-1.13.9-1.33l-.5-.1.2-.35c-.34.15-.3-.15-.35-.16-.32-.02-1.88,1.12-2.29,1.31-.64.3-1.35.34-2.04.28-.14-.63-.78-1.52-.8-2.15,0-.2.08-.94.12-1.17.03-.17.32-1.24.38-1.28.02-.01.26.14.3.1,0-.13.02-.26.08-.37.13-.27,1.45-1.97,1.65-2.1,1.03-.66.91.17,1.27.62.63.8.72-.05.96-.15.32-.13.16.17.34.19,0-.26.13-.51.17-.77.01-.1-.1-.3-.07-.33.01-.02.37.17.4-.05,0-.03-.1-.39-.13-.42-.08-.1-.83-.46-.97-.58-.19-.16-.1-.44-.48-.62-.75-.35-1.82-.24-2.47.27-.49.39-.69.57-1.24.96-2.6,1.81-2.73,6.71-1.06,9.14l-.02.02Z"/>
      <path class="cls-1" d="M133.65,19.98c.03-.45.17-.95.2-1.4.05-.59-.1-1.22.09-1.79,1.1-.09,2.17-.3,3.21-.66.03-.17-.24-.11-.35-.1-.7.04-1.44.19-2.15.2-.02-.25-.02-.17.15-.2.36-.05,2.14-.12,2.24-.22.04-.05,0-.2.01-.28l.2-.05c.03-.18-.55-.4-.4-.55.03-.03.62-.07.55-.5-.1.09-.27.11-.4.11-2.06-.12-4.74.17-6.8.39-.6.06-1.48.49-1.95.85l.5.15c-.06.23-.42-.06-.3.35.03.09.25-.02.2.15h-.5c-.04.17.14.06.17.12.07.11.02.26.03.38.16.04.06-.17.15-.2.38-.12.21.26.25.3.13.12.65-.33.7.15,0,.03-.37.06-.2.25.3.32,2.48-.32,2.6-.2l-.61,8.05c.02.1.44-.05.31.36.66-.29.37,0,.65.4l.15-.4c.08.16.16.96.2,1,.02.02.22-.01.3,0l.05-.3.15.5c.14-.08.35-.53.38-.67.35-1.73.11-4.34.22-6.18h0Z"/>
      <path class="cls-1" d="M28.79,39.88c-.31.29-.58.62-.89.91.61-.04.93-.61,1.35-.95.36-.3,1.14-.59,1.15-1.1-.05.02-.18,0-.29.05-.32.16-1.05.84-1.31,1.09h-.01Z"/>
      <path class="cls-1" d="M39.3,38.13c-.09-.27-.31-.3-.5-.4.12.23.09.45.5.4Z"/>
      <path class="cls-1" d="M59.91,17.32l.6-.05c-.11-.17-.27-.14-.44-.16-1.28-.09-2.39.23-3.62.27-3.43.09-6.96-.21-10.38-.06-.34.02-.31.28-.57.33-.18.04-.71.06-.93.07-.83.03-1.76.02-2.56-.15-.17-.15-.54-2.4-.67-2.83-.8-2.7-1.62-5.51-2.5-8.2-.12-.38-.43-.73-.43-.78.02-.59-.05-.22-.1-.41-.19-.76-.29-1.78-.41-2.58-.08-.52-.19-1.03-.79-1.06.31.68.03,1.25.11,1.94.05.42.33.74.19,1.16-.39-.14-.25-.51-.34-.8-.15-.46-.46-1.38-.55-1.85-.13-.7.26-.88.2-1.3-.03-.2-.13-.28-.17-.42-.04-.13.18-.41-.18-.43-.3.39-.69.74-.93,1.17-.31.55-.34,1.24-.6,1.8-.22.49-.64.83-.82,1.2-.64,1.26-.49,2.92-1.24,4.05-.12.18-.26.55-.46.64.19-.59.63-1.4.7-2,.02-.21-.08-.19-.15-.05-.09.17-.71,1.74-.73,1.88-.08.54.01.79-.25,1.44-.83,2.11-1.76,4.23-2.53,6.38-.09.35.34.91-.24.8l.2.35-2.26.14c-.43-.22-2.18.09-2.34-.24l.2-.25h-.4l.1-.4h-1.1c.22.33.81.11.55.7-.46-.02-1.12-.45-1.51-.5-.27-.03-.48.11-.69.1-.17-.01-.3-.17-.42-.18-.16-.02-.54.45-.73-.02l.4-.1c-.16,0-.36.04-.51-.05-.1-.06.21-.3-.54-.35-1.36-.09-2.91.09-4.3,0-1.43-.09-2.9-.52-4.4-.51-.23,0-.43.05-.65.11.28.51,1.09.07,1.34.09.07,0,.08.21.23.28.7.36,2-.13,2.63.17.05.02.13.13.1.15-.5-.22-.67.27-.76.29-.25.06-1.51-.18-2-.09-.25.05-.21.28-.32.3-.19.05-.98-.06-1.03,0,0,1.06.95,1.17,1.63,1.62,1.4.9,2.22,1.94,3.43,2.87,1.43,1.09,2.8,2.51,4.21,3.71.34.29,1.43,1.16,1.76,1.31.14.06.43.17.54.08.02-.02.21-.49.2-.52-.04-.25-.56-.39-.69-.52-.17-.17-.42-.75-.75-1.05-.19-.17-.55-.48-.6-.1l-.45-.6c.14,0,.31-.03.45,0,.07.02,1.2.63,1.3.7.47.32,1.1,1.25,1.69,1.66.7.49.46.14.56-.06.07-.13,1.3.97,1.4,1.05l-.95-.35.05.4c-.54.15-.67-.5-.96-.69-.39-.25-.79-.02-.6.29.12.19,1.65,1.2,1.96,1.4-.17.31-1.55,2.56-1.4,2.7.12-.01.29.04.38-.02.24-.14.99-2.67,1.57-2.68.31,0-.63,1.49-.69,1.61-.42.94-.42.97-.96,1.84-1.04,1.7-1.63,3.91-2.56,5.74-.24.48-.68.88-.74,1.41l-.05-.6c-.62.51-.69,1.29-.95,2,.16-.03.33-.6.4-.15-.52.89-.55,2.15-1.1,3-.28.44-.82.67-.9,1.21-.03.2.14.21.2.15.02-.02,0-.46.2-.35-.04.38-.41.64-.5,1-.03.13.02.2.14.14.28-.12,1.41-1.96,1.35-2.4.5-.03-.1.85.15,1.1.27-.18,1.04-1.27,1.25-1.35.04-.01.61-.01.5.19-.11.22-.45.12-.5.15-.01,0,.09.17.06.3-.22.81-1.45.69-1.63,1.02-.06.11-.02.36-.1.55-.12.29-.58.51-.68.93-.05.22.07.46-.04.7.26.24,1.82-1.18,2.11-1.34.11-.06.83-.38.97-.43.16-.06.41.02.53-.07.1-.07.06-.3.11-.34.07-.06.3.03.37-.02.02-.02.04-.33.17-.49.1-.12,1.4-1.18,1.5-1.2.27-.06.08.35.2.3l1.75-1.55.1-.25-.25-.1c1.99-1.26,3.7-2.93,5.58-4.32.16-.12.86-.54.57-.05l-1.88,1.5c-.05.11.08.27.08.38.2-.09.15-.1.29-.19.06-.04.2,0,.21,0,.05-.04-.14-.32-.09-.39.03-.04.66-.38.82-.51.83-.7,1.66-1.44,2.47-2.16.61-.54,1.11-.74,1.85-1.05.4,0-.08.3,0,.4.94.35,1.72,1.06,2.25,1.9-.26.21-1.82-1.53-2.3-1.66-.27-.07-.71.36-.6.46.45-.19.62-.05.99.16.96.55,1.4,1.49,2.51,2.04-.05-.11-.05-.27-.2-.35.3-.1.15-.1.15-.35.24.21.72.36.83.67.04.12-.02.31.05.4.01.02.34.04.17.22-.05.05-.39-.13-.3.2,1.14.73,2.08,1.75,3.05,2.7.75-.33-.65-.58-.3-1.1.43.22,1.45,1.42,1.75,1.55.14.06.28-.09.45.04.21.16-.07.42.19.62.14.11.68.23.93.37.2.11.99.72,1.1.85.2.22.42.75.83.93.16.07.32-.05.4,0,.05.03.77.75.8.8.2.31.33,1.14.93.95.1-.03,0-.32.59-.08.12.05.06.37.33.1.44-.44-.49-1.24.29-1.31l.66.35c-.03-.48-.32-.59-.54-.86-.09-.1-.08-.3-.2-.4-.26-.22-.9-.02-.76-.69.21-.05.26.18.4.24.19.08.46-.02.65.36.1-.06.06-.33.03-.43-.18-.53-.82-1.04-1.04-1.46-1.04-1.97-1.54-4.63-2.49-6.71-.53-1.18-.84-2.48-1.28-3.72-.2-.57-.58-1.24-.74-1.86-.16-.58-.16-1.17-.32-1.76l.29-.16c0,.49.21,1.01.37,1.48.06.16-.05.27.23.22,0-.98-.32-1.02.45-1.7,1.96-1.73,4.31-2.64,6.52-3.88.12-.07.6-.2.62-.23.36-.38-.91.01-1,.05-.62.27-.79.78-1.57.93-.23.04-.38.1-.33-.18,1.02-.53,2.05-1.12,3.01-1.74,1.45-.94,2.34-1.5,3.88-2.32.56-.3,1.04-.75,1.61-1.04.02-.18-.23-.1-.32-.07-.22.07-.51.38-.78.23l1.77-1.38c-.05-.18.25-.54.23-.57-.02-.04-.39-.04-.3-.3h.02ZM17.39,21.92c-.13.12-.91-.46-.9-.7.24-.1,1.05.56.9.7ZM17.29,16.72c.3-.04,2.37.07,2.5.2.1.1.02.21-.15.2-.32-.02-.67-.17-1-.2-.39-.03-.83.05-1.2,0-.15-.02-.31-.08-.15-.2ZM19.74,24.32c-.48-.14-1.06-1.02-1.56-1.24-.02-.51-.17-.58-.49-.95.92-.19,1.06.81,1.5,1.35.11.14.26.18.36.29.09.09.33.29.34.31.04.11.04.3-.15.25h0ZM24.19,19.12c.01.07.14.18.1.3h-.75l-.85-.6c.31,0,.62-.03.93.02.25.04.45.25.57.28v-.2c.19-.11,2.45,0,2,.4-.63-.16-1.38-.06-2-.2ZM22.49,39.23c.07.53-.36.45-.6.8-.22-.4.18-.8.6-.8ZM22.98,42.68c-.45.4-.23.22-.55.65-.17.23-.43.52-.65.7-.12-.53.23-.68.44-1.01.25-.39.26-.37.51-.69.11-.13.57-.97.75-.81.23.6-.1.78-.5,1.15h0ZM24.59,42.73s-.21.04-.2-.05c.16-.27.31-.07.2.05ZM23.99,35.33c-.06-.06.58-1.15.68-1.27.09-.12.12-.27.32-.23.08.09-.67,1.81-1,1.5ZM25.09,40.13c.39-.33.71-.73,1.06-1.09.1-.11.15-.25.34-.21-.17.87-.4,1.39-1.4,1.3ZM28.05,38.44c-.29.28-1.32.98-1.35,1.3h.2c.05.29-.23.33-.2,0h-.2c0-.08-.01-.16.02-.23.03-.07.8-1.13.88-1.22.26-.28.72-.43,1.1-.45.11.1-.36.52-.45.6ZM28.2,28.42c-.16-.15.49-.61.7-.5.15.14-.57.62-.7.5ZM29.45,33.13v-.1c.06.03.06.07,0,.1ZM31.79,31.57c-.24.11-2.08,1.57-2.19,1.46-.04-.19.11-.24.2-.35.19-.22,1.48-1.23,1.74-1.36.16-.08.28-.12.46-.09l-.21.34ZM31.9,14.42c-.22.25-.37.67-.4.7-.33.32-.09-.76-.1-.8l-.3.15.26-.84.64-.6c.28.54-.09.88-.1,1.4.11-.13.21-.33.4-.3.1.12-.42,1.1-.4.3h0ZM32.1,17.12s.37-.69.6-.6c.04.33-.27.64-.6.6ZM33.3,10.51c.03.49.17.55-.4.9,0-.2.08-.69.19-.84.08-.11.15-.04.21-.06-.02-.24.09-.38.3-.5-.09.4,0,.39-.3.5ZM33.8,9.91c-.03.07-.17-.06-.1-.2.03-.07.17.06.1.2ZM50.16,42.54c.25.2.39.47.35.8-.19-.13-.69-.58-.35-.8ZM49.61,45.73c.11.11-.09.31-.2.2s.09-.31.2-.2ZM47.72,42.91c.11.06.26.01.38.02v.1c-.37-.09-.05.48-.35.4-.28-.08-1.04-.52-1.04-.85.54-.68.8.21,1.01.33ZM45.5,39.13l.5.5c-.24-.16-.6-.11-.5-.5ZM52.81,18.02l-.2.4.65-.1c.24.34-1.19.65-1.25.6.13-.36.32-.94.8-.9ZM52.81,18.92c.02.48-.26.49-.5.7.1-.1.46.19.15.3-.21.08-.18-.26-.15-.3-.23.21-.42.49-.8.5-.05-.81.71-.96,1.3-1.2ZM49.71,20.22s.05.24-.07.3c-.04.03-.8.33-.83.3v-.5c.19.1.87-.13.9-.1ZM48.81,18.82l-.1.8c-.39.01.02-.45-.6-.3-.18-.13.59-.5.7-.5ZM48.26,20.62l.25.15c0,.07-.22.12-.27.18-.09.11-.1.33-.14.36-.12.08-.6-.02-.79.01l.95-.7ZM47.2,21.52l.9-.1c.1.11-.63,1.35-.9,1.1-.11-.33.39-.61.4-.65.1-.31-.51.04-.4-.35ZM46,23.72l-.56.59c-1.04.37.1-.57.56-.59ZM41.55,22.13c.1.09-.15.25-.15.15l.15-.15ZM40.3,15.57c0-.09.18-.07.2-.05.14.13.38,1.5.4,1.8-.31.06-.15-.1-.21-.24-.17-.43-.41-1.05-.39-1.51ZM39.1,11.42s.06.3.15.3c.03,0,.36-.4.45-.05.09.33-.29.3-.31.41-.07.51.56,1.19.51,1.73-.23.07-.3-.23-.37-.38-.11-.27-.65-1.8-.63-1.97,0-.09.18-.07.2-.05h0ZM38.9,17.42c.01.35-.2.75-.6.7l.6-.7ZM38.6,16.52c-.11.01-.22-.34-.24-.41-.04-.17-.09-.31-.06-.49.34.16.31.59.3.9ZM38.3,15.32c.11.11-.09.31-.2.2s.09-.31.2-.2ZM37.2,18.92c-.11.14-.95,1.06-1.1.9-.21-.22.85-.96,1.1-.9ZM36.1,21.72l-.21.34-1.09.86c-.26-.31.88-1.32,1.3-1.2ZM36.3,14.62s.48,0,.6-.2c.17.33-.1.94-.51.66-.11-.08-.13-.42-.09-.46ZM36.87,4.19c.07.14.13.65.02.72-.58.38-.41-1.49-.02-.72ZM35.99,11.76c.54-.1.55.72.5.76-.19.19-.33-.2-.35-.2-.34-.08-.3.29-.4.3-.13,0-.41-.74.25-.86ZM35.5,9.61c-.01.29.13.81-.3.8.01-.29-.13-.81.3-.8ZM35.05,7.81c.08-.13-.02-.25.25-.2.14.22-.41,1.2-.6,1,.05-.26.22-.57.35-.8ZM35.7,22.72c.13.11-.86,1.15-1,1-.18-.19.81-1.17,1-1ZM34.4,34.03c-.15-.16.43-.52.6-.45-.05.14-.42.63-.6.45ZM36.45,25.23c-.28.57-.95.62-1.26.84-.08.06-.85.82-.89.87-.02.03.23.49-.21.59-.04-.52.17-.79.35-1.2.11-.24,0-.77.4-.2.44-.66,1.17-1.15,1.69-1.71.73-.78,1.39-1.61,2.11-2.39.15-.16,1.13-1.49,1.35-1.3-1.04,1.61-2.5,2.91-3.55,4.5h.01ZM39.7,28.02c-.07-.07.42-1.26.7-1-.03.42-.18.98-.7,1ZM39.85,24.12c-.09-.01-.06-.23-.05-.3-.51.29-.69.95-1.3,1.05.33-.27,1.17-1.63,1.45-1.75.36-.15-.13.58-.15.7l.7-.6c.09.51-.36.63-.65.9ZM40.57,23.13s-.27-.23-.27-.25c.02-.11.44-.81.6-.65l-.2.5c.19.08.48-.44.6-.3.22.25-.38.77-.73.7ZM43.15,40.33v-.1c.06.03.06.07,0,.1ZM43.9,40.53c-.84.06-.48,0-.65-.5-.1-.31-.14.22-.4.1-.13-.06-.17-.37-.29-.51-.14-.15-1.3-.9-1.16-1.09.84-.3,1.64.77,2.13,1.36.15.18.48.18.37.63h0ZM42.9,23.02l.4-.55.5-.15c-.18.48-.37.63-.9.7ZM44.3,31.92c-.17.07-.46-.4-.48-.47-.05-.17-.02-.35-.02-.53.3.25.58.59.5,1ZM42.9,19.32c-.17-.13.01-.18.15-.2.29-.04.93.09.95-.3h.1c0,.05,0,.15.03.17.1.06.4.11.54.12.21.02.77-.24.74.21h-2.51ZM47.44,26.02c-.79.64-1.73,1.07-2.45,1.8-.13-.81,1.03-1.03,1.5-1.54.16-.17.18-.4.3-.5.13-.13.44-.16.63-.27.32-.19.56-.54.97-.48.13.11-.83.9-.95,1h0ZM48.21,24.52s.22-.62.26-.69c.04-.08.2-.07.24-.18.03-.1-.03-.28,0-.33,0-.01.15.09.29.05.16-.04.4-.47.51-.35.07.08-.83,1.74-1.3,1.5ZM49.43,21.92c-1.29.59,0-.32.06-.41.16-.28-.27-.46.62-.38l-.68.79h0ZM50.11,25.12c.05-.18.44-.26.6-.3-.06.19-.42.31-.6.3ZM50.21,19.32c.16-.33.43-.46.8-.4-.13.44-.39.44-.8.4ZM51.78,22.05c-.19.12-.43.03-.61.08-.08.02-.07.17-.08.18-.11.07-.28-.09-.28-.13,0-.09,1.23-.81,1.39-1.01l1.51-.24-1.93,1.12h0ZM57.61,19.32c-.52.2-2.46,1.41-2.9,1.01-.21-.19.51-.25.66-.39.13-.14.14-.39.24-.46.24-.16,1.01-.34,1.43-.65.44-.33.25-.5.36-.65.07-.09.66-.41.71-.35.21.25-.8,1.11-.5,1.49Z"/>
      <path class="cls-1" d="M50.02,41.47c.02.11.15.4.23.47.4.32.31-.03.4-.17.03-.04.14-.03.16-.1,0-.03.01-.55,0-.58,0-.1-.19,0-.31-.12-.12-.11-.38-.82-.29-.94l.3.1-.2-.7-.3.4c0-.35-.25-.75-.3-1.06-.08-.52-.05-1.29-.13-1.79-.19-1.25-1.21-4-1.73-5.25-.1-.23-.24-.61-.55-.6.11.28-.02.52.04.8.19.97,1.1,2.56,1.16,3.56.01.18-.19.12-.21.2-.08.38.28.58.41.88.47,1.11.63,2.58,1.15,3.75.11.25.45.63.54.86.11.3-.45-.02-.39.29h.02Z"/>
      <path class="cls-1" d="M46.49,31.38c0,.49.55,1.14.77,1.63.23.52.35,1.12.58,1.62.07.15-.01.25.25.2-.35-.82-.53-1.88-.88-2.67-.15-.35-.46-.55-.52-.93-.19-.01-.2-.05-.2.15Z"/>
      <path class="cls-1" d="M23.79,31.72c-.08-.09-.31.06-.4.15-.3.29-.64,1.6-.8,2.05.43-.36.89-1.22,1.1-1.74.04-.11.17-.38.09-.45h.01Z"/>
      <path class="cls-1" d="M21.79,36.13s-.23-.03-.31.06c-.32.39-.52,1.64-.79,2.14.09-.01.24-.22.29-.29.14-.23.95-1.8.81-1.91Z"/>
      <path class="cls-1" d="M47.5,30.72c.13-.13-.28-1.28-.7-1.2-.12.28.41,1.48.7,1.2Z"/>
      <path class="cls-1" d="M26.39,41.58c-.2.47.5-.19.54-.21.25-.19.52-.21.66-.59-.24,0-1.14.66-1.2.8Z"/>
      <path class="cls-1" d="M22.09,30.02c-1.71-.2-3.44-.05-5.15-.1-3.59-.1-7.21-.31-10.8-.41-.46-.01-1.06-.04-1.51,0-.18.01-.39-.02-.44.2l2.6.2c.1.42-.53.02-.6.3h1.7l-.1-.2c.71.02,1.42.04,2.13.06.94.03,1.88.12,2.82.15.45.01.67-.15,1.15.05.16.07.25-.01.2.24-1.48,0-2.97.17-4.45.17-1.96.01-4.01-.14-5.9-.26-.98-.07-1.95-.32-2.95-.21l.6.2c-.59,0-1.15-.05-1.35.6-.03.11-.1.15.05.25.4.25,1.7.11,2.24.16.1.01.47.04.46.19-.52.19-1.15,0-1.63.3-.15.1-.7.7-.57.9.14.2,1.44.13,1.72,0,.12-.05,0-.24.22-.2.09.02.02.14.12.2.2.11.83.06,1.06,0,.13-.03,0-.24.17-.2l.1,1c-.85.02-1.7.07-2.55.1-.14,0-.31.11-.39.11s.03-.45-.44,0c-.14.32.58.46.78.49l-.2.1c-.03.51.73.14.9.5-.27,0-.6-.02-.86.08-.18.07-.16.21-.24.26-.32.21-.62.05-.6.76.3.15.47-.1.75-.11,2.14-.08,4.34.25,6.5.31.16,0,.37.13.49.09.17-.05.1-.32.23-.4.17-.11.92-.19,1.03.1h-.5v.3c.51.02,1.04-.03,1.55,0,2.18.11,4.33.28,6.49.3.48,0,1.18.29,1.45-.09l-2.25-.1-3.85-.25c.13-.19.24-.14.42-.13,1.87.09,3.74.21,5.61.26l.17-.18-4.8-.2c.05-.18.49-.19.65-.2.94-.07,2.34-.03,3.31,0,.35.01,2.44.28,2.54.19.24-.46.25-.93.38-1.37.12-.4.6-1.04.73-1.47.09-.29-.44-.09-.5-.15-.03-.03.02-.48,0-.6.17-.03.71.06.79-.01.01-.01.13-.37.11-.38-.21-.21-.16.25-.3.2.11-.46-.2-.18-.3-.4l.6-.2c-.59-.12-1.19-.23-1.8-.2l.3-.2c-.48-.01-.97.01-1.45,0-.9-.02-1.78-.14-2.7-.2-.46-.03-.94.02-1.4,0-.12,0-.37.08-.35-.1.41-.03.84.04,1.24-.01.14-.02.39-.06.36-.19l-.4-.1c.46.08.94-.07,1.36-.09.8-.03,2.85-.11,3.6-.01.21.03.42.22.44.21.02-.02,0-.23.16-.28.1-.03.99.04,1.04-.02.02-.02-.01-.22,0-.3h0ZM2.88,34.93c.13-.23.67-.04.9-.1-.14.23-.67.04-.9.1ZM3.93,34.73v-.1c.06.03.06.07,0,.1ZM7.89,32.32l.6-.2-.3-.3c.99.13,1.91,0,2.9,0l-.1.2.3.1c-1.13.03-2.25.34-3.4.2ZM12.79,30.82c.41.14,1.06-.32,1.3.1-.32,0-.64.01-.95,0-.12,0-.37.08-.35-.1ZM14.79,34.33c.05-.3,1.04-.36,1.1-.3v.3h-1.1ZM17.69,31.72v.3c-.46.23-.75-.18-.94-.19-.36-.02-1.09.18-1.5.2l-2.35-.15c1.57-.32,3.21-.05,4.8-.15h-.01Z"/>
      <path class="cls-1" d="M3.03,17.82c-.5.13-1.49-.09-2.05,0l.04.41c.65.18,1.43,0,2.11.09.1.01.42.48.64.11l-.4-.1c1.36-.18,2.57.36,3.9.3,0,.15-.36.18-.46.19-.86.1-1.67.01-2.47.05-1.05.05-2.11.19-3.17.16-.2.28.68.28.8.35.15.09.32.75.45.75h3.55v.3h-1.85c-.11,0-1.93.33-2.03.37-.09.04-.1.15-.16.2-.07.06-.24,0-.27.09-.17.57.51.61.95.65.53.04,1.27-.12,1.69-.07,1.42.14,2.89.02,4.21.17.23.03.67.08.65.4-.76.05-1.51-.16-2.25-.2-.88-.05-1.73-.02-2.59,0-.48.01-.97-.02-1.45,0l.4.8c-.06.08-1.56.14-1.3.5l13.51.6c.04-.17-.05-.2-.15-.3-1.25-1.22-3.08-.84-4.65-1.2.07-.08.33-.4.36-.41.39-.04.32.38.34.41.03.04.75-.19.95-.18.27.01.63.23.92.26.1.01.31.08.23-.13-.11-.26-1.05-.7-1.35-.95-.57-.49-.99-1.09-1.66-1.54-.35-.23-1.17-.49-1.35-.65-.18-.15-.12-.41-.14-.41h-1.4c-.01-.23-.03-.18.15-.2.37-.05,1.49.15,1.55.1.22-.19-.42-.28-.51-.37-.12-.12-.17-.52-.25-.54l-2.18.08c-.36-.25-.61-.13-1.01-.07l-1.25-.2c.46-.33.19-.11.32-.03.15.09.68-.08.93-.08.84-.02,1.72-.02,2.5-.04.32,0,.73.09,1.05.15.07-.3-.18-.14-.34-.3-.06-.06-.05-.33-.25-.19-.01,0,.02.17-.07.19-.22.06-.59-.04-.83,0l.3-.3c-.59.13-1.24-.12-1.85-.1-.85.03-1.78.35-2.65.3l.7.2-2.6.1c-.16.12,0,.18.15.2.59.08,1.17-.12,1.75-.1,0,.06-.12.19-.15.2v-.02ZM8.79,20.02c.03.1-.42.2-.45.2h-1.45c-.04-.26.04-.18.22-.23.56-.16,1.1.12,1.68.03Z"/>
      <path class="cls-1" d="M60.86,24.02c-.4-.11-1.28.08-1.75,0v.3c.25-.09,1.83.06,1.9,0,.06-.05-.07-.28-.15-.3Z"/>
      <path class="cls-1" d="M68.21,22.72c-.97.05-.53,0-.65-.29-.24-.61-.59-.41-.98-.53-.75-.22.46-.57.78-.48.04-.04-.06-.27-.07-.28-.26-.2-2.52-.2-2.98-.22.07-.14.49-.16.66-.19.14-.03.29-.01.44-.01.02-.25.02-.17-.15-.2-.71-.1-.99-.12-1.67.11-.07.02-.07.17-.15.19-.45.1-1.16.07-1.63.1l.3-.3c-.48.14-.47-.3-.9-.2l.15.3c-.19.03-.3-.5-.55-.3-.3.24.37.05.2.25-.54.04-.15.29-.2.35-.04.05-1.09.28-1.24.39-.1.08-.01.23-.13.31-.29.19-.99.18-1.32.46l-.14-.06c.2.02.22-.37-.01-.3-.33.1-.65.54-1.05.5l.6.15c0,.09-.39.11-.5.2s-.08.23-.1.25c.59-.01-.05.31-.4.4-.24.21-.67.37-.7.4-.1.1-.02.21.15.2.43-.03.89-.18,1.35-.1l-.3-.2c.98-.09,1.97-.06,2.95-.1,1.76-.07,3.6-.14,5.4-.2.85-.03,1.42.14,2.21-.2.08-.03.03.19.1.21.33.06.63-.53.55-.6h-.02ZM57.21,22.92l.7-.4c-.12.23-.46.36-.7.4ZM59.7,22.33s.04.24.1.3c-1.16.36-.33-.48-.1-.3ZM64.31,23.12l1.25-.2c.43.07,1.16-.2,1.45.2h-2.7Z"/>
      <path class="cls-1" d="M57.55,30.7h-2.68s-.26.23-.24.33h2.52c.1,0,.55-.26.41-.33Z"/>
      <path class="cls-1" d="M91.05,29.78c.33-.33.63-.8.99-1.12s1.07-.39.72-.93c-.18-.28-.73-.36-.89-.49-.03.52-.91-.37-.16-.16-2.65-2.84-5.28-5.69-8.05-8.45-1.85-1.85-3.63-3.89-5.53-5.69-.52-.49-3.4-2.99-3.84-3.15-1.33-.52-4.81-.18-6.42-.24-.39,0-.75-.16-1.12-.18-1.69-.07-3.37-.13-5.04-.16-.28.21.68.91,0,.81-.65-.1-1.84-1.38-2.28-.49-.44.86,1.84,2.19,2.45,2.76,2.78,2.6,5.35,5.93,8.21,8.53.6.54,1.4.73,2.03,1.54,1.25,1.59,2.13,2.6,3.64,4,.37.34,2.13,1.58,2.13,1.95s-.76.36-.5,1.06c-.28.08-.08-.33-.24-.33-.2,0-.49.2-.65.33-.89.81-1.9,2.15-2.84,3.01-3.06,2.81-6.28,5.54-9.27,8.45-.81.8-1.85,1.64-2.73,2.39-.39,2.31,1.11,1.89,2.49.94.02.33-.23.59.18.8,3.22-1.11,6.68-1.14,10.06-1.45.33.34-.23.44-.5.47-2.03.24-4.23.24-6.31.52-.49.07-1.19.08-1.56.39-.1.41.5.26.73.24,2.13-.16,4.78-.57,6.97-.83,1.67-.21,1.87-1.17,2.78-1.45.73-.21-.49,1.12.16.98,2.29-2.11,4.73-4.06,7.17-6.02.36-.91,1.2-1.53,1.71-2.28-.15.02-.33,0-.49,0,0-.55.57-.75.98-.98.07-.13-.11-.44.49-.41-.18.54-.34.33-.49.41-.15.26-.34.75-.49.98.18-.03.24-.07.41-.15.08-.05,1.48-1.32,1.54-1.4.2-.24.15-.54.16-.55h-.33v-.49h.33v.49s.36,0,.57-.16c1.38-1.09,2.67-2.63,4.06-3.76v-.49c-.33.31-.63.67-.98.98-.16.15-1.27,1.09-1.38.98.03-.62.8-.86,1.14-1.2l-.02-.02ZM64.78,12.78v-.16c.1.05.1.11,0,.16ZM67.63,15.22c-.37-.39-.85-.76-1.32-1.04-.68-.39-1.12-.18-1.45-1.24.23-.18,2.39,1.25,2.58,1.56.13.21.21.46.18.72ZM68.11,17.17s-.07-.34.08-.33c.13.18.36.24.52.37.18.16.54.67.63.91-.1-.29-1.15-.88-1.22-.98l-.02.02ZM69.9,18.3c.62-.08.89.57,1.3.89-.67-.03-1.28-.1-1.3-.89ZM76.16,14.73c.1.05.1.11,0,.16v-.16ZM74.62,12.94c.31.26,1.2.37,1.38.65.13.18-.2.24-.2.41,0,.13.42.41.28.57-.2.21-1.69-1.35-1.46-1.63ZM76.81,23.34c-1.01-.68-2-1.71-2.28-2.93.89.86,1.8,1.74,2.28,2.93ZM73.48,21.72l-.49-.16v-.16h.49v.33ZM73.64,22.04c-.11-.05.1-.28.33-.16.11.05-.1.28-.33.16ZM72.97,11.9c-.15-.23.02-.36,0-.47,0-.1-.62-.15-.31-.42.21-.2.42.26.52.37.15.2,1.02,1.32.94,1.41-.15.15-1.07-.76-1.15-.89ZM74.13,22.04v-.33h.65c.2.08-.55.41-.65.33ZM74.29,22.37c.1-.08.91.28,1.09.39.26.16.65.81.86,1.07-1.01.23-1.66-.59-1.95-1.46ZM76.31,24.92c-1.38-1.35.16-1.02.59.31-.15.07-.5-.21-.59-.31ZM83.96,20.74c.24-.05.59.5.55.63,0,.03-.47.36-.54.36-.2-.02-.85-.34-.75-.49l.73-.5h0ZM83.56,34.07c-.24-.24.44-.52.57-.65.08.24-.37.83-.57.65ZM82.91,34.56c-.16-.16.33-.65.49-.49s-.33.65-.49.49ZM80.96,18.63c.03-.31.52-.2.67-.1.21.15.1.6.21.86.07.18.57.34.6.37,0-.02-.23-.59,0-.41l1.14,1.14c-.11.07-.36-.05-.49-.08.05.1.26.6.08.65-1.56-.67-2.44-2.21-3.82-3.17.89-.39.93.44,1.63.73h-.02ZM82.74,32.77c.29.49-.78.86-.81.81-.28-.37.26-1.04.81-.81ZM82.26,32.45v-.65h.33v.65h-.33ZM79.17,23.18l.81-.65c.1.1-.41.29-.24.49.07.07.7.21.41.49-.03.03-.65-.5-.98-.33ZM79.98,39.52c-.21.2-.34.47-.65.41-.13-.07.47-.44.65-.41ZM79.17,16.03c.21-.21.88.59.65.81-.21.21-.88-.59-.65-.81ZM70.71,36.51c.24.24-.63.65-.73.81-.07-.2.54-1.01.73-.81ZM67.79,40.09c-.31.72.08.39.15.49.16.21-.55.73-.73.8-.33.11-.15-.44-.47-.33-.31.28-1.61,1.82-2.03,1.46-.29-.24.85-.81.91-.88.89-.75,1.04-1.14,2.18-1.56.05-.11.21-.76.49-.49s-.36.44-.49.49v.02ZM68.44,39.36l.41-.41c.15-.02.1.31.08.33s-.39.11-.49.08ZM70.31,38.64l-1.38,1.14.39-.81,1.71-1.3-.73.98h.02ZM71.9,40.92l-.68.24c.5-.59,1.06-1.46,1.95-1.38l-1.25,1.14h-.02ZM74.97,34.27c-.08.05-.41.75-.62.93-.2.18-.47.2-.63.34-.55.47-1.04,1.02-1.63,1.46.24-.57.67-1.4,1.06-1.87.99-1.19,1.45-1.38,2.32-2.8.05-.08.93-.88,1.2-1.17.36-.39.76-.76,1.12-1.15l.16.65c.26-.41.57-.47.89-.65.07-.13-.11-.44.49-.41-.2.54-.34.33-.49.41-.99,1.8-2.47,2.31-3.2,3.79-.1.2-.05.39-.05.6l-.16-.33c-.28-.07-.1.23-.18.29-.05.03-.23-.13-.28-.1h-.02ZM76.4,38.95c.03-.21.52-.62.65-.49.2.2-.33.65-.65.49ZM75.67,39.6v-.16c.1.05.1.11,0,.16ZM75.27,41.39c.23-.34.29-.78.81-.65.03.44-.42.72-.81.65ZM75.92,39.44c-.18-.18.15-.5.33-.33s-.15.5-.33.33ZM76.24,42.36l1.48-1.37,1.61-.91c-.96.75-1.92,1.93-3.09,2.28ZM76.89,42.77c.15-.18.24-.29.49-.24.16.08-.33.31-.49.24ZM77.54,42.28c.24-.37.08-.5.65-.41.1.07-.47.5-.65.41ZM79.07,41.13c-.18.15-.34.47-.63.59.15-.68,1.25-1.22,1.87-1.54-.41.33-.83.63-1.24.96ZM84.37,36.02c-.31.54-1.92,2.34-2.44,2.68-.46.29-1.25.52-1.79.73l1.87-1.79c.83-.49,1.54-1.17,2.36-1.63.05-.08.2-.78.49-.49s-.41.44-.49.49ZM86.13,32.58c-.5.63-1.4,0,.13-.6.05.11-.08.55-.13.6ZM87.18,26.73l-.52-1.11c.33-.28,2.28,1.72.52,1.11ZM87.62,27.41v.49c-.31-.16-.59-.1-.49-.49h.49ZM86.73,34.07v-.16c.1.05.1.11,0,.16ZM87.13,33.75c-.05.11-.28-.1-.16-.33.05-.11.28.1.16.33ZM87.95,32.77c-.16-.2.33-.63.49-.49.24.24-.46.52-.49.49ZM88.52,32.12v-.16c.1.05.1.11,0,.16ZM86.48,31.88c.03-.42,2.1-2.05,2.28-1.87.29.28-1.89,1.9-2.28,1.87ZM89.08,31.55l.24-.24c.16.15-.24.41-.24.24ZM88.6,27.08c.28.55.8.5,1.3.33v.49c-.36-.05-.86.08-1.19,0-.16-.03-.41-.93-1.09-.65,0-.31.75-.23.81-.33.03-.07-.5-1.17.6-.68.05.03.98.65,1.02.7.47.57-1.25.05-1.46.16v-.02Z"/>
      <path class="cls-1" d="M65.04,35.18c.33-.1.29-.42.41-.42.21,0,.46.16.65.16.55-.03,1.11-.26,1.69-.15.15-.63-1.04-.18-1.14-.65.44.03,1.46.15,1.28-.55-.11-.49-1.71-.16-2.16-.26-.13-.03-.13-.29-.31-.37-.31-.13-4.28-.29-4.91-.28-.49,0-3.35.5-3.51.33-.28-1.19,1.11-.49,1.87-.47,1.58.05,2.06-.24,3.61.15.93.23,1.79-.39,2.44-.46.24-.02.34.29.62.31.15,0,0-.29.16-.33.37-.08.2.23.28.28.13.08.96.1,1.15.05.39-.1-.11-.2,1.01-.16.85.03,1.67-.02,2.52,0-.03-.18.05-.76,0-.81l-19.35-.08c.08.76,1.46.34,1.59.42.07.05.08.31.2.37.15.1,2.23.16,2.73.21.21.02.33-.07.52-.13-.07.78-.8.55-1.2.65-.16.03-.1.31-.11.33-.1.08-.37-.39-.49-.33,0,0,.03.24-.11.33-.28.16-.73.13-1.02.33l.08-.49-1.06.16.16.33-.98.16c-.07.07.11.94.16.98.16.11,2.02-.54,2.18-.5.15.03.13.39.36.47.42.15,1.2-.05,1.69.03l-.33.33c2.13.42,4.26.18,6.42.16.99,0,1.74.24,2.86-.07l.03-.02ZM66.49,34.11l-1.58.42-1.35-.1c.05-.31.26-.24.47-.28.8-.13,1.66,0,2.45-.05ZM63.56,33.3c.41-.05.86,0,.81.49h-.81v-.49ZM63.15,32.16c.1.05.1.11,0,.16v-.16Z"/>
    </g>
  </g>
</svg>