<?xml version="1.0" encoding="UTF-8"?>
<svg id="Capa_2" data-name="Capa 2" xmlns="http://www.w3.org/2000/svg" viewBox="0 0 69.58 75.78">
  <defs>
    <style>
      .cls-1 {
        fill: #100f0f;
      }
    </style>
  </defs>
  <g id="Brand_Manual" data-name="Brand Manual">
    <g>
      <g>
        <path class="cls-1" d="M58.95,17.04l.59-.05c-.11-.17-.27-.14-.43-.16-1.26-.09-2.35.23-3.56.27-3.38.09-6.85-.21-10.22-.06-.33.02-.31.28-.56.32-.18.04-.7.06-.92.07-.82.03-1.73.02-2.52-.15-.17-.15-.53-2.36-.66-2.79-.79-2.66-1.59-5.42-2.46-8.07-.12-.37-.42-.72-.42-.77.02-.58-.05-.22-.1-.4-.19-.75-.29-1.75-.4-2.54-.08-.51-.19-1.01-.78-1.04.31.67.03,1.23.11,1.91.05.41.32.73.19,1.14-.38-.14-.25-.5-.33-.79-.15-.45-.45-1.36-.54-1.82-.13-.69.26-.87.2-1.28-.03-.2-.13-.28-.17-.41-.04-.13.18-.4-.18-.42-.3.38-.68.73-.92,1.15-.31.54-.33,1.22-.59,1.77-.22.48-.63.82-.81,1.18-.63,1.24-.48,2.87-1.22,3.99-.12.18-.26.54-.45.63.19-.58.62-1.38.69-1.97.02-.21-.08-.19-.15-.05-.09.17-.7,1.71-.72,1.85-.08.53,0,.78-.25,1.42-.82,2.08-1.73,4.16-2.49,6.28-.09.34.33.9-.24.79l.2.34-2.22.14c-.42-.22-2.15.09-2.3-.24l.2-.25h-.39l.1-.39h-1.08c.22.32.8.11.54.69-.45-.02-1.1-.44-1.49-.49-.27-.03-.47.11-.68.1-.17,0-.3-.17-.41-.18-.16-.02-.53.44-.72-.02l.39-.1c-.16,0-.35.04-.5-.05-.1-.06.21-.3-.53-.34-1.34-.09-2.86.09-4.23,0-1.41-.09-2.86-.51-4.33-.5-.23,0-.42.05-.64.11.28.5,1.07.07,1.32.09.07,0,.08.21.23.28.69.35,1.97-.13,2.59.17.05.02.13.13.1.15-.49-.22-.66.27-.75.29-.25.06-1.49-.18-1.97-.09-.25.05-.21.28-.32.3-.19.05-.96-.06-1.01,0,0,1.04.94,1.15,1.6,1.59,1.38.89,2.19,1.91,3.38,2.83,1.41,1.07,2.76,2.47,4.14,3.65.33.29,1.41,1.14,1.73,1.29.14.06.42.17.53.08.02-.02.21-.48.2-.51-.04-.25-.55-.38-.68-.51-.17-.17-.41-.74-.74-1.03-.19-.17-.54-.47-.59-.1l-.44-.59c.14,0,.31-.03.44,0,.07.02,1.18.62,1.28.69.46.32,1.08,1.23,1.66,1.63.69.48.45.14.55-.06.07-.13,1.28.95,1.38,1.03l-.94-.34.05.39c-.53.15-.66-.49-.95-.68-.38-.25-.78-.02-.59.29.12.19,1.62,1.18,1.93,1.38-.17.31-1.53,2.52-1.38,2.66.12,0,.29.04.37-.02.24-.14.97-2.63,1.55-2.64.31,0-.62,1.47-.68,1.59-.41.93-.41.95-.95,1.81-1.02,1.67-1.6,3.85-2.52,5.65-.24.47-.67.87-.73,1.39l-.05-.59c-.61.5-.68,1.27-.94,1.97.16-.03.32-.59.39-.15-.51.88-.54,2.12-1.08,2.95-.28.43-.81.66-.89,1.19-.03.2.14.21.2.15.02-.02,0-.45.2-.34-.04.37-.4.63-.49.98-.03.13.02.2.14.14.28-.12,1.39-1.93,1.33-2.36.49-.03-.1.84.15,1.08.27-.18,1.02-1.25,1.23-1.33.04,0,.6,0,.49.19-.11.22-.44.12-.49.15,0,0,.09.17.06.3-.22.8-1.43.68-1.6,1-.06.11-.02.35-.1.54-.12.29-.57.5-.67.92-.05.22.07.45-.04.69.26.24,1.79-1.16,2.08-1.32.11-.06.82-.37.95-.42.16-.06.4.02.52-.07.1-.07.06-.3.11-.33.07-.06.3.03.36-.02.02-.02.04-.32.17-.48.1-.12,1.38-1.16,1.48-1.18.27-.06.08.34.2.3l1.72-1.53.1-.25-.25-.1c1.96-1.24,3.64-2.88,5.49-4.25.16-.12.85-.53.56-.05l-1.85,1.48c-.05.11.08.27.08.37.2-.09.15-.1.29-.19.06-.04.2,0,.21,0,.05-.04-.14-.32-.09-.38.03-.04.65-.37.81-.5.82-.69,1.63-1.42,2.43-2.13.6-.53,1.09-.73,1.82-1.03.39,0-.08.3,0,.39.93.34,1.69,1.04,2.22,1.87-.26.21-1.79-1.51-2.26-1.63-.27-.07-.7.35-.59.45.44-.19.61-.05.97.16.95.54,1.38,1.47,2.47,2.01-.05-.11-.05-.27-.2-.34.3-.1.15-.1.15-.34.24.21.71.35.82.66.04.12-.02.31.05.39,0,.02.33.04.17.22-.05.05-.38-.13-.3.2,1.12.72,2.05,1.72,3,2.66.74-.32-.64-.57-.3-1.08.42.22,1.43,1.4,1.72,1.53.14.06.28-.09.44.04.21.16-.07.41.19.61.14.11.67.23.92.36.2.11.97.71,1.08.84.2.22.41.74.82.92.16.07.32-.05.39,0,.05.03.76.74.79.79.2.31.32,1.12.92.94.1-.03,0-.32.58-.08.12.05.06.36.32.1.43-.43-.48-1.22.29-1.29l.65.34c-.03-.47-.32-.58-.53-.85-.09-.1-.08-.3-.2-.39-.26-.22-.89-.02-.75-.68.21-.05.26.18.39.24.19.08.45-.02.64.35.1-.06.06-.32.03-.42-.18-.52-.81-1.02-1.02-1.44-1.02-1.94-1.52-4.56-2.45-6.61-.52-1.16-.83-2.44-1.26-3.66-.2-.56-.57-1.22-.73-1.83-.16-.57-.16-1.15-.32-1.73l.29-.16c0,.48.21.99.36,1.46.06.16-.05.27.23.22,0-.96-.32-1,.44-1.67,1.93-1.7,4.24-2.6,6.42-3.82.12-.07.59-.2.61-.23.35-.37-.9,0-.98.05-.61.27-.78.77-1.55.92-.23.04-.37.1-.32-.18,1-.52,2.02-1.1,2.96-1.71,1.43-.93,2.3-1.48,3.82-2.28.55-.3,1.02-.74,1.59-1.02.02-.18-.23-.1-.32-.07-.22.07-.5.37-.77.23l1.74-1.36c-.05-.18.25-.53.23-.56-.02-.04-.38-.04-.3-.3h.02ZM17.11,21.57c-.13.12-.9-.45-.89-.69.24-.1,1.03.55.89.69ZM17.01,16.45c.3-.04,2.33.07,2.46.2.1.1.02.21-.15.2-.32-.02-.66-.17-.98-.2-.38-.03-.82.05-1.18,0-.15-.02-.31-.08-.15-.2ZM19.43,23.93c-.47-.14-1.04-1-1.54-1.22-.02-.5-.17-.57-.48-.94.91-.19,1.04.8,1.48,1.33.11.14.26.18.35.29.09.09.32.29.33.31.04.11.04.3-.15.25h0ZM23.81,18.81c0,.07.14.18.1.3h-.74l-.84-.59c.31,0,.61-.03.92.02.25.04.44.25.56.28v-.2c.19-.11,2.41,0,1.97.39-.62-.16-1.36-.06-1.97-.2ZM22.13,38.6c.07.52-.35.44-.59.79-.22-.39.18-.79.59-.79ZM22.62,42c-.44.39-.23.22-.54.64-.17.23-.42.51-.64.69-.12-.52.23-.67.43-.99.25-.38.26-.36.5-.68.11-.13.56-.95.74-.8.23.59-.1.77-.49,1.13h0ZM24.2,42.05s-.21.04-.2-.05c.16-.27.31-.07.2.05ZM23.61,34.76c-.06-.06.57-1.13.67-1.25.09-.12.12-.27.32-.23.08.09-.66,1.78-.98,1.48ZM24.69,39.49c.38-.32.7-.72,1.04-1.07.1-.11.15-.25.33-.21-.17.86-.39,1.37-1.38,1.28ZM27.6,37.82c-.29.28-1.3.96-1.33,1.28h.2c.05.29-.23.32-.2,0h-.2c0-.08,0-.16.02-.23.03-.07.79-1.11.87-1.2.26-.28.71-.42,1.08-.44.11.1-.35.51-.44.59ZM27.75,27.97c-.16-.15.48-.6.69-.49.15.14-.56.61-.69.49ZM28.98,32.6v-.1c.06.03.06.07,0,.1ZM31.28,31.07c-.24.11-2.05,1.55-2.16,1.44-.04-.19.11-.24.2-.34.19-.22,1.46-1.21,1.71-1.34.16-.08.28-.12.45-.09l-.21.33ZM31.39,14.19c-.22.25-.36.66-.39.69-.32.32-.09-.75-.1-.79l-.3.15.26-.83.63-.59c.28.53-.09.87-.1,1.38.11-.13.21-.32.39-.3.1.12-.41,1.08-.39.3h0ZM31.59,16.84s.36-.68.59-.59c.04.32-.27.63-.59.59ZM32.77,10.35c.03.48.17.54-.39.89,0-.2.08-.68.19-.83.08-.11.15-.04.21-.06-.02-.24.09-.37.3-.49-.09.39,0,.38-.3.49ZM33.26,9.76c-.03.07-.17-.06-.1-.2.03-.07.17.06.1.2ZM49.36,41.86c.25.2.38.46.34.79-.19-.13-.68-.57-.34-.79ZM48.81,45c.11.11-.09.31-.2.2s.09-.31.2-.2ZM46.96,42.22c.11.06.26,0,.37.02v.1c-.36-.09-.05.47-.34.39-.28-.08-1.02-.51-1.02-.84.53-.67.79.21.99.32ZM44.78,38.5l.49.49c-.24-.16-.59-.11-.49-.49ZM51.96,17.73l-.2.39.64-.1c.24.33-1.17.64-1.23.59.13-.35.32-.93.79-.89ZM51.96,18.62c.02.47-.26.48-.49.69.1-.1.45.19.15.3-.21.08-.18-.26-.15-.3-.23.21-.41.48-.79.49-.05-.8.7-.95,1.28-1.18ZM48.91,19.9s.05.24-.07.3c-.04.03-.79.32-.82.3v-.49c.19.1.86-.13.89-.1ZM48.03,18.52l-.1.79c-.38,0,.02-.44-.59-.3-.18-.13.58-.49.69-.49ZM47.48,20.29l.25.15c0,.07-.22.12-.27.18-.09.11-.1.32-.14.35-.12.08-.59-.02-.78,0l.94-.69ZM46.45,21.18l.89-.1c.1.11-.62,1.33-.89,1.08-.11-.32.38-.6.39-.64.1-.31-.5.04-.39-.34ZM45.27,23.34l-.55.58c-1.02.36.1-.56.55-.58ZM40.89,21.78c.1.09-.15.25-.15.15l.15-.15ZM39.66,15.32c0-.09.18-.07.2-.05.14.13.37,1.48.39,1.77-.31.06-.15-.1-.21-.24-.17-.42-.4-1.03-.38-1.49ZM38.48,11.23s.06.3.15.3c.03,0,.35-.39.44-.05.09.32-.29.3-.31.4-.07.5.55,1.17.5,1.7-.23.07-.3-.23-.36-.37-.11-.27-.64-1.77-.62-1.94,0-.09.18-.07.2-.05h0ZM38.28,17.14c0,.34-.2.74-.59.69l.59-.69ZM37.98,16.25c-.11,0-.22-.33-.24-.4-.04-.17-.09-.31-.06-.48.33.16.31.58.3.89ZM37.69,15.07c.11.11-.09.31-.2.2s.09-.31.2-.2ZM36.61,18.62c-.11.14-.94,1.04-1.08.89-.21-.22.84-.95,1.08-.89ZM35.52,21.37l-.21.33-1.07.85c-.26-.31.87-1.3,1.28-1.18ZM35.72,14.38s.47,0,.59-.2c.17.32-.1.93-.5.65-.11-.08-.13-.41-.09-.45ZM36.28,4.13c.07.14.13.64.02.71-.57.37-.4-1.47-.02-.71ZM35.41,11.57c.53-.1.54.71.49.75-.19.19-.32-.2-.34-.2-.33-.08-.3.29-.39.3-.13,0-.4-.73.25-.85ZM34.93,9.46c0,.29.13.8-.3.79,0-.29-.13-.8.3-.79ZM34.49,7.69c.08-.13-.02-.25.25-.2.14.22-.4,1.18-.59.98.05-.26.22-.56.34-.79ZM35.13,22.36c.13.11-.85,1.13-.98.98-.18-.19.8-1.15.98-.98ZM33.85,33.48c-.15-.16.42-.51.59-.44-.05.14-.41.62-.59.44ZM35.87,24.83c-.28.56-.94.61-1.24.83-.08.06-.84.81-.88.86-.02.03.23.48-.21.58-.04-.51.17-.78.34-1.18.11-.24,0-.76.39-.2.43-.65,1.15-1.13,1.66-1.68.72-.77,1.37-1.59,2.08-2.35.15-.16,1.11-1.47,1.33-1.28-1.02,1.59-2.46,2.86-3.49,4.43h0ZM39.07,27.58c-.07-.07.41-1.24.69-.98-.03.41-.18.96-.69.98ZM39.21,23.74c-.09,0-.06-.23-.05-.3-.5.29-.68.94-1.28,1.03.32-.27,1.15-1.6,1.43-1.72.35-.15-.13.57-.15.69l.69-.59c.09.5-.35.62-.64.89ZM39.92,22.76s-.27-.23-.27-.25c.02-.11.43-.8.59-.64l-.2.49c.19.08.47-.43.59-.3.22.25-.37.76-.72.69ZM42.46,39.68v-.1c.06.03.06.07,0,.1ZM43.2,39.88c-.83.06-.47,0-.64-.49-.1-.31-.14.22-.39.1-.13-.06-.17-.36-.29-.5-.14-.15-1.28-.89-1.14-1.07.83-.3,1.61.76,2.1,1.34.15.18.47.18.36.62h0ZM42.22,22.65l.39-.54.49-.15c-.18.47-.36.62-.89.69ZM43.6,31.42c-.17.07-.45-.39-.47-.46-.05-.17-.02-.34-.02-.52.3.25.57.58.49.98ZM42.22,19.01c-.17-.13,0-.18.15-.2.29-.04.92.09.94-.3h.1s0,.15.03.17c.1.06.39.11.53.12.21.02.76-.24.73.21h-2.47ZM46.69,25.61c-.78.63-1.7,1.05-2.41,1.77-.13-.8,1.01-1.01,1.48-1.52.16-.17.18-.39.3-.49.13-.13.43-.16.62-.27.32-.19.55-.53.95-.47.13.11-.82.89-.94.98h0ZM47.44,24.13s.22-.61.26-.68c.04-.08.2-.07.24-.18.03-.1-.03-.28,0-.32,0,0,.15.09.29.05.16-.04.39-.46.5-.34.07.08-.82,1.71-1.28,1.48ZM48.64,21.57c-1.27.58,0-.32.06-.4.16-.28-.27-.45.61-.37l-.67.78h0ZM49.31,24.72c.05-.18.43-.26.59-.3-.06.19-.41.31-.59.3ZM49.4,19.01c.16-.32.42-.45.79-.39-.13.43-.38.43-.79.39ZM50.95,21.7c-.19.12-.42.03-.6.08-.08.02-.07.17-.08.18-.11.07-.28-.09-.28-.13,0-.09,1.21-.8,1.37-.99l1.49-.24-1.9,1.1h0ZM56.69,19.01c-.51.2-2.42,1.39-2.86.99-.21-.19.5-.25.65-.38.13-.14.14-.38.24-.45.24-.16.99-.33,1.41-.64.43-.32.25-.49.35-.64.07-.09.65-.4.7-.34.21.25-.79,1.09-.49,1.47Z"/>
        <path class="cls-1" d="M45.82,16.22c1.28.06,2.51.18,3.82.24,1.05.05,2.95.13,3.95,0,.11,0,.49-.38.99-.39.57,0,.41.43,1.19-.18.08-.06.18,0,.13-.23-.26-.02-.48.09-.74.1-2.19.09-4.32-.07-6.5-.11-1.08-.02-3.21-.15-4.15.19-.1.04-.29.06-.14.21.06.05,1.24.15,1.45.16v.02Z"/>
        <path class="cls-1" d="M49.22,40.81c.02.11.15.39.23.46.39.32.31-.03.39-.17.03-.04.14-.03.16-.1,0-.03,0-.54,0-.57,0-.1-.19,0-.31-.12-.12-.11-.37-.81-.29-.93l.3.1-.2-.69-.3.39c0-.34-.25-.74-.3-1.04-.08-.51-.05-1.27-.13-1.76-.19-1.23-1.19-3.94-1.7-5.17-.1-.23-.24-.6-.54-.59.11.28-.02.51.04.79.19.95,1.08,2.52,1.14,3.5,0,.18-.19.12-.21.2-.08.37.28.57.4.87.46,1.09.62,2.54,1.13,3.69.11.25.44.62.53.85.11.3-.44-.02-.38.29h.02Z"/>
        <path class="cls-1" d="M24.55,16.84c.36.1,1.59,0,2.07,0s.37.29.41.3c.35.1.3-.15.4-.19.2-.08.62.06.62-.4-1.21,0-2.43-.02-3.64.1,0,.06.12.19.15.2h0Z"/>
        <path class="cls-1" d="M45.75,30.88c0,.48.54,1.12.76,1.6.23.51.34,1.1.57,1.59.07.15,0,.25.25.2-.34-.81-.52-1.85-.87-2.63-.15-.34-.45-.54-.51-.92-.19,0-.2-.05-.2.15Z"/>
        <path class="cls-1" d="M23.41,31.22c-.08-.09-.31.06-.39.15-.3.29-.63,1.58-.79,2.02.42-.35.88-1.2,1.08-1.71.04-.11.17-.37.09-.44h0Z"/>
        <path class="cls-1" d="M21.44,35.55s-.23-.03-.31.06c-.32.38-.51,1.61-.78,2.11.09,0,.24-.22.29-.29.14-.23.94-1.77.8-1.88Z"/>
        <path class="cls-1" d="M46.75,30.23c.13-.13-.28-1.26-.69-1.18-.12.28.4,1.46.69,1.18Z"/>
        <path class="cls-1" d="M57.53,16.25c.25,0,.34-.39.2-.39l-1.06.12-.76.28h1.62Z"/>
        <path class="cls-1" d="M21.74,29.54c-1.68-.2-3.39-.05-5.07-.1-3.53-.1-7.1-.31-10.62-.4-.45,0-1.04-.04-1.49,0-.18,0-.38-.02-.43.2l2.56.2c.1.41-.52.02-.59.3h1.67l-.1-.2c.7.02,1.4.04,2.1.06.93.03,1.85.12,2.78.15.44,0,.66-.15,1.13.05.16.07.25,0,.2.24-1.46,0-2.92.17-4.38.17-1.93,0-3.95-.14-5.81-.26-.96-.07-1.92-.32-2.9-.21l.59.2c-.58,0-1.13-.05-1.33.59-.03.11-.1.15.05.25.39.25,1.67.11,2.21.16.1,0,.46.04.45.19-.51.19-1.13,0-1.6.3-.15.1-.69.69-.56.89.14.2,1.42.13,1.69,0,.12-.05,0-.24.22-.2.09.02.02.14.12.2.2.11.82.06,1.04,0,.13-.03,0-.24.17-.2l.1.98c-.84.02-1.67.07-2.51.1-.14,0-.31.11-.38.11s.03-.44-.43,0c-.14.32.57.45.77.48l-.2.1c-.03.5.72.14.89.49-.27,0-.59-.02-.85.08-.18.07-.16.21-.24.26-.32.21-.61.05-.59.75.3.15.46-.1.74-.11,2.11-.08,4.27.25,6.4.31.16,0,.36.13.48.09.17-.05.1-.32.23-.39.17-.11.91-.19,1.01.1h-.49v.3c.5.02,1.02-.03,1.53,0,2.15.11,4.26.28,6.39.3.47,0,1.16.29,1.43-.09l-2.22-.1-3.79-.25c.13-.19.24-.14.41-.13,1.84.09,3.68.21,5.52.26l.17-.18-4.73-.2c.05-.18.48-.19.64-.2.93-.07,2.3-.03,3.26,0,.34,0,2.4.28,2.5.19.24-.45.25-.92.37-1.35.12-.39.59-1.02.72-1.45.09-.29-.43-.09-.49-.15-.03-.03.02-.47,0-.59.17-.03.7.06.78,0,0,0,.13-.36.11-.37-.21-.21-.16.25-.3.2.11-.45-.2-.18-.3-.39l.59-.2c-.58-.12-1.17-.23-1.77-.2l.3-.2c-.47,0-.95,0-1.43,0-.89-.02-1.75-.14-2.66-.2-.45-.03-.93.02-1.38,0-.12,0-.36.08-.34-.1.4-.03.83.04,1.22,0,.14-.02.38-.06.35-.19l-.39-.1c.45.08.93-.07,1.34-.09.79-.03,2.81-.11,3.54,0,.21.03.41.22.43.21.02-.02,0-.23.16-.28.1-.03.97.04,1.02-.02.02-.02,0-.22,0-.3h0ZM2.84,34.37c.13-.23.66-.04.89-.1-.14.23-.66.04-.89.1ZM3.87,34.17v-.1c.06.03.06.07,0,.1ZM7.76,31.81l.59-.2-.3-.3c.97.13,1.88,0,2.86,0l-.1.2.3.1c-1.11.03-2.22.33-3.35.2ZM12.58,30.33c.4.14,1.04-.32,1.28.1-.32,0-.63,0-.94,0-.12,0-.36.08-.34-.1ZM14.55,33.78c.05-.3,1.02-.35,1.08-.3v.3h-1.08ZM17.41,31.22v.3c-.45.23-.74-.18-.93-.19-.35-.02-1.07.18-1.48.2l-2.31-.15c1.55-.32,3.16-.05,4.73-.15h0Z"/>
        <path class="cls-1" d="M2.99,17.53c-.49.13-1.47-.09-2.02,0l.04.4c.64.18,1.41,0,2.08.09.1,0,.41.47.63.11l-.39-.1c1.34-.18,2.53.35,3.84.3,0,.15-.35.18-.45.19-.85.1-1.64,0-2.43.05-1.03.05-2.08.19-3.12.16-.2.28.67.28.79.34.15.09.32.74.44.74h3.49v.3h-1.82c-.11,0-1.9.32-2,.36-.09.04-.1.15-.16.2-.07.06-.24,0-.27.09-.17.56.5.6.94.64.52.04,1.25-.12,1.66-.07,1.4.14,2.85.02,4.14.17.23.03.66.08.64.39-.75.05-1.49-.16-2.22-.2-.87-.05-1.7-.02-2.55,0-.47,0-.95-.02-1.43,0l.39.79c-.06.08-1.54.14-1.28.49l13.29.59c.04-.17-.05-.2-.15-.3-1.23-1.2-3.03-.83-4.58-1.18.07-.08.32-.39.35-.4.38-.04.32.37.33.4.03.04.74-.19.94-.18.27,0,.62.23.91.26.1,0,.31.08.23-.13-.11-.26-1.03-.69-1.33-.94-.56-.48-.97-1.07-1.63-1.52-.34-.23-1.15-.48-1.33-.64-.18-.15-.12-.4-.14-.4h-1.38c0-.23-.03-.18.15-.2.36-.05,1.47.15,1.53.1.22-.19-.41-.28-.5-.36-.12-.12-.17-.51-.25-.53l-2.15.08c-.35-.25-.6-.13-.99-.07l-1.23-.2c.45-.32.19-.11.32-.03.15.09.67-.08.92-.08.83-.02,1.69-.02,2.46-.04.32,0,.72.09,1.03.15.07-.3-.18-.14-.33-.3-.06-.06-.05-.32-.25-.19,0,0,.02.17-.07.19-.22.06-.58-.04-.82,0l.3-.3c-.58.13-1.22-.12-1.82-.1-.84.03-1.75.34-2.61.3l.69.2-2.56.1c-.16.12,0,.18.15.2.58.08,1.15-.12,1.72-.1,0,.06-.12.19-.15.2v-.02ZM8.65,19.7c.03.1-.41.2-.44.2h-1.43c-.04-.26.04-.18.22-.23.55-.16,1.08.12,1.65.03Z"/>
        <path class="cls-1" d="M65.8,19.5c-1.28-.15-2.37-.18-3.66-.35-.57-.08-1.13.06-1.7.06v.3c.06.85.46.41,1.03.41.89,0,2.11.17,2.96.09.39-.04.87-.22,1.36-.17.24.02.49.24.8.18.1-.02-.06-.43.34-.31-.2-.34-.77-.16-1.13-.2h0ZM60.78,19.4v-.1c.06.03.06.07,0,.1Z"/>
        <path class="cls-1" d="M60.53,18.33c-.03.18-.29.02-.2.39,1.59-.08,3.22.14,4.77-.2.09,0,1.29.07.94-.2h-3.64l2.17-.3c-.45-.3-.92.08-1.24.09-.04,0-.03-.19-.11-.2-.17-.03-.98.14-1.02.11-.16-.18.09-.34.3-.34-.37-.22-.04-.57-.54-.44-.14.04.08.26.05.3-.06.07-1.55.43-1.77.39-.04.26.05.36.3.39h0ZM62.5,18.52c-.02.22-.68.08-.69-.1l.69.1Z"/>
        <path class="cls-1" d="M59.89,23.64c-.39-.11-1.26.08-1.72,0v.3c.25-.09,1.8.06,1.87,0,.06-.05-.07-.28-.15-.3Z"/>
        <path class="cls-1" d="M67.13,22.36c-.95.05-.52,0-.64-.29-.24-.6-.58-.4-.96-.52-.74-.22.45-.56.77-.47.04-.04-.06-.27-.07-.28-.26-.2-2.48-.2-2.93-.22.07-.14.48-.16.65-.19.14-.03.29,0,.43,0,.02-.25.02-.17-.15-.2-.7-.1-.97-.12-1.64.11-.07.02-.07.17-.15.19-.44.1-1.14.07-1.6.1l.3-.3c-.47.14-.46-.3-.89-.2l.15.3c-.19.03-.3-.49-.54-.3-.3.24.36.05.2.25-.53.04-.15.29-.2.34-.04.05-1.07.28-1.22.38-.1.08,0,.23-.13.31-.29.19-.97.18-1.3.45l-.14-.06c.2.02.22-.36,0-.3-.32.1-.64.53-1.03.49l.59.15c0,.09-.38.11-.49.2s-.08.23-.1.25c.58,0-.05.31-.39.39-.24.21-.66.36-.69.39-.1.1-.02.21.15.2.42-.03.88-.18,1.33-.1l-.3-.2c.96-.09,1.94-.06,2.9-.1,1.73-.07,3.54-.14,5.32-.2.84-.03,1.4.14,2.18-.2.08-.03.03.19.1.21.32.06.62-.52.54-.59h-.02ZM56.3,22.55l.69-.39c-.12.23-.45.35-.69.39ZM58.75,21.97s.04.24.1.3c-1.14.35-.32-.47-.1-.3ZM63.29,22.75l1.23-.2c.42.07,1.14-.2,1.43.2h-2.66Z"/>
        <path class="cls-1" d="M56.63,30.21h-2.64s-.26.22-.24.32h2.48c.1,0,.54-.26.4-.32Z"/>
        <path class="cls-1" d="M52.63,18.33c-.1-.03-.26.03-.32,0-.06.53.42.48.32,0Z"/>
        <path class="cls-1" d="M64,34.62c.32-.1.29-.42.4-.42.21,0,.45.16.64.16.54-.03,1.09-.26,1.66-.14.14-.62-1.02-.18-1.12-.64.43.03,1.44.14,1.26-.54-.11-.48-1.68-.16-2.13-.26-.13-.03-.13-.29-.3-.37-.3-.13-4.21-.29-4.83-.27-.48,0-3.3.5-3.46.32-.27-1.17,1.09-.48,1.84-.46,1.55.05,2.03-.24,3.55.14.91.22,1.76-.38,2.4-.45.24-.02.34.29.61.3.14,0,0-.29.16-.32.37-.08.19.22.27.27.13.08.94.1,1.14.05.38-.1-.11-.19.99-.16.83.03,1.65-.02,2.48,0-.03-.18.05-.75,0-.8l-19.04-.08c.08.75,1.44.34,1.57.42.06.05.08.3.19.37.14.1,2.19.16,2.69.21.21.02.32-.06.51-.13-.06.77-.78.54-1.18.64-.16.03-.1.3-.11.32-.1.08-.37-.38-.48-.32,0,0,.03.24-.11.32-.27.16-.72.13-1.01.32l.08-.48-1.04.16.16.32-.96.16c-.06.06.11.93.16.96.16.11,1.98-.53,2.14-.5.14.03.13.38.35.46.42.14,1.18-.05,1.66.03l-.32.32c2.1.42,4.19.18,6.32.16.98,0,1.71.24,2.82-.06l.03-.02ZM65.43,33.56l-1.55.42-1.33-.1c.05-.3.26-.24.46-.27.78-.13,1.63,0,2.42-.05ZM62.55,32.76c.4-.05.85,0,.8.48h-.8v-.48ZM62.15,31.65c.1.05.1.11,0,.16v-.16Z"/>
      </g>
      <g>
        <path class="cls-1" d="M37.19,67.18c-.18-.19.69-.55.85-.69,1.15-1.1,1.19-3.26-.25-4.13-2.2-1.32-4.59.06-6.87.21l.66.28c-.19.32-.95.13-.98.17-.02.01-.13.39-.11.43.06.09.54.13.54.34-.25.09-.42.14-.66,0-.18.66.58.53.99.73.02,1.19-.33,2.35-.44,3.51-.11,1.12-.11,2.29-.22,3.41-.07.66-.45,2.07-.31,2.62,0,.03.28.61.31.63.06.04.39-.26.44-.22.17.91.46.26.83-.11-.13.37.15.36.35.66,1.71-.33,3.74-.73,5.24-1.67.66-.42,1.95-1.41,2.14-2.16.53-2.08-.74-3.25-2.51-4h.01ZM33.78,64.05c.14-.12,1.16-.45,1.39-.48.23-.03,1.57-.06,1.67,0,.06.03.25.57.24.69-.06.62-2.88,2.3-3.63,2.26-.09-.1.19-2.36.33-2.48h0ZM35.96,71.63c-.52.26-2.25,1.09-2.7.52-.12-.15.08-.43.07-.62-.02-.36-.18-.68-.12-1.11.04-.3.29-.75.33-1.1.41-.26,3.24-.21,3.72.03.18.09.2.28.28.32.14.09.35.11.52.14.31.44-1.75,1.63-2.1,1.81h.01Z"/>
        <path class="cls-1" d="M29.51,68.78c.01-.07-.17-.03-.21-.13-.17-.36.02-.77,0-.79-.03-.06-.34,0-.39-.02-.08-.03-.04-.36-.5-.13-.86.75-1.72,1.54-2.48,2.37-.68-.69-1.42-1.32-1.92-2.17.21-.39.75-.75,1.06-1.07.98-1.03,2.01-2.13,1.64-3.71-.21-.9-1.38-1.37-2.21-1.32-.26.01-.44.19-.67.22-1.38.18-2.19.2-3.19,1.32-1.39,1.56.06,2.73.51,4.35-.79.46-1.57,1.22-2.15,1.95-.77.99-1.12,1.59-.94,2.9.18,1.3,1.66,1.79,2.8,1.81.62,0,2.09-.33,2.59-.69.11-.08.08-.28.19-.39.25-.26,1.09-.35,1.41-.66.12,0,.88.91,1.1,1.1.33.28.63.46.99.77.55.47.5,0,.56,0,.14,0,.52.23.69.1.08-.06.1-.52.12-.54.11-.09.51.15.66.06.44-.29.03-.42,0-.47-.42-.81-.56-.75-1.05-1.35-.14-.19-.74-1.07-.7-1.24.08-.39,1.93-1.5,2.07-2.22h.01ZM22.19,64.77c.03-.09.69-.8.79-.86.61-.33,2.17-.63,1.63.53-.09.19-1.33,1.53-1.53,1.66-.11.08-.24.17-.37.09-.13-.08-.59-1.18-.51-1.41h-.01ZM23.78,71.36c-.06.1-1.72.92-1.94.98-.68.17-1.93.23-1.78-.79.06-.39,1.55-1.85,1.94-2.03.19-.09.5-.22.68-.1.08.04.37.74.48.89.15.22.78.78.63,1.05h-.01Z"/>
        <path class="cls-1" d="M59.21,73.85c-.96-1.16-1.7-2.49-2.6-3.68-.14-.19-.79-.75-.81-.85-.03-.17.1-.18.18-.25.31-.3,1.2-.56,1.44-.81.06-.07,0-.22.11-.31.19-.17.63-.41.77-.58,1.08-1.27.79-3.25-.08-4.53-.74-.21-1.33-.7-2.08-.89-.99-.23-2.52-.12-3.51.13-.58.15-1.29.86-1.95,1.02.19.4.26.52-.06.88h.88c-.09.25.1.42.12.7.13,2.7-.68,6.08-.78,8.82,0,.26.04.46.11.7.15-.03.32-.55.55-.33.08.08-.23.63-.06.77l.07-.2c.28.15.41-.12.59-.13.1,0-.02.5.74.21.65-.25.53-2.5.53-3.13l.22-1.38c.11.33.46.56.66.83.37.5.63.97.97,1.44.81,1.12,1.07,1.71,2.18,2.51.1.08.26.37.29.37.11.04.25-.1.35-.08.14.03.2.46.69.51.68.08.4-.62.63-.64l.83.33c.06-.77-.58-1-.99-1.49v.03ZM51.62,72.69c0-.45.04-.92.11-1.38.03-.19-.06-.19.22-.17-.01.46.06,1.21-.33,1.54ZM53.6,67.85c.2-.75.12-3.25.61-3.74.29-.3,2.52-.02,2.76.33.15.22-.07.99-.22,1.22-.28.4-2.9,2.46-3.15,2.19Z"/>
        <path class="cls-1" d="M67.38,50.38c.01-.28-.12-.51-.11-.75.07-.89.31-1.79.22-2.7l-.44.11v-.44c-.39-.06-.3.63-.62.76-.32.13-.26-.2-.37-.26-.15-.1-.68-.04-.76.08-.03.04-.21.89-.23,1.03-.19,1.17-.1,2.53-.24,3.72-.31.44-.9.17-1.24.19-.3.02-1.94.32-2.05.21l.1-5.27c-.37-.31-.94.15-1.23.1-.11-.02-.13-.33-.23-.34-.06,0-.99.52-1.02.57-.23.4.17,1.24.2,1.67.07.78-.2,1.64-.23,2.42-.03.68.17,1.56.13,2.1-.01.22-.24.18-.32.34-.13.26-.41.95-.02.97-.79.44-.02.34,0,.44.15.58-.43,2.73-.23,3.03l.22-.11.22,1.43.5-.33v.55c.46-.09.2-.56.28-.66.02-.02.19.06.28.04.1-.01.17-.1.29-.1.43-.01.76.41.88-.55.06-.5-.07-3.35.21-3.53.06-.03,1.13-.17,1.27-.17.28,0,.48.19.69.2.28.02.58-.18.91.02l-.33-.33h.44c-.18.98.23.68.33.77.17.17-.22.57-.22.72,0,.08.22.04.23.12,0,.09-.11.28-.12.43-.02.77-.09,2.32.2,2.99.19.45.75.47.97.9.46.04.34-.4.37-.43.21-.23.21.2.23.21.2.17.2-.11.25-.17.08-.08.23-.11.26-.23.08-.23.03-1.11.02-1.41-.11-1.66-.35-4.22-.22-5.85.07-.83.52-1.75.55-2.54v.03ZM59.46,57.01c-.02.17-.09.34-.22.17.03-.33-.04-.73,0-1.05.02-.17.09-.34.22-.17-.03.33.04.73,0,1.05ZM60.01,57.82v-.88c.09.01.3-.02.33,0,.03.03-.17.86-.33.88Z"/>
        <path class="cls-1" d="M28.74,60.08c.2.09.42.02.61.17.09.07.57.76.67.78.4.08.83-.1.8-.55-.33-.14-.53.03-.44-.55.17.13.43.35.44.55.12.06.73.39.77.33-.06-1.23-1.27-2.01-1.92-2.98-.54-.79-.91-1.59-1.49-2.33-.1-.12-.28-.17-.39-.31-1.08-1.43-.56-.99.56-1.63,1.65-.92,2.88-2.26,1.87-4.23-1.11-2.16-4.55-2.41-6.61-1.71-.32.11-.42.32-.67.43-.15.08-.92.28-.96.31-.22.22.44.22.22.44-.06.06-.43-.14-.33.22.76-.09.4.37.44.43.07.09.65.12.67.61.03.84-.26,2.19-.34,3.09-.07.83-.04,1.7-.11,2.53-.11,1.3-.45,2.61-.33,3.91l.33-.66.06.44.17-.22-.11.99c.21,0,.1-.34.39-.33.1,0,.02.23.12.23s.22-.12.32-.12c.03,0,.24.68.29-.1.2-.04.01.32.28.22.07-.02.29-.25.32-.34.47-1.5.2-3.12.4-4.67l.22-.06c.52.84,1.03,1.72,1.61,2.52.4.55,1.65,2.37,2.15,2.59ZM23.24,57.27c-.07,0-.22-.14-.22-.17v-1.82c.33-.06.18.09.22.26.15.62-.06,1.08,0,1.72ZM23.46,51.44c-.25.33-.24-.59-.23-.73.03-.2.2-.13.23-.23.04-.14-.1-.39.11-.36l-.11,1.32ZM25.3,50.81c.13-.61-.1-1.15.77-1.32.42-.09,2.3.24,2.52.52.03.03-.08.78-.12.88-.1.23-1.22,1.16-1.49,1.27-.56.24-1.4.31-1.98.61-.19-.2.23-1.62.3-1.96h0Z"/>
        <path class="cls-1" d="M31.91,59.34s.31-.59.46-.42c-.14.85.68,1.33,1.19.58.23-.5.58-2.96.83-3.19.06-.06.64-.15.83-.22.2-.08.4-.29.55-.33.42-.11,1.15-.13,1.61-.23.14.03.13.15.18.26.24.59.29,1.84.5,2.59.07.21.54,1.6.61,1.65.01.01.33-.12.34-.18.03-.14-.4-1.16-.44-1.54-.01-.12-.11-.5.1-.48.18.53.5,2.95.88,3.14.46.23.92-.22.77-.72l.33.11c.28-.36-.96-4.94-.99-5.73.76.21.4-.63.44-.66.03-.02.89-.08.77-.39-.15-.42-1.53-.62-1.66-.79-.26-.36-.35-2.05-.48-2.58-.17-.72-.65-1.63-.8-2.28-.04-.18,0-.66-.02-.69-.04-.04-.28.12-.37.1-.13-.03-.28-.7-.55-.1-.55-.68-.69.42-1.24.09-.19-.11-.07-.51-.77-.23-.09.03-.86.9-.89.99-.12.33.22.19.21.42,0,.18-.18.76-.24.99-.77,2.85-1.75,5.68-2.61,8.51-.1.35-.04,1.5.51,1.32ZM38.76,57.27c-.17.03-.13-.21-.17-.33-.1-.44-.13-.89-.28-1.32.34-.37.54,1.54.44,1.65ZM36.12,49.57c.32.22.41.74.5,1.09.06.23.03.47.08.69.07.32.45,1.45.29,1.72-.08.13-.78.11-.99.18-.2.06-.18.23-.29.28-.19.07-.57.06-.79.12l1.21-4.07Z"/>
        <path class="cls-1" d="M48.64,69.5l.44.11c-.15-.64.46-.86.33-1.54-.43.24-.25-.12-.48-.11-.21,0-.52.15-.73.22-.3-2.01-.84-3.96-1.43-5.9-.56.13-.36-.29-.45-.37-.12-.11-1.2.37-1.39.41-.31.04-.55-.33-1.16-.04-.35.15-1.11,1.08-.53,1.23-.87,2.35-1.4,4.83-2.13,7.23-.22.73-1.35,2.83-.56,3.38.45.32.5.06.65-.32.17.1.61.87.67.88.03,0,.68-.25.7-.28.13-.1.57-2.88.83-3.25l2.92-.76c.32,1.27.36,2.75.98,3.93.3.57.61.48.78.76.2.3-.01.73.5.7.83-.03.58-.52.51-1.1l.28.33c.17.04.25-.13.28-.28.1-.58-.47-1.9-.63-2.57-.2-.87-.4-1.77-.36-2.66h-.01ZM45.87,67.94c-.07.1-.81.19-1,.24-.09.03-.08.18-.18.2-.21.07-.56.07-.79.12l1.1-3.74c.21-.04.28.1.35.25.2.37.68,2.66.51,2.93h.01ZM47.43,70.49l.22,1.54c-.17,0-.21-.33-.25-.46-.04-.17-.4-1.19.03-1.08ZM47.76,74.23c-.15,0-.25-.43-.28-.54-.07-.33.01-.66-.15-.95-.01-.09.21-.07.22-.06.06.06.29,1.34.22,1.54h-.01Z"/>
        <path class="cls-1" d="M12.01,56.24c-.2-1.88-2.35-3.08-3.77-4.03-.34-.23-.54-.32-.85-.51-.14-.09-.96-.61-1-.65-.41-.45.15-.53.33-.77.17-.22.2-.46.44-.66.65-.54,1.66-.55,2.42-.28l-.55.28c.52.04.24.17.33.41.06.14.32-.02.11.41.21.04.33-.18.52-.2.29-.03.42.28.53-.13.21-.04.14.37.61.22.02-.25-.18-.55-.12-.8.02-.09.28-.15.39-.3.45-.56.29-1.37-.21-1.83-1.17-1.09-3.29-1.48-4.64-.48-.25.19-.46.52-.72.72-.78.64-2.54,1.9-2.31,3.08,0,.06.4.87.46.98.39.72,2.07,2.39,2.74,2.87.76.54,1.94.91,2.72,1.45.25.18.14.4,0,.63-.22.4-2.15,1.5-2.6,1.59-1,.18-1.98-.52-2.94-.64-.2.14.42.1.17.33-.08.07-.59-.18-.77-.11-.02.01.08.42.11.47.09.18.43-.07.33.3-.53-.3-.91.07-.5.55.11.13.32.43.34.45.29.21,1.94.8,2.33.84,1,.1,2.79-.47,3.64-1.02.76-.47,2.53-2.24,2.43-3.17h.01Z"/>
        <path class="cls-1" d="M66.07,68.2c-1.08-.72-2.37-1.23-3.39-2-.19-.14-.62-.04-.31-.43.59-.23,1.86-.54,2.31-.91.34-.29.36-.7,1.08-.74.14.17-.03.59.07.75.09.14.94.29.81-.2l-.17-.22c.3-.9.67.35.55.77.28-.13.28-.41.39,0,.52-.9.73-1.48,0-2.36-.39-.46-.67-.64-1.32-.72-1.19-.15-3.36.53-4.37,1.22-.77.53-1.97,1.78-1.94,2.77.02.55.37,1.1.66,1.55l5.17,2.87c.03.4-1.62,1.4-1.99,1.53-.98.35-2.29.11-3.3.06.18.58-.31.4-.33.5-.08.41.19.56.55.61.19.2-.77.51-.11.55l-.22.33c.31-.1.58.25.81.23.06,0,.06-.2.13-.22.75-.22,0,.62.44.75.57.18,1.38.06,1.94-.12,1.53-.47,4.08-2.22,4.35-3.91.02-.18.06-.34.02-.52-.1-.55-1.35-1.82-1.84-2.14h0Z"/>
        <path class="cls-1" d="M20.6,56.06s.02-.39-.22-.51c-.55-.29-1.09.72-1.4.95-.44.33-1.78,1.02-2.32,1.08-.25.02-1.11-.19-1.24-.39-.17-.24-.39-1.42-.42-1.76-.17-2.03.58-4.14,1.96-5.6.42.25,1.76.17,1.85.68.03.17-.18.4-.03.59.29.41,1.43.4,1.57-.2.21-.83.06-2.42-.47-3.1-.2-.26-1.24-.79-1.56-.86-.33-.07-1.95.18-2.2.33-.07.04-.99,1.1-1.11,1.26-.42.54-.86,1.29-1.21,1.87-.11.18-.32.78-.35.8-.02.01-.29-.15-.33-.11-.15.34,0,.7-.04,1-.06.46-.34.99-.4,1.6-.11,1.35.41,4.82,1.7,5.56.2.12.48.09.51.11.03.03-.39.39.41.53.85.15,2.29-.01,3.12-.2l-.11-.22.66-.33s.02-.09,0-.11.01-.08,0-.11c-.02-.03-.18-.06-.19-.15-.03-.29.62-.42.9-.62.24-.17,1.49-1.42,1.49-1.6,0-.03-.2-.58-.22-.61s-.29.15-.33.11h.01ZM13.33,51.99h-.11v-.66c.34.11.12.4.11.66Z"/>
        <path class="cls-1" d="M50.16,58.81c.31.44,1.42,1.23,1.98,1.22.68-.01,2.46-.28,3.05-.57.06-.03.42-.32.31-.43-.03-.03-.67.35-.96.42-.11.02-.48.12-.46-.08.32.07.44-.32.57-.36.3-.11.59-.08.97-.23.25-.11,1.45-.9,1.53-1.11.12-.29-.57-.07-.63-.02-.07.04-.5.81-.69.63-.21-.21.48-.45.55-.52.2-.19,1.13-1.24.99-1.46l-.55-.11.22-.39c-.37.17-.33-.17-.39-.18-.35-.02-2.07,1.23-2.52,1.44-.7.33-1.49.37-2.25.31-.15-.69-.86-1.67-.88-2.37,0-.22.09-1.03.13-1.29.03-.19.35-1.37.42-1.41.02-.01.29.15.33.11,0-.14.02-.29.09-.41.14-.3,1.6-2.17,1.82-2.31,1.13-.73,1,.19,1.4.68.69.88.79-.06,1.06-.17.35-.14.18.19.37.21,0-.29.14-.56.19-.85.01-.11-.11-.33-.08-.36.01-.02.41.19.44-.06,0-.03-.11-.43-.14-.46-.09-.11-.91-.51-1.07-.64-.21-.18-.11-.48-.53-.68-.83-.39-2-.26-2.72.3-.54.43-.76.63-1.37,1.06-2.86,1.99-3.01,7.39-1.17,10.06l-.02.02Z"/>
        <path class="cls-1" d="M46.02,53.25c.03-.5.19-1.05.22-1.54.06-.65-.11-1.34.1-1.97,1.21-.1,2.39-.33,3.53-.73.03-.19-.26-.12-.39-.11-.77.04-1.59.21-2.37.22-.02-.28-.02-.19.17-.22.4-.06,2.36-.13,2.47-.24.04-.06,0-.22.01-.31l.22-.06c.03-.2-.61-.44-.44-.61.03-.03.68-.08.61-.55-.11.1-.3.12-.44.12-2.27-.13-5.22.19-7.49.43-.66.07-1.63.54-2.15.94l.55.17c-.07.25-.46-.07-.33.39.03.1.28-.02.22.17h-.55c-.04.19.15.07.19.13.08.12.02.29.03.42.18.04.07-.19.17-.22.42-.13.23.29.28.33.14.13.72-.36.77.17,0,.03-.41.07-.22.28.33.35,2.73-.35,2.86-.22l-.67,8.86c.02.11.48-.06.34.4.73-.32.41,0,.72.44l.17-.44c.09.18.18,1.06.22,1.1.02.02.24-.01.33,0l.06-.33.17.55c.15-.09.39-.58.42-.74.39-1.9.12-4.78.24-6.8h0Z"/>
        <path class="cls-1" d="M16.25,69.18c.12-.12.23-.29.36-.41s.39-.14.26-.34c-.07-.1-.27-.13-.33-.18-.01.19-.33-.14-.06-.06-.97-1.04-1.93-2.08-2.94-3.09-.68-.68-1.32-1.42-2.02-2.08-.19-.18-1.24-1.09-1.4-1.15-.49-.19-1.76-.07-2.35-.09-.14,0-.27-.06-.41-.07-.62-.02-1.23-.05-1.84-.06-.1.08.25.33,0,.3-.24-.04-.67-.5-.83-.18-.16.31.67.8.9,1.01,1.02.95,1.95,2.17,3,3.12.22.2.51.27.74.56.46.58.78.95,1.33,1.46.14.12.78.58.78.71s-.28.13-.18.39c-.1.03-.03-.12-.09-.12-.07,0-.18.07-.24.12-.33.3-.69.78-1.04,1.1-1.12,1.03-2.29,2.03-3.39,3.09-.3.29-.68.6-1,.87-.14.84.4.69.91.34,0,.12-.08.21.07.29,1.18-.4,2.44-.42,3.68-.53.12.12-.08.16-.18.17-.74.09-1.54.09-2.3.19-.18.02-.43.03-.57.14-.04.15.18.1.27.09.78-.06,1.75-.21,2.55-.3.61-.08.68-.43,1.02-.53.27-.08-.18.41.06.36.84-.77,1.73-1.48,2.62-2.2.13-.33.44-.56.62-.83-.05,0-.12,0-.18,0,0-.2.21-.27.36-.36.02-.05-.04-.16.18-.15-.07.2-.12.12-.18.15-.05.1-.12.27-.18.36.07-.01.09-.02.15-.05.03-.02.54-.48.56-.51.07-.09.05-.2.06-.2h-.12v-.18h.12v.18s.13,0,.21-.06c.5-.4.97-.96,1.48-1.37v-.18c-.12.11-.23.24-.36.36-.06.05-.46.4-.5.36.01-.23.29-.31.42-.44h0ZM6.65,62.97v-.06s.04.04,0,.06ZM7.69,63.86c-.14-.14-.31-.28-.48-.38-.25-.14-.41-.07-.53-.45.08-.07.87.46.94.57.05.08.08.17.07.26ZM7.87,64.57s-.02-.12.03-.12c.05.07.13.09.19.14.07.06.2.24.23.33-.04-.11-.42-.32-.45-.36h0ZM8.52,64.99c.23-.03.33.21.48.33-.24-.01-.47-.04-.48-.33ZM10.81,63.68s.04.04,0,.06v-.06ZM10.24,63.03c.11.1.44.14.5.24.05.07-.07.09-.07.15,0,.05.15.15.1.21-.07.08-.62-.49-.53-.59ZM11.05,66.83c-.37-.25-.73-.62-.83-1.07.33.31.66.64.83,1.07ZM9.83,66.23l-.18-.06v-.06h.18v.12ZM9.89,66.35s.04-.1.12-.06c.04.02-.04.1-.12.06ZM9.64,62.65c-.05-.08,0-.13,0-.17,0-.04-.23-.05-.11-.15.08-.07.15.1.19.14.05.07.37.48.34.52-.05.05-.39-.28-.42-.33ZM10.07,66.35v-.12h.24c.07.03-.2.15-.24.12ZM10.13,66.47s.33.1.4.14c.1.06.24.3.31.39-.37.08-.61-.21-.71-.53ZM10.86,67.4c-.5-.49.06-.37.21.11-.05.02-.18-.08-.21-.11ZM13.66,65.88c.09-.02.21.18.2.23,0,.01-.17.13-.2.13-.07,0-.31-.12-.27-.18l.27-.18h0ZM13.51,70.75c-.09-.09.16-.19.21-.24.03.09-.14.3-.21.24ZM13.27,70.93c-.06-.06.12-.24.18-.18s-.12.24-.18.18ZM12.56,65.11c.01-.11.19-.07.24-.04.08.05.04.22.08.31.02.07.21.12.22.14,0,0-.08-.21,0-.15l.42.42s-.13-.02-.18-.03c.02.04.1.22.03.24-.57-.24-.89-.81-1.4-1.16.33-.14.34.16.59.27h0ZM13.21,70.27c.11.18-.29.31-.3.3-.1-.14.1-.38.3-.3ZM13.04,70.15v-.24h.12v.24h-.12ZM11.91,66.77l.3-.24s-.15.11-.09.18c.02.02.26.08.15.18-.01.01-.24-.18-.36-.12ZM12.2,72.74c-.08.07-.12.17-.24.15-.05-.02.17-.16.24-.15ZM11.91,64.16c.08-.08.32.21.24.3-.08.08-.32-.21-.24-.3ZM8.82,71.64c.09.09-.23.24-.27.3-.02-.07.2-.37.27-.3ZM7.75,72.94c-.11.26.03.14.05.18.06.08-.2.27-.27.29-.12.04-.05-.16-.17-.12-.11.1-.59.67-.74.53-.11-.09.31-.3.33-.32.33-.27.38-.42.8-.57.02-.04.08-.28.18-.18s-.13.16-.18.18h0ZM7.99,72.68l.15-.15c.05,0,.04.11.03.12s-.14.04-.18.03ZM8.67,72.42l-.5.42.14-.3.62-.48-.27.36h0ZM9.25,73.25l-.25.09c.18-.21.39-.53.71-.5l-.46.42h0ZM10.38,70.82s-.15.27-.23.34c-.07.07-.17.07-.23.12-.2.17-.38.37-.59.53.09-.21.24-.51.39-.68.36-.43.53-.5.85-1.02.02-.03.34-.32.44-.43.13-.14.28-.28.41-.42l.06.24c.1-.15.21-.17.33-.24.02-.05-.04-.16.18-.15-.07.2-.12.12-.18.15-.36.66-.9.84-1.17,1.38-.04.07-.02.14-.02.22l-.06-.12c-.1-.02-.04.08-.07.11-.02.01-.08-.05-.1-.04h0ZM10.9,72.53c.01-.08.19-.23.24-.18.07.07-.12.24-.24.18ZM10.63,72.77v-.06s.04.04,0,.06ZM10.48,73.42c.08-.12.11-.29.3-.24.01.16-.15.26-.3.24ZM10.72,72.71c-.07-.07.05-.18.12-.12s-.05.18-.12.12ZM10.84,73.78l.54-.5.59-.33c-.35.27-.7.71-1.13.83ZM11.08,73.92c.05-.07.09-.11.18-.09.06.03-.12.11-.18.09ZM11.31,73.75c.09-.14.03-.18.24-.15.04.02-.17.18-.24.15ZM11.87,73.32c-.07.05-.12.17-.23.21.05-.25.46-.45.68-.56-.15.12-.3.23-.45.35ZM13.81,71.46c-.11.2-.7.86-.89.98-.17.11-.46.19-.65.27l.68-.65c.3-.18.56-.43.86-.59.02-.03.07-.29.18-.18s-.15.16-.18.18ZM14.45,70.2c-.18.23-.51,0,.05-.22.02.04-.03.2-.05.22ZM14.84,68.06l-.19-.4c.12-.1.83.63.19.4ZM15,68.31v.18c-.11-.06-.21-.04-.18-.18h.18ZM14.67,70.75v-.06s.04.04,0,.06ZM14.82,70.63s-.1-.04-.06-.12c.02-.04.1.04.06.12ZM15.11,70.27c-.06-.07.12-.23.18-.18.09.09-.17.19-.18.18ZM15.32,70.03v-.06s.04.04,0,.06ZM14.58,69.95c.01-.15.77-.75.83-.68.11.1-.69.69-.83.68ZM15.53,69.83l.09-.09c.06.05-.09.15-.09.09ZM15.35,68.19c.1.2.29.18.48.12v.18c-.13-.02-.31.03-.43,0-.06-.01-.15-.34-.4-.24,0-.11.27-.08.3-.12.01-.02-.18-.43.22-.25.02.01.36.24.37.26.17.21-.46.02-.53.06h0Z"/>
      </g>
    </g>
  </g>
</svg>