<?xml version="1.0" encoding="UTF-8"?>
<svg id="Capa_2" data-name="Capa 2" xmlns="http://www.w3.org/2000/svg" viewBox="0 0 173.34 188.88">
  <defs>
    <style>
      .cls-1 {
        fill: #fbfbfa;
        stroke: #000;
        stroke-miterlimit: 10;
        stroke-width: .2px;
      }

      .cls-2 {
        fill: #dc2e19;
      }

      .cls-3 {
        fill: #0f0e0e;
      }
    </style>
  </defs>
  <g id="Brand_Manual" data-name="Brand Manual">
    <g>
      <g>
        <path class="cls-3" d="M146.86,42.45l1.47-.12c-.27-.42-.66-.34-1.08-.39-3.14-.22-5.86.56-8.88.66-8.41.22-17.07-.51-25.46-.15-.83.05-.76.69-1.4.81-.44.1-1.74.15-2.28.17-2.04.07-4.32.05-6.28-.37-.42-.37-1.32-5.89-1.64-6.94-1.96-6.62-3.97-13.51-6.13-20.11-.29-.93-1.05-1.79-1.05-1.91.05-1.45-.12-.54-.25-1.01-.47-1.86-.71-4.37-1.01-6.33-.2-1.28-.47-2.53-1.94-2.6.76,1.67.07,3.07.27,4.76.12,1.03.81,1.81.47,2.84-.96-.34-.61-1.25-.83-1.96-.37-1.13-1.13-3.38-1.35-4.54-.32-1.72.64-2.16.49-3.19-.07-.49-.32-.69-.42-1.03-.1-.32.44-1.01-.44-1.05-.74.96-1.69,1.81-2.28,2.87-.76,1.35-.83,3.04-1.47,4.41-.54,1.2-1.57,2.04-2.01,2.94-1.57,3.09-1.2,7.16-3.04,9.93-.29.44-.64,1.35-1.13,1.57.47-1.45,1.55-3.43,1.72-4.9.05-.52-.2-.47-.37-.12-.22.42-1.74,4.27-1.79,4.61-.2,1.32.02,1.94-.61,3.53-2.04,5.17-4.32,10.37-6.2,15.65-.22.86.83,2.23-.59,1.96l.49.86-5.54.34c-1.05-.54-5.35.22-5.74-.59l.49-.61h-.98l.25-.98h-2.7c.54.81,1.99.27,1.35,1.72-1.13-.05-2.75-1.1-3.7-1.23-.66-.07-1.18.27-1.69.25-.42-.02-.74-.42-1.03-.44-.39-.05-1.32,1.1-1.79-.05l.98-.25c-.39,0-.88.1-1.25-.12-.25-.15.51-.74-1.32-.86-3.34-.22-7.14.22-10.55,0-3.51-.22-7.11-1.28-10.79-1.25-.56,0-1.05.12-1.59.27.69,1.25,2.67.17,3.29.22.17,0,.2.51.56.69,1.72.88,4.9-.32,6.45.42.12.05.32.32.25.37-1.23-.54-1.64.66-1.86.71-.61.15-3.7-.44-4.9-.22-.61.12-.51.69-.78.74-.47.12-2.4-.15-2.53,0,0,2.6,2.33,2.87,4,3.97,3.43,2.21,5.44,4.76,8.41,7.04,3.51,2.67,6.87,6.16,10.32,9.1.83.71,3.51,2.84,4.32,3.21.34.15,1.05.42,1.32.2.05-.05.51-1.2.49-1.28-.1-.61-1.37-.96-1.69-1.28-.42-.42-1.03-1.84-1.84-2.58-.47-.42-1.35-1.18-1.47-.25l-1.1-1.47c.34,0,.76-.07,1.1,0,.17.05,2.94,1.55,3.19,1.72,1.15.78,2.7,3.07,4.14,4.07,1.72,1.2,1.13.34,1.37-.15.17-.32,3.19,2.38,3.43,2.58l-2.33-.86.12.98c-1.32.37-1.64-1.23-2.35-1.69-.96-.61-1.94-.05-1.47.71.29.47,4.05,2.94,4.81,3.43-.42.76-3.8,6.28-3.43,6.62.29-.02.71.1.93-.05.59-.34,2.43-6.55,3.85-6.57.76,0-1.55,3.65-1.69,3.95-1.03,2.31-1.03,2.38-2.35,4.51-2.55,4.17-4,9.59-6.28,14.08-.59,1.18-1.67,2.16-1.81,3.46l-.12-1.47c-1.52,1.25-1.69,3.16-2.33,4.9.39-.07.81-1.47.98-.37-1.28,2.18-1.35,5.27-2.7,7.36-.69,1.08-2.01,1.64-2.21,2.97-.07.49.34.52.49.37.05-.05,0-1.13.49-.86-.1.93-1.01,1.57-1.23,2.45-.07.32.05.49.34.34.69-.29,3.46-4.81,3.31-5.89,1.23-.07-.25,2.08.37,2.7.66-.44,2.55-3.11,3.07-3.31.1-.02,1.5-.02,1.23.47-.27.54-1.1.29-1.23.37-.02,0,.22.42.15.74-.54,1.99-3.56,1.69-4,2.5-.15.27-.05.88-.25,1.35-.29.71-1.42,1.25-1.67,2.28-.12.54.17,1.13-.1,1.72.64.59,4.46-2.89,5.17-3.29.27-.15,2.04-.93,2.38-1.05.39-.15,1.01.05,1.3-.17.25-.17.15-.74.27-.83.17-.15.74.07.91-.05.05-.05.1-.81.42-1.2.25-.29,3.43-2.89,3.68-2.94.66-.15.2.86.49.74l4.29-3.8.25-.61-.61-.25c4.88-3.09,9.07-7.19,13.68-10.59.39-.29,2.11-1.32,1.4-.12l-4.61,3.68c-.12.27.2.66.2.93.49-.22.37-.25.71-.47.15-.1.49,0,.51,0,.12-.1-.34-.78-.22-.96.07-.1,1.62-.93,2.01-1.25,2.04-1.72,4.07-3.53,6.06-5.3,1.5-1.32,2.72-1.81,4.54-2.58.98,0-.2.74,0,.98,2.31.86,4.22,2.6,5.52,4.66-.64.52-4.46-3.75-5.64-4.07-.66-.17-1.74.88-1.47,1.13,1.1-.47,1.52-.12,2.43.39,2.35,1.35,3.43,3.65,6.16,5-.12-.27-.12-.66-.49-.86.74-.25.37-.25.37-.86.59.52,1.77.88,2.04,1.64.1.29-.05.76.12.98.02.05.83.1.42.54-.12.12-.96-.32-.74.49,2.8,1.79,5.1,4.29,7.48,6.62,1.84-.81-1.59-1.42-.74-2.7,1.05.54,3.56,3.48,4.29,3.8.34.15.69-.22,1.1.1.51.39-.17,1.03.47,1.52.34.27,1.67.56,2.28.91.49.27,2.43,1.77,2.7,2.08.49.54,1.03,1.84,2.04,2.28.39.17.78-.12.98,0,.12.07,1.89,1.84,1.96,1.96.49.76.81,2.8,2.28,2.33.25-.07,0-.78,1.45-.2.29.12.15.91.81.25,1.08-1.08-1.2-3.04.71-3.21l1.62.86c-.07-1.18-.78-1.45-1.32-2.11-.22-.25-.2-.74-.49-.98-.64-.54-2.21-.05-1.86-1.69.51-.12.64.44.98.59.47.2,1.13-.05,1.59.88.25-.15.15-.81.07-1.05-.44-1.3-2.01-2.55-2.55-3.58-2.55-4.83-3.78-11.35-6.11-16.46-1.3-2.89-2.06-6.08-3.14-9.12-.49-1.4-1.42-3.04-1.81-4.56-.39-1.42-.39-2.87-.78-4.32l.71-.39c0,1.2.51,2.48.91,3.63.15.39-.12.66.56.54,0-2.4-.78-2.5,1.1-4.17,4.81-4.24,10.57-6.47,15.99-9.52.29-.17,1.47-.49,1.52-.56.88-.93-2.23.02-2.45.12-1.52.66-1.94,1.91-3.85,2.28-.56.1-.93.25-.81-.44,2.5-1.3,5.03-2.75,7.38-4.27,3.56-2.31,5.74-3.68,9.52-5.69,1.37-.74,2.55-1.84,3.95-2.55.05-.44-.56-.25-.78-.17-.54.17-1.25.93-1.91.56l4.34-3.38c-.12-.44.61-1.32.56-1.4-.05-.1-.96-.1-.74-.74l.05-.02ZM42.63,53.73c-.32.29-2.23-1.13-2.21-1.72.59-.25,2.58,1.37,2.21,1.72ZM42.38,40.98c.74-.1,5.81.17,6.13.49.25.25.05.51-.37.49-.78-.05-1.64-.42-2.45-.49-.96-.07-2.04.12-2.94,0-.37-.05-.76-.2-.37-.49ZM48.39,59.62c-1.18-.34-2.6-2.5-3.83-3.04-.05-1.25-.42-1.42-1.2-2.33,2.26-.47,2.6,1.99,3.68,3.31.27.34.64.44.88.71.22.22.81.71.83.76.1.27.1.74-.37.61v-.02ZM59.31,46.87c.02.17.34.44.25.74h-1.84l-2.08-1.47c.76,0,1.52-.07,2.28.05.61.1,1.1.61,1.4.69v-.49c.47-.27,6.01,0,4.9.98-1.55-.39-3.38-.15-4.9-.49ZM55.14,96.16c.17,1.3-.88,1.1-1.47,1.96-.54-.98.44-1.96,1.47-1.96ZM56.34,104.62c-1.1.98-.56.54-1.35,1.59-.42.56-1.05,1.28-1.59,1.72-.29-1.3.56-1.67,1.08-2.48.61-.96.64-.91,1.25-1.69.27-.32,1.4-2.38,1.84-1.99.56,1.47-.25,1.91-1.23,2.82v.02ZM60.29,104.74s-.51.1-.49-.12c.39-.66.76-.17.49.12ZM58.81,86.59c-.15-.15,1.42-2.82,1.67-3.11.22-.29.29-.66.78-.56.2.22-1.64,4.44-2.45,3.68ZM61.51,98.37c.96-.81,1.74-1.79,2.6-2.67.25-.27.37-.61.83-.52-.42,2.13-.98,3.41-3.43,3.19ZM68.75,94.22c-.71.69-3.24,2.4-3.31,3.19h.49c.12.71-.56.81-.49,0h-.49c0-.2-.02-.39.05-.56.07-.17,1.96-2.77,2.16-2.99.64-.69,1.77-1.05,2.7-1.1.27.25-.88,1.28-1.1,1.47ZM69.11,69.67c-.39-.37,1.2-1.5,1.72-1.23.37.34-1.4,1.52-1.72,1.23ZM72.18,81.2v-.25c.15.07.15.17,0,.25ZM77.92,77.4c-.59.27-5.1,3.85-5.37,3.58-.1-.47.27-.59.49-.86.47-.54,3.63-3.02,4.27-3.34.39-.2.69-.29,1.13-.22l-.51.83ZM78.19,35.34c-.54.61-.91,1.64-.98,1.72-.81.78-.22-1.86-.25-1.96l-.74.37.64-2.06,1.57-1.47c.69,1.32-.22,2.16-.25,3.43.27-.32.51-.81.98-.74.25.29-1.03,2.7-.98.74v-.02ZM78.68,41.96c-.07-.07.91-1.69,1.47-1.47.1.81-.66,1.57-1.47,1.47ZM81.62,25.77c.07,1.2.42,1.35-.98,2.21,0-.49.2-1.69.47-2.06.2-.27.37-.1.51-.15-.05-.59.22-.93.74-1.23-.22.98,0,.96-.74,1.23ZM82.85,24.3c-.07.17-.42-.15-.25-.49.07-.17.42.15.25.49ZM122.94,104.28c.61.49.96,1.15.86,1.96-.47-.32-1.69-1.42-.86-1.96ZM121.6,112.1c.27.27-.22.76-.49.49s.22-.76.49-.49ZM116.99,105.18c.27.15.64.02.93.05v.25c-.91-.22-.12,1.18-.86.98-.69-.2-2.55-1.28-2.55-2.08,1.32-1.67,1.96.52,2.48.81ZM111.54,95.91l1.23,1.23c-.59-.39-1.47-.27-1.23-1.23ZM129.44,44.17l-.49.98,1.59-.25c.59.83-2.92,1.59-3.07,1.47.32-.88.78-2.31,1.96-2.21ZM129.44,46.37c.05,1.18-.64,1.2-1.23,1.72.25-.25,1.13.47.37.74-.51.2-.44-.64-.37-.74-.56.52-1.03,1.2-1.96,1.23-.12-1.99,1.74-2.35,3.19-2.94ZM121.84,49.56s.12.59-.17.74c-.1.07-1.96.81-2.04.74v-1.23c.47.25,2.13-.32,2.21-.25ZM119.63,46.13l-.25,1.96c-.96.02.05-1.1-1.47-.74-.44-.32,1.45-1.23,1.72-1.23ZM118.29,50.54l.61.37c0,.17-.54.29-.66.44-.22.27-.25.81-.34.88-.29.2-1.47-.05-1.94.02l2.33-1.72ZM115.71,52.75l2.21-.25c.25.27-1.55,3.31-2.21,2.7-.27-.81.96-1.5.98-1.59.25-.76-1.25.1-.98-.86ZM112.77,58.15l-1.37,1.45c-2.55.91.25-1.4,1.37-1.45ZM101.85,54.25c.25.22-.37.61-.37.37l.37-.37ZM98.79,38.16c0-.22.44-.17.49-.12.34.32.93,3.68.98,4.41-.76.15-.37-.25-.51-.59-.42-1.05-1.01-2.58-.96-3.7ZM95.85,27.98s.15.74.37.74c.07,0,.88-.98,1.1-.12.22.81-.71.74-.76,1.01-.17,1.25,1.37,2.92,1.25,4.24-.56.17-.74-.56-.91-.93-.27-.66-1.59-4.41-1.55-4.83,0-.22.44-.17.49-.12v.02ZM95.36,42.7c.02.86-.49,1.84-1.47,1.72l1.47-1.72ZM94.62,40.49c-.27.02-.54-.83-.59-1.01-.1-.42-.22-.76-.15-1.2.83.39.76,1.45.74,2.21ZM93.88,37.55c.27.27-.22.76-.49.49s.22-.76.49-.49ZM91.19,46.37c-.27.34-2.33,2.6-2.7,2.21-.51-.54,2.08-2.35,2.7-2.21ZM88.49,53.24l-.51.83-2.67,2.11c-.64-.76,2.16-3.24,3.19-2.94ZM88.98,35.83s1.18,0,1.47-.49c.42.81-.25,2.31-1.25,1.62-.27-.2-.32-1.03-.22-1.13ZM90.38,10.28c.17.34.32,1.59.05,1.77-1.42.93-1.01-3.65-.05-1.77ZM88.22,28.82c1.32-.25,1.35,1.77,1.23,1.86-.47.47-.81-.49-.86-.49-.83-.2-.74.71-.98.74-.32,0-1.01-1.81.61-2.11ZM87.02,23.57c-.02.71.32,1.99-.74,1.96.02-.71-.32-1.99.74-1.96ZM85.91,19.15c.2-.32-.05-.61.61-.49.34.54-1.01,2.94-1.47,2.45.12-.64.54-1.4.86-1.96ZM87.51,55.69c.32.27-2.11,2.82-2.45,2.45-.44-.47,1.99-2.87,2.45-2.45ZM84.32,83.41c-.37-.39,1.05-1.28,1.47-1.1-.12.34-1.03,1.54-1.47,1.1ZM89.35,61.85c-.69,1.4-2.33,1.52-3.09,2.06-.2.15-2.08,2.01-2.18,2.13-.05.07.56,1.2-.51,1.45-.1-1.28.42-1.94.86-2.94.27-.59,0-1.89.98-.49,1.08-1.62,2.87-2.82,4.14-4.19,1.79-1.91,3.41-3.95,5.17-5.86.37-.39,2.77-3.65,3.31-3.19-2.55,3.95-6.13,7.14-8.71,11.04h.02ZM97.32,68.69c-.17-.17,1.03-3.09,1.72-2.45-.07,1.03-.44,2.4-1.72,2.45ZM97.69,59.13c-.22-.02-.15-.56-.12-.74-1.25.71-1.69,2.33-3.19,2.58.81-.66,2.87-4,3.56-4.29.88-.37-.32,1.42-.37,1.72l1.72-1.47c.22,1.25-.88,1.55-1.59,2.21ZM99.45,56.7s-.66-.56-.66-.61c.05-.27,1.08-1.99,1.47-1.59l-.49,1.23c.47.2,1.18-1.08,1.47-.74.54.61-.93,1.89-1.79,1.72ZM105.78,98.86v-.25c.15.07.15.17,0,.25ZM107.62,99.35c-2.06.15-1.18,0-1.59-1.23-.25-.76-.34.54-.98.25-.32-.15-.42-.91-.71-1.25-.34-.37-3.19-2.21-2.84-2.67,2.06-.74,4.02,1.89,5.22,3.34.37.44,1.18.44.91,1.55v.02ZM105.16,56.43l.98-1.35,1.23-.37c-.44,1.18-.91,1.55-2.21,1.72ZM108.6,78.26c-.42.17-1.13-.98-1.18-1.15-.12-.42-.05-.86-.05-1.3.74.61,1.42,1.45,1.23,2.45ZM105.16,47.36c-.42-.32.02-.44.37-.49.71-.1,2.28.22,2.33-.74h.25c0,.12,0,.37.07.42.25.15.98.27,1.32.29.51.05,1.89-.59,1.81.52h-6.16ZM116.3,63.79c-1.94,1.57-4.24,2.62-6.01,4.41-.32-1.99,2.53-2.53,3.68-3.78.39-.42.44-.98.74-1.23.32-.32,1.08-.39,1.55-.66.78-.47,1.37-1.32,2.38-1.18.32.27-2.04,2.21-2.33,2.45v-.02ZM118.16,60.11c-.07-.07.54-1.52.64-1.69.1-.2.49-.17.59-.44.07-.25-.07-.69,0-.81,0-.02.37.22.71.12.39-.1.98-1.15,1.25-.86.17.2-2.04,4.27-3.19,3.68ZM121.15,53.73c-3.16,1.45,0-.78.15-1.01.39-.69-.66-1.13,1.52-.93l-1.67,1.94h0ZM122.82,61.58c.12-.44,1.08-.64,1.47-.74-.15.47-1.03.76-1.47.74ZM123.07,47.36c.39-.81,1.05-1.13,1.96-.98-.32,1.08-.96,1.08-1.96.98ZM126.92,54.05c-.47.29-1.05.07-1.5.2-.2.05-.17.42-.2.44-.27.17-.69-.22-.69-.32,0-.22,3.02-1.99,3.41-2.48l3.7-.59-4.73,2.75h0ZM141.21,47.36c-1.28.49-6.03,3.46-7.11,2.48-.51-.47,1.25-.61,1.62-.96.32-.34.34-.96.59-1.13.59-.39,2.48-.83,3.51-1.59,1.08-.81.61-1.23.88-1.59.17-.22,1.62-1.01,1.74-.86.51.61-1.96,2.72-1.23,3.65Z"/>
        <path class="cls-3" d="M114.14,40.42c3.19.15,6.25.44,9.52.59,2.62.12,7.36.32,9.83,0,.27-.02,1.23-.96,2.48-.98,1.42,0,1.03,1.08,2.97-.44.2-.15.44,0,.32-.56-.64-.05-1.2.22-1.84.25-5.44.22-10.77-.17-16.19-.27-2.7-.05-7.99-.37-10.35.47-.25.1-.71.15-.34.51.15.12,3.09.37,3.6.39v.05Z"/>
        <path class="cls-3" d="M122.6,101.65c.05.27.37.98.56,1.15.98.78.76-.07.98-.42.07-.1.34-.07.39-.25,0-.07.02-1.35,0-1.42,0-.25-.47,0-.76-.29-.29-.27-.93-2.01-.71-2.31l.74.25-.49-1.72-.74.98c0-.86-.61-1.84-.74-2.6-.2-1.28-.12-3.16-.32-4.39-.47-3.07-2.97-9.81-4.24-12.88-.25-.56-.59-1.5-1.35-1.47.27.69-.05,1.28.1,1.96.47,2.38,2.7,6.28,2.84,8.73.02.44-.47.29-.51.49-.2.93.69,1.42,1.01,2.16,1.15,2.72,1.55,6.33,2.82,9.2.27.61,1.1,1.55,1.32,2.11.27.74-1.1-.05-.96.71h.05Z"/>
        <path class="cls-3" d="M61.14,41.96c.91.25,3.95,0,5.15,0s.93.71,1.03.74c.88.25.74-.37,1.01-.47.49-.2,1.55.15,1.55-1.01-3.02,0-6.06-.05-9.07.25,0,.15.29.47.37.49h-.02Z"/>
        <path class="cls-3" d="M113.97,76.93c0,1.2,1.35,2.8,1.89,4,.56,1.28.86,2.75,1.42,3.97.17.37-.02.61.61.49-.86-2.01-1.3-4.61-2.16-6.55-.37-.86-1.13-1.35-1.28-2.28-.47-.02-.49-.12-.49.37Z"/>
        <path class="cls-3" d="M58.32,77.77c-.2-.22-.76.15-.98.37-.74.71-1.57,3.92-1.96,5.03,1.05-.88,2.18-2.99,2.7-4.27.1-.27.42-.93.22-1.1l.02-.02Z"/>
        <path class="cls-3" d="M53.42,88.56c-.07-.05-.56-.07-.76.15-.78.96-1.28,4.02-1.94,5.25.22-.02.59-.54.71-.71.34-.56,2.33-4.41,1.99-4.68Z"/>
        <path class="cls-3" d="M116.45,75.31c.32-.32-.69-3.14-1.72-2.94-.29.69,1.01,3.63,1.72,2.94Z"/>
        <path class="cls-3" d="M143.3,40.49c.61,0,.86-.98.49-.98l-2.65.29-1.89.69h4.05Z"/>
        <path class="cls-3" d="M54.16,73.6c-4.19-.49-8.44-.12-12.63-.25-8.8-.25-17.68-.76-26.46-1.01-1.13-.02-2.6-.1-3.7,0-.44.02-.96-.05-1.08.49l6.38.49c.25,1.03-1.3.05-1.47.74h4.17l-.25-.49c1.74.05,3.48.1,5.22.15,2.31.07,4.61.29,6.92.37,1.1.02,1.64-.37,2.82.12.39.17.61-.02.49.59-3.63,0-7.28.42-10.91.42-4.81.02-9.83-.34-14.47-.64-2.4-.17-4.78-.78-7.23-.51l1.47.49c-1.45,0-2.82-.12-3.31,1.47-.07.27-.25.37.12.61.98.61,4.17.27,5.49.39.25.02,1.15.1,1.13.47-1.28.47-2.82,0-4,.74-.37.25-1.72,1.72-1.4,2.21.34.49,3.53.32,4.22,0,.29-.12,0-.59.54-.49.22.05.05.34.29.49.49.27,2.04.15,2.6,0,.32-.07,0-.59.42-.49l.25,2.45c-2.08.05-4.17.17-6.25.25-.34,0-.76.27-.96.27s.07-1.1-1.08,0c-.34.78,1.42,1.13,1.91,1.2l-.49.25c-.07,1.25,1.79.34,2.21,1.23-.66,0-1.47-.05-2.11.2-.44.17-.39.52-.59.64-.78.52-1.52.12-1.47,1.86.74.37,1.15-.25,1.84-.27,5.25-.2,10.64.61,15.94.76.39,0,.91.32,1.2.22.42-.12.25-.78.56-.98.42-.27,2.26-.47,2.53.25h-1.23v.74c1.25.05,2.55-.07,3.8,0,5.35.27,10.62.69,15.92.74,1.18,0,2.89.71,3.56-.22l-5.52-.25-9.44-.61c.32-.47.59-.34,1.03-.32,4.59.22,9.17.52,13.76.64l.42-.44-11.77-.49c.12-.44,1.2-.47,1.59-.49,2.31-.17,5.74-.07,8.12,0,.86.02,5.98.69,6.23.47.59-1.13.61-2.28.93-3.36.29-.98,1.47-2.55,1.79-3.61.22-.71-1.08-.22-1.23-.37-.07-.07.05-1.18,0-1.47.42-.07,1.74.15,1.94-.02.02-.02.32-.91.27-.93-.51-.51-.39.61-.74.49.27-1.13-.49-.44-.74-.98l1.47-.49c-1.45-.29-2.92-.56-4.41-.49l.74-.49c-1.18-.02-2.38.02-3.56,0-2.21-.05-4.37-.34-6.62-.49-1.13-.07-2.31.05-3.43,0-.29,0-.91.2-.86-.25,1.01-.07,2.06.1,3.04-.02.34-.05.96-.15.88-.47l-.98-.25c1.13.2,2.31-.17,3.34-.22,1.96-.07,6.99-.27,8.83-.02.51.07,1.03.54,1.08.51.05-.05,0-.56.39-.69.25-.07,2.43.1,2.55-.05.05-.05-.02-.54,0-.74v-.02ZM7.07,85.61c.32-.56,1.64-.1,2.21-.25-.34.56-1.64.1-2.21.25ZM9.64,85.12v-.25c.15.07.15.17,0,.25ZM19.33,79.24l1.47-.49-.74-.74c2.43.32,4.68,0,7.11,0l-.25.49.74.25c-2.77.07-5.52.83-8.34.49ZM31.35,75.56c1.01.34,2.6-.78,3.19.25-.78,0-1.57.02-2.33,0-.29,0-.91.2-.86-.25ZM36.25,84.14c.12-.74,2.55-.88,2.7-.74v.74h-2.7ZM43.36,77.77v.74c-1.13.56-1.84-.44-2.31-.47-.88-.05-2.67.44-3.68.49l-5.76-.37c3.85-.78,7.87-.12,11.77-.37l-.02-.02Z"/>
        <path class="cls-3" d="M7.44,43.68c-1.23.32-3.65-.22-5.03,0l.1,1.01c1.59.44,3.51,0,5.17.22.25.02,1.03,1.18,1.57.27l-.98-.25c3.34-.44,6.3.88,9.56.74,0,.37-.88.44-1.13.47-2.11.25-4.1.02-6.06.12-2.58.12-5.17.47-7.77.39-.49.69,1.67.69,1.96.86.37.22.78,1.84,1.1,1.84h8.71v.74h-4.54c-.27,0-4.73.81-4.98.91-.22.1-.25.37-.39.49-.17.15-.59,0-.66.22-.42,1.4,1.25,1.5,2.33,1.59,1.3.1,3.11-.29,4.14-.17,3.48.34,7.09.05,10.32.42.56.07,1.64.2,1.59.98-1.86.12-3.7-.39-5.52-.49-2.16-.12-4.24-.05-6.35,0-1.18.02-2.38-.05-3.56,0l.98,1.96c-.15.2-3.83.34-3.19,1.23l33.11,1.47c.1-.42-.12-.49-.37-.74-3.07-2.99-7.55-2.06-11.4-2.94.17-.2.81-.98.88-1.01.96-.1.78.93.83,1.01.07.1,1.84-.47,2.33-.44.66.02,1.55.56,2.26.64.25.02.76.2.56-.32-.27-.64-2.58-1.72-3.31-2.33-1.4-1.2-2.43-2.67-4.07-3.78-.86-.56-2.87-1.2-3.31-1.59-.44-.37-.29-1.01-.34-1.01h-3.43c-.02-.56-.07-.44.37-.49.91-.12,3.65.37,3.8.25.54-.47-1.03-.69-1.25-.91-.29-.29-.42-1.28-.61-1.32l-5.35.2c-.88-.61-1.5-.32-2.48-.17l-3.07-.49c1.13-.81.47-.27.78-.07.37.22,1.67-.2,2.28-.2,2.06-.05,4.22-.05,6.13-.1.78,0,1.79.22,2.58.37.17-.74-.44-.34-.83-.74-.15-.15-.12-.81-.61-.47-.02,0,.05.42-.17.47-.54.15-1.45-.1-2.04,0l.74-.74c-1.45.32-3.04-.29-4.54-.25-2.08.07-4.37.86-6.5.74l1.72.49-6.38.25c-.39.29,0,.44.37.49,1.45.2,2.87-.29,4.29-.25,0,.15-.29.47-.37.49v-.05ZM21.54,49.07c.07.25-1.03.49-1.1.49h-3.56c-.1-.64.1-.44.54-.56,1.37-.39,2.7.29,4.12.07Z"/>
        <path class="cls-3" d="M163.9,48.58c-3.19-.37-5.91-.44-9.12-.88-1.42-.2-2.82.15-4.24.15v.74c.15,2.11,1.15,1.03,2.58,1.03,2.21,0,5.25.42,7.38.22.98-.1,2.16-.54,3.38-.42.59.05,1.23.59,1.99.44.25-.05-.15-1.08.86-.76-.49-.86-1.91-.39-2.82-.49v-.02ZM151.39,48.34v-.25c.15.07.15.17,0,.25Z"/>
        <path class="cls-3" d="M150.78,45.66c-.07.44-.71.05-.49.98,3.95-.2,8.02.34,11.89-.49.22-.02,3.21.17,2.33-.49h-9.07l5.4-.74c-1.13-.74-2.28.2-3.09.22-.1,0-.07-.47-.27-.49-.42-.07-2.45.34-2.55.27-.39-.44.22-.86.74-.86-.93-.54-.1-1.42-1.35-1.1-.34.1.2.64.12.74-.15.17-3.85,1.08-4.41.98-.1.64.12.91.74.98h.02ZM155.68,46.13c-.05.54-1.69.2-1.72-.25l1.72.25Z"/>
        <path class="cls-3" d="M149.19,58.88c-.98-.27-3.14.2-4.29,0v.74c.61-.22,4.49.15,4.66,0,.15-.12-.17-.69-.37-.74Z"/>
        <path class="cls-3" d="M167.21,55.69c-2.38.12-1.3,0-1.59-.71-.59-1.5-1.45-1.01-2.4-1.3-1.84-.54,1.13-1.4,1.91-1.18.1-.1-.15-.66-.17-.69-.64-.49-6.18-.49-7.31-.54.17-.34,1.2-.39,1.62-.47.34-.07.71-.02,1.08-.02.05-.61.05-.42-.37-.49-1.74-.25-2.43-.29-4.1.27-.17.05-.17.42-.37.47-1.1.25-2.84.17-4,.25l.74-.74c-1.18.34-1.15-.74-2.21-.49l.37.74c-.47.07-.74-1.23-1.35-.74-.74.59.91.12.49.61-1.32.1-.37.71-.49.86-.1.12-2.67.69-3.04.96-.25.2-.02.56-.32.76-.71.47-2.43.44-3.24,1.13l-.34-.15c.49.05.54-.91-.02-.74-.81.25-1.59,1.32-2.58,1.23l1.47.37c0,.22-.96.27-1.23.49s-.2.56-.25.61c1.45-.02-.12.76-.98.98-.59.52-1.64.91-1.72.98-.25.25-.05.52.37.49,1.05-.07,2.18-.44,3.31-.25l-.74-.49c2.4-.22,4.83-.15,7.23-.25,4.32-.17,8.83-.34,13.24-.49,2.08-.07,3.48.34,5.42-.49.2-.07.07.47.25.52.81.15,1.55-1.3,1.35-1.47l-.05-.02ZM140.23,56.18l1.72-.98c-.29.56-1.13.88-1.72.98ZM146.34,54.74s.1.59.25.74c-2.84.88-.81-1.18-.25-.74ZM157.65,56.67l3.07-.49c1.05.17,2.84-.49,3.56.49h-6.62Z"/>
        <path class="cls-3" d="M141.06,75.24h-6.58c-.08,0-.64.56-.6.8h6.18c.24,0,1.35-.64,1-.8Z"/>
        <path class="cls-3" d="M131.1,45.66c-.24-.08-.64.08-.8,0-.16,1.32,1.04,1.2.8,0Z"/>
        <path class="cls-3" d="M159.43,86.24c.8-.24.72-1.04,1-1.04.52,0,1.12.4,1.59.4,1.35-.08,2.71-.64,4.14-.36.36-1.55-2.55-.44-2.79-1.59,1.08.08,3.59.36,3.15-1.35-.28-1.2-4.18-.4-5.3-.64-.32-.08-.32-.72-.76-.92-.76-.32-10.48-.72-12.03-.68-1.2,0-8.21,1.24-8.61.8-.68-2.91,2.71-1.2,4.58-1.16,3.87.12,5.06-.6,8.85.36,2.27.56,4.38-.96,5.98-1.12.6-.04.84.72,1.51.76.36,0,0-.72.4-.8.92-.2.48.56.68.68.32.2,2.35.24,2.83.12.96-.24-.28-.48,2.47-.4,2.07.08,4.1-.04,6.18,0-.08-.44.12-1.87,0-1.99l-47.42-.2c.2,1.87,3.59.84,3.91,1.04.16.12.2.76.48.92.36.24,5.46.4,6.69.52.52.04.8-.16,1.28-.32-.16,1.91-1.95,1.35-2.95,1.59-.4.08-.24.76-.28.8-.24.2-.92-.96-1.2-.8,0,0,.08.6-.28.8-.68.4-1.79.32-2.51.8l.2-1.2-2.59.4.4.8-2.39.4c-.16.16.28,2.31.4,2.39.4.28,4.94-1.32,5.34-1.24.36.08.32.96.88,1.16,1.04.36,2.95-.12,4.14.08l-.8.8c5.22,1.04,10.44.44,15.74.4,2.43,0,4.26.6,7.01-.16l.08-.04ZM162.98,83.61l-3.87,1.04-3.31-.24c.12-.76.64-.6,1.16-.68,1.95-.32,4.06,0,6.02-.12ZM155.8,81.62c1-.12,2.11,0,1.99,1.2h-1.99v-1.2ZM154.81,78.83c.24.12.24.28,0,.4v-.4Z"/>
      </g>
      <g>
        <path class="cls-1" d="M92.65,167.36c-.44-.47,1.73-1.37,2.11-1.73,2.85-2.74,2.96-8.12-.63-10.29-5.49-3.29-11.44.14-17.11.52l1.65.69c-.47.8-2.36.33-2.44.41-.05.03-.33.96-.27,1.07.14.22,1.34.33,1.34.85-.63.22-1.04.36-1.65,0-.44,1.65,1.45,1.32,2.47,1.81.05,2.96-.82,5.84-1.1,8.75-.27,2.8-.27,5.7-.55,8.5-.16,1.65-1.12,5.16-.77,6.53,0,.08.69,1.51.77,1.56.14.11.96-.66,1.1-.55.41,2.28,1.15.66,2.06-.27-.33.93.38.91.88,1.65,4.25-.82,9.33-1.81,13.06-4.17,1.65-1.04,4.85-3.51,5.32-5.38,1.32-5.18-1.84-8.09-6.25-9.96h.03ZM84.15,159.54c.36-.3,2.88-1.12,3.46-1.21.58-.08,3.92-.14,4.17,0,.14.08.63,1.43.6,1.73-.14,1.54-7.19,5.73-9.05,5.62-.22-.25.47-5.87.82-6.17v.03ZM89.58,178.44c-1.29.66-5.6,2.72-6.72,1.29-.3-.38.19-1.07.16-1.54-.05-.91-.44-1.7-.3-2.77.11-.74.71-1.87.82-2.74,1.01-.66,8.06-.52,9.27.08.44.22.49.69.69.8.36.22.88.27,1.29.36.77,1.1-4.36,4.06-5.24,4.5l.03.03Z"/>
        <path class="cls-1" d="M73.52,171.34c.03-.16-.41-.08-.52-.33-.41-.91.05-1.92,0-1.97-.08-.14-.85,0-.96-.05-.19-.08-.11-.91-1.23-.33-2.14,1.87-4.28,3.84-6.17,5.9-1.7-1.73-3.54-3.29-4.77-5.4.52-.96,1.87-1.87,2.63-2.66,2.44-2.58,5.02-5.29,4.09-9.24-.52-2.25-3.43-3.4-5.51-3.29-.66.03-1.1.47-1.67.55-3.43.44-5.46.49-7.95,3.29-3.46,3.89.14,6.8,1.26,10.83-1.97,1.15-3.92,3.04-5.35,4.85-1.92,2.47-2.8,3.95-2.33,7.21.44,3.24,4.14,4.47,6.97,4.5,1.54,0,5.21-.82,6.45-1.73.27-.19.19-.69.47-.96.63-.66,2.72-.88,3.51-1.65.3,0,2.19,2.28,2.74,2.74.82.69,1.56,1.15,2.47,1.92,1.37,1.18,1.23,0,1.4,0,.36,0,1.29.58,1.73.25.19-.14.25-1.29.3-1.34.27-.22,1.26.38,1.65.14,1.1-.71.08-1.04,0-1.18-1.04-2.03-1.4-1.87-2.61-3.37-.36-.47-1.84-2.66-1.76-3.1.19-.96,4.8-3.73,5.16-5.54l.03-.03ZM55.28,161.35c.08-.22,1.73-2,1.97-2.14,1.51-.82,5.4-1.56,4.06,1.32-.22.47-3.32,3.81-3.81,4.14-.27.19-.6.41-.93.22-.33-.19-1.48-2.93-1.26-3.51l-.03-.03ZM59.23,177.75c-.14.25-4.28,2.3-4.83,2.44-1.7.41-4.8.58-4.44-1.97.14-.96,3.87-4.61,4.83-5.05.47-.22,1.23-.55,1.7-.25.19.11.93,1.84,1.21,2.22.38.55,1.95,1.95,1.56,2.61h-.03Z"/>
        <path class="cls-1" d="M147.5,183.95c-2.39-2.88-4.22-6.2-6.47-9.16-.36-.47-1.97-1.87-2.03-2.11-.08-.41.25-.44.44-.63.77-.74,2.99-1.4,3.59-2.03.14-.16,0-.55.27-.77.47-.41,1.56-1.01,1.92-1.45,2.69-3.15,1.97-8.09-.19-11.27-1.84-.52-3.32-1.76-5.18-2.22-2.47-.58-6.28-.3-8.75.33-1.45.38-3.21,2.14-4.85,2.55.47.99.66,1.29-.14,2.19h2.19c-.22.63.25,1.04.3,1.76.33,6.72-1.7,15.14-1.95,21.97,0,.66.11,1.15.27,1.76.38-.08.8-1.37,1.37-.82.19.19-.58,1.56-.14,1.92l.16-.49c.69.38,1.01-.3,1.48-.33.25,0-.05,1.23,1.84.52,1.62-.63,1.32-6.23,1.32-7.79l.55-3.43c.27.82,1.15,1.4,1.65,2.06.93,1.23,1.56,2.41,2.41,3.59,2.03,2.8,2.66,4.25,5.43,6.25.25.19.66.93.71.93.27.11.63-.25.88-.19.36.08.49,1.15,1.73,1.26,1.7.19.99-1.54,1.56-1.59l2.06.82c.14-1.92-1.45-2.5-2.47-3.7l.03.08ZM128.58,181.07c0-1.12.11-2.3.27-3.43.08-.47-.14-.47.55-.41-.03,1.15.14,3.02-.82,3.84ZM133.51,169c.49-1.87.3-8.09,1.51-9.33.71-.74,6.28-.05,6.88.82.38.55-.16,2.47-.55,3.04-.69.99-7.21,6.12-7.84,5.46Z"/>
        <path class="cls-1" d="M167.84,125.5c.03-.69-.3-1.26-.27-1.87.16-2.22.77-4.47.55-6.72l-1.1.27v-1.1c-.96-.14-.74,1.56-1.54,1.89-.8.33-.66-.49-.93-.66-.38-.25-1.7-.11-1.89.19-.08.11-.52,2.22-.58,2.58-.47,2.91-.25,6.31-.6,9.27-.77,1.1-2.25.41-3.1.47-.74.05-4.83.8-5.1.52l.25-13.14c-.93-.77-2.33.38-3.07.25-.27-.05-.33-.82-.58-.85-.14,0-2.47,1.29-2.55,1.43-.58.99.41,3.1.49,4.17.16,1.95-.49,4.09-.58,6.03-.08,1.7.41,3.89.33,5.24-.03.55-.6.44-.8.85-.33.66-1.01,2.36-.05,2.41-1.97,1.1-.05.85,0,1.1.38,1.45-1.07,6.8-.58,7.54l.55-.27.55,3.57,1.23-.82v1.37c1.15-.22.49-1.4.69-1.65.05-.05.47.14.69.11.25-.03.41-.25.71-.25,1.07-.03,1.89,1.01,2.19-1.37.14-1.23-.16-8.34.52-8.8.14-.08,2.83-.41,3.15-.41.69,0,1.21.47,1.73.49.69.05,1.45-.44,2.28.05l-.82-.82h1.1c-.44,2.44.58,1.7.82,1.92.41.41-.55,1.43-.55,1.78,0,.19.55.11.58.3,0,.22-.27.69-.3,1.07-.05,1.92-.22,5.79.49,7.46.47,1.12,1.87,1.18,2.41,2.25,1.15.11.85-.99.93-1.07.52-.58.52.49.58.52.49.41.49-.27.63-.41.19-.19.58-.27.66-.58.19-.58.08-2.77.05-3.51-.27-4.14-.88-10.5-.55-14.56.16-2.06,1.29-4.36,1.37-6.34v.08ZM148.12,142.01c-.05.41-.22.85-.55.41.08-.82-.11-1.81,0-2.61.05-.41.22-.85.55-.41-.08.82.11,1.81,0,2.61ZM149.5,144.04v-2.19c.22.03.74-.05.82,0,.08.08-.41,2.14-.82,2.19Z"/>
        <path class="cls-1" d="M71.6,149.66c.49.22,1.04.05,1.51.41.22.16,1.43,1.89,1.67,1.95.99.19,2.06-.25,2-1.37-.82-.36-1.32.08-1.1-1.37.41.33,1.07.88,1.1,1.37.3.14,1.81.96,1.92.82-.14-3.07-3.15-5.02-4.77-7.43-1.34-1.97-2.28-3.95-3.7-5.81-.25-.3-.69-.41-.96-.77-2.69-3.57-1.4-2.47,1.4-4.06,4.11-2.3,7.19-5.62,4.66-10.53-2.77-5.38-11.33-6.01-16.46-4.25-.8.27-1.04.8-1.67,1.07-.38.19-2.3.69-2.39.77-.55.55,1.1.55.55,1.1-.14.14-1.07-.36-.82.55,1.89-.22.99.93,1.1,1.07.16.22,1.62.3,1.67,1.51.08,2.08-.66,5.46-.85,7.71-.16,2.06-.11,4.22-.27,6.31-.27,3.24-1.12,6.5-.82,9.74l.82-1.65.14,1.1.41-.55-.27,2.47c.52,0,.25-.85.96-.82.25,0,.05.58.3.58s.55-.3.8-.3c.08,0,.6,1.7.71-.25.49-.11.03.8.69.55.16-.05.71-.63.8-.85,1.18-3.73.49-7.76.99-11.63l.55-.14c1.29,2.08,2.58,4.28,4,6.28.99,1.37,4.11,5.9,5.35,6.45ZM57.89,142.67c-.16,0-.55-.36-.55-.41v-4.53c.82-.14.44.22.55.66.38,1.54-.14,2.69,0,4.28ZM58.44,128.13c-.63.82-.6-1.48-.58-1.81.08-.49.49-.33.58-.58.11-.36-.25-.96.27-.91l-.27,3.29ZM63.02,126.57c.33-1.51-.25-2.85,1.92-3.29,1.04-.22,5.73.6,6.28,1.29.08.08-.19,1.95-.3,2.19-.25.58-3.04,2.88-3.7,3.15-1.4.6-3.48.77-4.94,1.51-.47-.49.58-4.03.74-4.88v.03Z"/>
        <path class="cls-1" d="M79.5,147.83c.08,0,.77-1.48,1.15-1.04-.36,2.11,1.7,3.32,2.96,1.45.58-1.23,1.45-7.38,2.06-7.95.14-.14,1.59-.38,2.06-.55.49-.19.99-.71,1.37-.82,1.04-.27,2.85-.33,4-.58.36.08.33.38.44.66.6,1.48.71,4.58,1.23,6.45.16.52,1.34,3.98,1.51,4.11.03.03.82-.3.85-.44.08-.36-.99-2.88-1.1-3.84-.03-.3-.27-1.23.25-1.21.44,1.32,1.23,7.35,2.19,7.82,1.15.58,2.3-.55,1.92-1.78l.82.27c.69-.91-2.39-12.31-2.47-14.26,1.89.52.99-1.56,1.1-1.65.08-.05,2.22-.19,1.92-.96-.38-1.04-3.81-1.54-4.14-1.97-.66-.91-.88-5.1-1.21-6.42-.41-1.78-1.62-4.06-2-5.68-.11-.44,0-1.65-.05-1.73-.11-.11-.69.3-.93.25-.33-.08-.69-1.76-1.37-.25-1.37-1.7-1.73,1.04-3.1.22-.47-.27-.16-1.26-1.92-.58-.22.08-2.14,2.25-2.22,2.47-.3.82.55.47.52,1.04,0,.44-.44,1.89-.6,2.47-1.92,7.1-4.36,14.15-6.5,21.2-.25.88-.11,3.73,1.26,3.29ZM96.56,142.67c-.41.08-.33-.52-.41-.82-.25-1.1-.33-2.22-.69-3.29.85-.93,1.34,3.84,1.1,4.11ZM89.98,123.47c.8.55,1.01,1.84,1.23,2.72.14.58.08,1.18.19,1.73.16.8,1.12,3.62.71,4.28-.19.33-1.95.27-2.47.44-.49.14-.44.58-.71.69-.47.16-1.43.14-1.97.3l3.02-10.15Z"/>
        <path class="cls-1" d="M121.17,173.12l1.1.27c-.38-1.59,1.15-2.14.82-3.84-1.07.6-.63-.3-1.21-.27-.52,0-1.29.38-1.81.55-.74-5.02-2.08-9.87-3.57-14.7-1.4.33-.91-.71-1.12-.93-.3-.27-2.99.93-3.46,1.01-.77.11-1.37-.82-2.88-.11-.88.38-2.77,2.69-1.32,3.07-2.17,5.84-3.48,12.04-5.29,18.02-.55,1.81-3.37,7.05-1.4,8.42,1.12.8,1.23.14,1.62-.8.41.25,1.51,2.17,1.67,2.19.08,0,1.7-.63,1.76-.69.33-.25,1.43-7.19,2.06-8.09l7.27-1.89c.8,3.15.91,6.86,2.44,9.79.74,1.43,1.51,1.21,1.95,1.89.49.74-.03,1.81,1.23,1.76,2.06-.08,1.45-1.29,1.26-2.74l.69.82c.41.11.63-.33.69-.69.25-1.45-1.18-4.74-1.56-6.39-.49-2.17-.99-4.42-.91-6.64l-.03-.03ZM114.26,169.25c-.16.25-2.03.47-2.5.6-.22.08-.19.44-.44.49-.52.16-1.4.16-1.97.3l2.74-9.33c.52-.11.69.25.88.63.49.93,1.7,6.64,1.26,7.3h.03ZM118.16,175.59l.55,3.84c-.41,0-.52-.82-.63-1.15-.11-.41-.99-2.96.08-2.69ZM118.98,184.91c-.38,0-.63-1.07-.69-1.34-.16-.82.03-1.65-.38-2.36-.03-.22.52-.16.55-.14.14.14.71,3.35.55,3.84h-.03Z"/>
        <path class="cls-1" d="M29.91,140.09c-.49-4.69-5.84-7.68-9.38-10.04-.85-.58-1.34-.8-2.11-1.26-.36-.22-2.39-1.51-2.5-1.62-1.01-1.12.38-1.32.82-1.92.41-.55.49-1.15,1.1-1.65,1.62-1.34,4.14-1.37,6.03-.69l-1.37.69c1.29.11.6.41.82,1.01.14.36.8-.05.27,1.01.52.11.82-.44,1.29-.49.71-.08,1.04.69,1.32-.33.52-.11.36.93,1.51.55.05-.63-.44-1.37-.3-2,.05-.22.69-.38.96-.74,1.12-1.4.71-3.4-.52-4.55-2.91-2.72-8.2-3.68-11.55-1.21-.63.47-1.15,1.29-1.78,1.78-1.95,1.59-6.34,4.74-5.76,7.68,0,.14.99,2.17,1.15,2.44.96,1.78,5.16,5.95,6.83,7.16,1.89,1.34,4.83,2.28,6.77,3.62.63.44.36.99,0,1.56-.55.99-5.35,3.73-6.47,3.95-2.5.44-4.94-1.29-7.32-1.59-.49.36,1.04.25.41.82-.19.16-1.48-.44-1.92-.27-.05.03.19,1.04.27,1.18.22.44,1.07-.16.82.74-1.32-.74-2.28.16-1.23,1.37.27.33.8,1.07.85,1.12.71.52,4.83,2,5.81,2.08,2.5.25,6.94-1.18,9.08-2.55,1.89-1.18,6.31-5.57,6.06-7.9l.03.03Z"/>
        <path class="cls-1" d="M164.59,169.88c-2.69-1.78-5.9-3.07-8.45-4.99-.47-.36-1.54-.11-.77-1.07,1.48-.58,4.64-1.34,5.76-2.28.85-.71.91-1.76,2.69-1.84.36.41-.08,1.48.16,1.87.22.36,2.33.71,2.03-.49l-.41-.55c.74-2.25,1.67.88,1.37,1.92.69-.33.69-1.01.96,0,1.29-2.25,1.81-3.68,0-5.87-.96-1.15-1.67-1.59-3.29-1.78-2.96-.38-8.37,1.32-10.89,3.04-1.92,1.32-4.91,4.44-4.83,6.91.05,1.37.93,2.74,1.65,3.87l12.89,7.16c.08.99-4.03,3.48-4.96,3.81-2.44.88-5.7.27-8.23.14.44,1.45-.77.99-.82,1.23-.19,1.01.47,1.4,1.37,1.51.47.49-1.92,1.26-.27,1.37l-.55.82c.77-.25,1.45.63,2.03.58.14,0,.14-.49.33-.55,1.87-.55,0,1.54,1.1,1.87,1.43.44,3.43.14,4.83-.3,3.81-1.18,10.18-5.54,10.83-9.74.05-.44.14-.85.05-1.29-.25-1.37-3.37-4.53-4.58-5.32v-.03Z"/>
        <path class="cls-1" d="M51.31,139.65c-.05-.05.05-.96-.55-1.26-1.37-.71-2.72,1.78-3.48,2.36-1.1.82-4.44,2.55-5.79,2.69-.63.05-2.77-.47-3.1-.96-.41-.6-.96-3.54-1.04-4.39-.41-5.05,1.45-10.31,4.88-13.96,1.04.63,4.39.41,4.61,1.7.08.41-.44.99-.08,1.48.71,1.01,3.57.99,3.92-.49.52-2.06.14-6.03-1.18-7.73-.49-.66-3.1-1.97-3.89-2.14-.82-.16-4.85.44-5.49.82-.16.11-2.47,2.74-2.77,3.13-1.04,1.34-2.14,3.21-3.02,4.66-.27.44-.8,1.95-.88,2-.05.03-.71-.38-.82-.27-.38.85,0,1.76-.11,2.5-.14,1.15-.85,2.47-.99,3.98-.27,3.37,1.01,12.01,4.22,13.85.49.3,1.21.22,1.26.27.08.08-.96.96,1.01,1.32,2.11.38,5.7-.03,7.76-.49l-.27-.55,1.65-.82c-.05-.03.05-.22,0-.27s.03-.19,0-.27c-.05-.08-.44-.14-.47-.38-.08-.71,1.54-1.04,2.25-1.54.6-.41,3.7-3.54,3.7-3.98,0-.08-.49-1.45-.55-1.51s-.71.38-.82.27h.03ZM33.2,129.5h-.27v-1.65c.85.27.3.99.27,1.65Z"/>
        <path class="cls-1" d="M124.95,146.51c.77,1.1,3.54,3.07,4.94,3.04,1.7-.03,6.12-.69,7.6-1.43.14-.08,1.04-.8.77-1.07-.08-.08-1.67.88-2.39,1.04-.27.05-1.21.3-1.15-.19.8.16,1.1-.8,1.43-.91.74-.27,1.48-.19,2.41-.58.63-.27,3.62-2.25,3.81-2.77.3-.71-1.43-.16-1.56-.05-.16.11-1.23,2.03-1.73,1.56-.52-.52,1.21-1.12,1.37-1.29.49-.47,2.83-3.1,2.47-3.65l-1.37-.27.55-.96c-.93.41-.82-.41-.96-.44-.88-.05-5.16,3.07-6.28,3.59-1.76.82-3.7.93-5.6.77-.38-1.73-2.14-4.17-2.19-5.9,0-.55.22-2.58.33-3.21.08-.47.88-3.4,1.04-3.51.05-.03.71.38.82.27,0-.36.05-.71.22-1.01.36-.74,3.98-5.4,4.53-5.76,2.83-1.81,2.5.47,3.48,1.7,1.73,2.19,1.97-.14,2.63-.41.88-.36.44.47.93.52,0-.71.36-1.4.47-2.11.03-.27-.27-.82-.19-.91.03-.05,1.01.47,1.1-.14,0-.08-.27-1.07-.36-1.15-.22-.27-2.28-1.26-2.66-1.59-.52-.44-.27-1.21-1.32-1.7-2.06-.96-4.99-.66-6.77.74-1.34,1.07-1.89,1.56-3.4,2.63-7.13,4.96-7.49,18.4-2.91,25.07l-.05.05Z"/>
        <path class="cls-1" d="M114.64,132.66c.08-1.23.47-2.61.55-3.84.14-1.62-.27-3.35.25-4.91,3.02-.25,5.95-.82,8.8-1.81.08-.47-.66-.3-.96-.27-1.92.11-3.95.52-5.9.55-.05-.69-.05-.47.41-.55.99-.14,5.87-.33,6.14-.6.11-.14,0-.55.03-.77l.55-.14c.08-.49-1.51-1.1-1.1-1.51.08-.08,1.7-.19,1.51-1.37-.27.25-.74.3-1.1.3-5.65-.33-13,.47-18.65,1.07-1.65.16-4.06,1.34-5.35,2.33l1.37.41c-.16.63-1.15-.16-.82.96.08.25.69-.05.55.41h-1.37c-.11.47.38.16.47.33.19.3.05.71.08,1.04.44.11.16-.47.41-.55,1.04-.33.58.71.69.82.36.33,1.78-.91,1.92.41,0,.08-1.01.16-.55.69.82.88,6.8-.88,7.13-.55l-1.67,22.08c.05.27,1.21-.14.85.99,1.81-.8,1.01,0,1.78,1.1l.41-1.1c.22.44.44,2.63.55,2.74.05.05.6-.03.82,0l.14-.82.41,1.37c.38-.22.96-1.45,1.04-1.84.96-4.74.3-11.9.6-16.95v-.03Z"/>
        <path class="cls-2" d="M40.48,172.33c.3-.3.58-.72.9-1.02s.98-.36.65-.84c-.16-.25-.67-.33-.81-.44-.03.47-.83-.34-.15-.15-2.41-2.59-4.81-5.18-7.32-7.69-1.69-1.69-3.3-3.54-5.03-5.18-.47-.44-3.09-2.72-3.49-2.87-1.21-.47-4.38-.16-5.84-.22-.36,0-.68-.15-1.02-.16-1.54-.06-3.06-.12-4.59-.15-.25.19.62.83,0,.74-.59-.09-1.67-1.26-2.07-.44-.4.78,1.67,2,2.23,2.52,2.53,2.37,4.87,5.4,7.47,7.77.55.49,1.27.67,1.85,1.41,1.14,1.45,1.94,2.37,3.31,3.64.34.31,1.94,1.44,1.94,1.78s-.7.33-.46.96c-.25.07-.07-.3-.22-.3-.18,0-.44.18-.59.3-.81.74-1.73,1.95-2.59,2.74-2.78,2.56-5.71,5.04-8.43,7.69-.74.72-1.69,1.49-2.49,2.17-.36,2.1,1.01,1.72,2.26.86.01.3-.21.53.16.72,2.93-1.01,6.08-1.04,9.16-1.32.3.31-.21.4-.46.43-1.85.22-3.85.22-5.74.47-.44.06-1.08.07-1.42.36-.09.37.46.24.67.22,1.94-.15,4.35-.52,6.35-.75,1.52-.19,1.7-1.07,2.53-1.32.67-.19-.44,1.02.15.89,2.09-1.92,4.31-3.7,6.52-5.47.33-.83,1.09-1.39,1.55-2.07-.13.01-.3,0-.44,0,0-.5.52-.68.89-.89.06-.12-.1-.4.44-.37-.16.49-.31.3-.44.37-.13.24-.31.68-.44.89.16-.03.22-.06.37-.13.07-.04,1.35-1.2,1.41-1.27.18-.22.13-.49.15-.5h-.3v-.44h.3v.44s.33,0,.52-.15c1.26-.99,2.43-2.4,3.7-3.42v-.44c-.3.28-.58.61-.89.89-.15.13-1.15.99-1.26.89.03-.56.72-.78,1.04-1.09h-.01ZM16.57,156.85v-.15c.09.04.09.1,0,.15ZM19.16,159.07c-.34-.36-.77-.7-1.2-.95-.62-.36-1.02-.16-1.32-1.12.21-.16,2.17,1.14,2.35,1.42.12.19.19.41.16.65ZM19.6,160.85s-.06-.31.07-.3c.12.16.33.22.47.34.16.15.49.61.58.83-.09-.27-1.05-.8-1.11-.89h-.01ZM21.23,161.88c.56-.07.81.52,1.18.81-.61-.03-1.17-.09-1.18-.81ZM26.93,158.63c.09.04.09.1,0,.15v-.15ZM25.52,157c.28.24,1.09.34,1.26.59.12.16-.18.22-.18.37,0,.12.38.37.25.52-.18.19-1.54-1.23-1.33-1.48ZM27.52,166.47c-.92-.62-1.82-1.55-2.07-2.66.81.78,1.64,1.58,2.07,2.66ZM24.48,164.99l-.44-.15v-.15h.44v.3ZM24.63,165.29c-.1-.04.09-.25.3-.15.1.04-.09.25-.3.15ZM24.03,156.05c-.13-.21.01-.33,0-.43,0-.09-.56-.13-.28-.38.19-.18.38.24.47.34.13.18.93,1.2.86,1.29-.13.13-.98-.7-1.05-.81ZM25.08,165.29v-.3h.59c.18.07-.5.37-.59.3ZM25.22,165.58c.09-.07.83.25.99.36.24.15.59.74.78.98-.92.21-1.51-.53-1.78-1.33ZM27.06,167.9c-1.26-1.23.15-.93.53.28-.13.06-.46-.19-.53-.28ZM34.03,164.1c.22-.04.53.46.5.58,0,.03-.43.33-.49.33-.18-.01-.77-.31-.68-.44l.67-.46h0ZM33.66,176.23c-.22-.22.4-.47.52-.59.07.22-.34.75-.52.59ZM33.06,176.68c-.15-.15.3-.59.44-.44s-.3.59-.44.44ZM31.29,162.18c.03-.28.47-.18.61-.09.19.13.09.55.19.78.06.16.52.31.55.34,0-.01-.21-.53,0-.37l1.04,1.04c-.1.06-.33-.04-.44-.07.04.09.24.55.07.59-1.42-.61-2.22-2.01-3.48-2.88.81-.36.84.4,1.48.67h-.01ZM32.92,175.05c.27.44-.71.78-.74.74-.25-.34.24-.95.74-.74ZM32.47,174.75v-.59h.3v.59h-.3ZM29.66,166.32l.74-.59c.09.09-.37.27-.22.44.06.06.64.19.37.44-.03.03-.59-.46-.89-.3ZM30.4,181.19c-.19.18-.31.43-.59.37-.12-.06.43-.4.59-.37ZM29.66,159.81c.19-.19.8.53.59.74-.19.19-.8-.53-.59-.74ZM21.97,178.45c.22.22-.58.59-.67.74-.06-.18.49-.92.67-.74ZM19.31,181.71c-.28.65.07.36.13.44.15.19-.5.67-.67.72-.3.1-.13-.4-.43-.3-.28.25-1.46,1.66-1.85,1.33-.27-.22.77-.74.83-.8.81-.68.95-1.04,1.98-1.42.04-.1.19-.7.44-.44s-.33.4-.44.44h0ZM19.9,181.04l.37-.37c.13-.01.09.28.07.3s-.36.1-.44.07ZM21.6,180.39l-1.26,1.04.36-.74,1.55-1.18-.67.89h.01ZM23.05,182.46l-.62.22c.46-.53.96-1.33,1.78-1.26l-1.14,1.04h-.01ZM25.85,176.41c-.07.04-.37.68-.56.84-.18.16-.43.18-.58.31-.5.43-.95.93-1.48,1.33.22-.52.61-1.27.96-1.7.9-1.08,1.32-1.26,2.12-2.54.04-.07.84-.8,1.09-1.07.33-.36.7-.7,1.02-1.05l.15.59c.24-.37.52-.43.81-.59.06-.12-.1-.4.44-.37-.18.49-.31.3-.44.37-.9,1.64-2.25,2.1-2.91,3.45-.09.18-.04.36-.04.55l-.15-.3c-.25-.06-.09.21-.16.27-.04.03-.21-.12-.25-.09h-.01ZM27.15,180.67c.03-.19.47-.56.59-.44.18.18-.3.59-.59.44ZM26.48,181.26v-.15c.09.04.09.1,0,.15ZM26.11,182.89c.21-.31.27-.71.74-.59.03.4-.38.65-.74.59ZM26.7,181.12c-.16-.16.13-.46.3-.3s-.13.46-.3.3ZM27,183.78l1.35-1.24,1.46-.83c-.87.68-1.75,1.76-2.81,2.07ZM27.59,184.15c.13-.16.22-.27.44-.22.15.07-.3.28-.44.22ZM28.18,183.7c.22-.34.07-.46.59-.37.09.06-.43.46-.59.37ZM29.57,182.65c-.16.13-.31.43-.58.53.13-.62,1.14-1.11,1.7-1.41-.37.3-.75.58-1.12.87ZM34.4,178.01c-.28.49-1.75,2.13-2.22,2.44-.41.27-1.14.47-1.63.67l1.7-1.63c.75-.44,1.41-1.07,2.15-1.48.04-.07.18-.71.44-.44s-.37.4-.44.44ZM35.99,174.87c-.46.58-1.27,0,.12-.55.04.1-.07.5-.12.55ZM36.96,169.55l-.47-1.01c.3-.25,2.07,1.57.47,1.01ZM37.36,170.17v.44c-.28-.15-.53-.09-.44-.44h.44ZM36.54,176.23v-.15c.09.04.09.1,0,.15ZM36.91,175.94c-.04.1-.25-.09-.15-.3.04-.1.25.09.15.3ZM37.65,175.05c-.15-.18.3-.58.44-.44.22.22-.41.47-.44.44ZM38.17,174.46v-.15c.09.04.09.1,0,.15ZM36.32,174.24c.03-.38,1.91-1.86,2.07-1.7.27.25-1.72,1.73-2.07,1.7ZM38.69,173.94l.22-.22c.15.13-.22.37-.22.22ZM38.24,169.87c.25.5.72.46,1.18.3v.44c-.33-.04-.78.07-1.08,0-.15-.03-.37-.84-.99-.59,0-.28.68-.21.74-.3.03-.06-.46-1.07.55-.62.04.03.89.59.93.64.43.52-1.14.04-1.33.15h0Z"/>
      </g>
    </g>
  </g>
</svg>