<?xml version="1.0" encoding="UTF-8"?>
<svg id="Capa_2" data-name="Capa 2" xmlns="http://www.w3.org/2000/svg" viewBox="0 0 383.1 417.34">
  <defs>
    <style>
      .cls-1 {
        fill: #fbfbfa;
        stroke: #000;
        stroke-miterlimit: 10;
        stroke-width: .2px;
      }

      .cls-2 {
        fill: #dc2e19;
      }

      .cls-3 {
        fill: #0f0e0e;
      }
    </style>
  </defs>
  <g id="Brand_Manual" data-name="Brand Manual">
    <g>
      <g>
        <path class="cls-3" d="M324.57,93.82l3.25-.27c-.6-.92-1.46-.76-2.38-.87-6.94-.49-12.95,1.25-19.62,1.46-18.59.49-37.72-1.14-56.26-.33-1.84.11-1.68,1.52-3.09,1.79-.98.22-3.85.33-5.04.38-4.5.16-9.54.11-13.88-.81-.92-.81-2.93-13.01-3.63-15.34-4.34-14.63-8.78-29.87-13.55-44.45-.65-2.06-2.33-3.96-2.33-4.23.11-3.2-.27-1.19-.54-2.22-1.03-4.12-1.57-9.65-2.22-13.98-.43-2.82-1.03-5.58-4.28-5.75,1.68,3.69.16,6.78.6,10.52.27,2.28,1.79,4.01,1.03,6.29-2.11-.76-1.36-2.76-1.84-4.34-.81-2.49-2.49-7.48-2.98-10.03-.7-3.79,1.41-4.77,1.08-7.05-.16-1.08-.7-1.52-.92-2.28-.22-.7.98-2.22-.98-2.33-1.63,2.11-3.74,4.01-5.04,6.34-1.68,2.98-1.84,6.72-3.25,9.76-1.19,2.66-3.47,4.5-4.44,6.5-3.47,6.83-2.66,15.83-6.72,21.95-.65.98-1.41,2.98-2.49,3.47,1.03-3.2,3.41-7.59,3.79-10.84.11-1.14-.43-1.03-.81-.27-.49.92-3.85,9.43-3.96,10.19-.43,2.93.05,4.28-1.36,7.81-4.5,11.44-9.54,22.93-13.71,34.58-.49,1.9,1.84,4.93-1.3,4.34l1.08,1.9-12.25.76c-2.33-1.19-11.82.49-12.68-1.3l1.08-1.36h-2.17l.54-2.17h-5.96c1.19,1.79,4.39.6,2.98,3.79-2.49-.11-6.07-2.44-8.18-2.71-1.46-.16-2.6.6-3.74.54-.92-.05-1.63-.92-2.28-.98-.87-.11-2.93,2.44-3.96-.11l2.17-.54c-.87,0-1.95.22-2.76-.27-.54-.33,1.14-1.63-2.93-1.9-7.37-.49-15.77.49-23.31,0-7.75-.49-15.72-2.82-23.85-2.76-1.25,0-2.33.27-3.52.6,1.52,2.76,5.91.38,7.26.49.38,0,.43,1.14,1.25,1.52,3.79,1.95,10.84-.7,14.26.92.27.11.7.7.54.81-2.71-1.19-3.63,1.46-4.12,1.57-1.36.33-8.18-.98-10.84-.49-1.36.27-1.14,1.52-1.73,1.63-1.03.27-5.31-.33-5.58,0,0,5.75,5.15,6.34,8.83,8.78,7.59,4.88,12.03,10.52,18.59,15.56,7.75,5.91,15.18,13.6,22.82,20.11,1.84,1.57,7.75,6.29,9.54,7.1.76.33,2.33.92,2.93.43.11-.11,1.14-2.66,1.08-2.82-.22-1.36-3.04-2.11-3.74-2.82-.92-.92-2.28-4.07-4.07-5.69-1.03-.92-2.98-2.6-3.25-.54l-2.44-3.25c.76,0,1.68-.16,2.44,0,.38.11,6.5,3.41,7.05,3.79,2.55,1.73,5.96,6.78,9.16,9,3.79,2.66,2.49.76,3.04-.33.38-.7,7.05,5.26,7.59,5.69l-5.15-1.9.27,2.17c-2.93.81-3.63-2.71-5.2-3.74-2.11-1.36-4.28-.11-3.25,1.57.65,1.03,8.94,6.5,10.62,7.59-.92,1.68-8.4,13.88-7.59,14.63.65-.05,1.57.22,2.06-.11,1.3-.76,5.37-14.47,8.51-14.53,1.68,0-3.41,8.08-3.74,8.73-2.28,5.09-2.28,5.26-5.2,9.97-5.64,9.21-8.83,21.19-13.88,31.11-1.3,2.6-3.69,4.77-4.01,7.64l-.27-3.25c-3.36,2.76-3.74,6.99-5.15,10.84.87-.16,1.79-3.25,2.17-.81-2.82,4.82-2.98,11.65-5.96,16.26-1.52,2.38-4.44,3.63-4.88,6.56-.16,1.08.76,1.14,1.08.81.11-.11,0-2.49,1.08-1.9-.22,2.06-2.22,3.47-2.71,5.42-.16.7.11,1.08.76.76,1.52-.65,7.64-10.62,7.32-13.01,2.71-.16-.54,4.61.81,5.96,1.46-.98,5.64-6.88,6.78-7.32.22-.05,3.31-.05,2.71,1.03-.6,1.19-2.44.65-2.71.81-.05,0,.49.92.33,1.63-1.19,4.39-7.86,3.74-8.83,5.53-.33.6-.11,1.95-.54,2.98-.65,1.57-3.14,2.76-3.69,5.04-.27,1.19.38,2.49-.22,3.79,1.41,1.3,9.86-6.4,11.44-7.26.6-.33,4.5-2.06,5.26-2.33.87-.33,2.22.11,2.87-.38.54-.38.33-1.63.6-1.84.38-.33,1.63.16,2.01-.11.11-.11.22-1.79.92-2.66.54-.65,7.59-6.4,8.13-6.5,1.46-.33.43,1.9,1.08,1.63l9.49-8.4.54-1.36-1.36-.54c10.79-6.83,20.05-15.88,30.24-23.42.87-.65,4.66-2.93,3.09-.27l-10.19,8.13c-.27.6.43,1.46.43,2.06,1.08-.49.81-.54,1.57-1.03.33-.22,1.08,0,1.14,0,.27-.22-.76-1.73-.49-2.11.16-.22,3.58-2.06,4.44-2.76,4.5-3.79,9-7.81,13.39-11.71,3.31-2.93,6.02-4.01,10.03-5.69,2.17,0-.43,1.63,0,2.17,5.09,1.9,9.32,5.75,12.2,10.3-1.41,1.14-9.86-8.29-12.47-9-1.46-.38-3.85,1.95-3.25,2.49,2.44-1.03,3.36-.27,5.37.87,5.2,2.98,7.59,8.08,13.6,11.06-.27-.6-.27-1.46-1.08-1.9,1.63-.54.81-.54.81-1.9,1.3,1.14,3.9,1.95,4.5,3.63.22.65-.11,1.68.27,2.17.05.11,1.84.22.92,1.19-.27.27-2.11-.7-1.63,1.08,6.18,3.96,11.27,9.49,16.53,14.63,4.07-1.79-3.52-3.14-1.63-5.96,2.33,1.19,7.86,7.7,9.49,8.4.76.33,1.52-.49,2.44.22,1.14.87-.38,2.28,1.03,3.36.76.6,3.69,1.25,5.04,2.01,1.08.6,5.37,3.9,5.96,4.61,1.08,1.19,2.28,4.07,4.5,5.04.87.38,1.73-.27,2.17,0,.27.16,4.17,4.07,4.34,4.34,1.08,1.68,1.79,6.18,5.04,5.15.54-.16,0-1.73,3.2-.43.65.27.33,2.01,1.79.54,2.38-2.38-2.66-6.72,1.57-7.1l3.58,1.9c-.16-2.6-1.73-3.2-2.93-4.66-.49-.54-.43-1.63-1.08-2.17-1.41-1.19-4.88-.11-4.12-3.74,1.14-.27,1.41.98,2.17,1.3,1.03.43,2.49-.11,3.52,1.95.54-.33.33-1.79.16-2.33-.98-2.87-4.44-5.64-5.64-7.91-5.64-10.68-8.35-25.1-13.5-36.37-2.87-6.4-4.55-13.44-6.94-20.16-1.08-3.09-3.14-6.72-4.01-10.08-.87-3.14-.87-6.34-1.73-9.54l1.57-.87c0,2.66,1.14,5.47,2.01,8.02.33.87-.27,1.46,1.25,1.19,0-5.31-1.73-5.53,2.44-9.21,10.62-9.38,23.36-14.31,35.34-21.03.65-.38,3.25-1.08,3.36-1.25,1.95-2.06-4.93.05-5.42.27-3.36,1.46-4.28,4.23-8.51,5.04-1.25.22-2.06.54-1.79-.98,5.53-2.87,11.11-6.07,16.31-9.43,7.86-5.09,12.68-8.13,21.03-12.57,3.04-1.63,5.64-4.07,8.73-5.64.11-.98-1.25-.54-1.73-.38-1.19.38-2.76,2.06-4.23,1.25l9.59-7.48c-.27-.98,1.36-2.93,1.25-3.09-.11-.22-2.11-.22-1.63-1.63l.11-.05ZM94.22,118.76c-.7.65-4.93-2.49-4.88-3.79,1.3-.54,5.69,3.04,4.88,3.79ZM93.68,90.57c1.63-.22,12.85.38,13.55,1.08.54.54.11,1.14-.81,1.08-1.73-.11-3.63-.92-5.42-1.08-2.11-.16-4.5.27-6.5,0-.81-.11-1.68-.43-.81-1.08ZM106.95,131.76c-2.6-.76-5.75-5.53-8.46-6.72-.11-2.76-.92-3.14-2.66-5.15,4.99-1.03,5.75,4.39,8.13,7.32.6.76,1.41.98,1.95,1.57.49.49,1.79,1.57,1.84,1.68.22.6.22,1.63-.81,1.36v-.05ZM131.07,103.58c.05.38.76.98.54,1.63h-4.07l-4.61-3.25c1.68,0,3.36-.16,5.04.11,1.36.22,2.44,1.36,3.09,1.52v-1.08c1.03-.6,13.28,0,10.84,2.17-3.41-.87-7.48-.33-10.84-1.08ZM121.86,212.52c.38,2.87-1.95,2.44-3.25,4.34-1.19-2.17.98-4.34,3.25-4.34ZM124.52,231.22c-2.44,2.17-1.25,1.19-2.98,3.52-.92,1.25-2.33,2.82-3.52,3.79-.65-2.87,1.25-3.69,2.38-5.47,1.36-2.11,1.41-2.01,2.76-3.74.6-.7,3.09-5.26,4.07-4.39,1.25,3.25-.54,4.23-2.71,6.23v.05ZM133.24,231.5s-1.14.22-1.08-.27c.87-1.46,1.68-.38,1.08.27ZM129.99,191.39c-.33-.33,3.14-6.23,3.69-6.88.49-.65.65-1.46,1.73-1.25.43.49-3.63,9.81-5.42,8.13ZM135.95,217.4c2.11-1.79,3.85-3.96,5.75-5.91.54-.6.81-1.36,1.84-1.14-.92,4.72-2.17,7.53-7.59,7.05ZM151.94,208.24c-1.57,1.52-7.15,5.31-7.32,7.05h1.08c.27,1.57-1.25,1.79-1.08,0h-1.08c0-.43-.05-.87.11-1.25.16-.38,4.34-6.12,4.77-6.61,1.41-1.52,3.9-2.33,5.96-2.44.6.54-1.95,2.82-2.44,3.25ZM152.75,153.99c-.87-.81,2.66-3.31,3.79-2.71.81.76-3.09,3.36-3.79,2.71ZM159.53,179.46v-.54c.33.16.33.38,0,.54ZM172.21,171.06c-1.3.6-11.27,8.51-11.87,7.91-.22-1.03.6-1.3,1.08-1.9,1.03-1.19,8.02-6.67,9.43-7.37.87-.43,1.52-.65,2.49-.49l-1.14,1.84ZM172.81,78.1c-1.19,1.36-2.01,3.63-2.17,3.79-1.79,1.73-.49-4.12-.54-4.34l-1.63.81,1.41-4.55,3.47-3.25c1.52,2.93-.49,4.77-.54,7.59.6-.7,1.14-1.79,2.17-1.63.54.65-2.28,5.96-2.17,1.63v-.05ZM173.89,92.74c-.16-.16,2.01-3.74,3.25-3.25.22,1.79-1.46,3.47-3.25,3.25ZM180.4,56.97c.16,2.66.92,2.98-2.17,4.88,0-1.08.43-3.74,1.03-4.55.43-.6.81-.22,1.14-.33-.11-1.3.49-2.06,1.63-2.71-.49,2.17,0,2.11-1.63,2.71ZM183.11,53.71c-.16.38-.92-.33-.54-1.08.16-.38.92.33.54,1.08ZM271.73,230.47c1.36,1.08,2.11,2.55,1.9,4.34-1.03-.7-3.74-3.14-1.9-4.34ZM268.75,247.76c.6.6-.49,1.68-1.08,1.08s.49-1.68,1.08-1.08ZM258.56,232.47c.6.33,1.41.05,2.06.11v.54c-2.01-.49-.27,2.6-1.9,2.17-1.52-.43-5.64-2.82-5.64-4.61,2.93-3.69,4.34,1.14,5.47,1.79ZM246.52,211.98l2.71,2.71c-1.3-.87-3.25-.6-2.71-2.71ZM286.09,97.62l-1.08,2.17,3.52-.54c1.3,1.84-6.45,3.52-6.78,3.25.7-1.95,1.73-5.09,4.34-4.88ZM286.09,102.5c.11,2.6-1.41,2.66-2.71,3.79.54-.54,2.49,1.03.81,1.63-1.14.43-.98-1.41-.81-1.63-1.25,1.14-2.28,2.66-4.34,2.71-.27-4.39,3.85-5.2,7.05-6.5ZM269.29,109.54c.11.11.27,1.3-.38,1.63-.22.16-4.34,1.79-4.5,1.63v-2.71c1.03.54,4.72-.7,4.88-.54ZM264.41,101.95l-.54,4.34c-2.11.05.11-2.44-3.25-1.63-.98-.7,3.2-2.71,3.79-2.71ZM261.43,111.71l1.36.81c0,.38-1.19.65-1.46.98-.49.6-.54,1.79-.76,1.95-.65.43-3.25-.11-4.28.05l5.15-3.79ZM255.74,116.59l4.88-.54c.54.6-3.41,7.32-4.88,5.96-.6-1.79,2.11-3.31,2.17-3.52.54-1.68-2.76.22-2.17-1.9ZM249.23,128.51l-3.04,3.2c-5.64,2.01.54-3.09,3.04-3.2ZM225.11,119.89c.54.49-.81,1.36-.81.81l.81-.81ZM218.34,84.34c0-.49.98-.38,1.08-.27.76.7,2.06,8.13,2.17,9.76-1.68.33-.81-.54-1.14-1.3-.92-2.33-2.22-5.69-2.11-8.18ZM211.83,61.84c.11.11.33,1.63.81,1.63.16,0,1.95-2.17,2.44-.27.49,1.79-1.57,1.63-1.68,2.22-.38,2.76,3.04,6.45,2.76,9.38-1.25.38-1.63-1.25-2.01-2.06-.6-1.46-3.52-9.76-3.41-10.68,0-.49.98-.38,1.08-.27v.05ZM210.75,94.36c.05,1.9-1.08,4.07-3.25,3.79l3.25-3.79ZM209.12,89.49c-.6.05-1.19-1.84-1.3-2.22-.22-.92-.49-1.68-.33-2.66,1.84.87,1.68,3.2,1.63,4.88ZM207.5,82.98c.6.6-.49,1.68-1.08,1.08s.49-1.68,1.08-1.08ZM201.54,102.5c-.6.76-5.15,5.75-5.96,4.88-1.14-1.19,4.61-5.2,5.96-4.88ZM195.57,117.67l-1.14,1.84-5.91,4.66c-1.41-1.68,4.77-7.15,7.05-6.5ZM196.66,79.19c.11-.11,2.6,0,3.25-1.08.92,1.79-.54,5.09-2.76,3.58-.6-.43-.7-2.28-.49-2.49ZM199.75,22.71c.38.76.7,3.52.11,3.9-3.14,2.06-2.22-8.08-.11-3.9ZM194.98,63.69c2.93-.54,2.98,3.9,2.71,4.12-1.03,1.03-1.79-1.08-1.9-1.08-1.84-.43-1.63,1.57-2.17,1.63-.7,0-2.22-4.01,1.36-4.66ZM192.32,52.09c-.05,1.57.7,4.39-1.63,4.34.05-1.57-.7-4.39,1.63-4.34ZM189.88,42.33c.43-.7-.11-1.36,1.36-1.08.76,1.19-2.22,6.5-3.25,5.42.27-1.41,1.19-3.09,1.9-4.34ZM193.41,123.09c.7.6-4.66,6.23-5.42,5.42-.98-1.03,4.39-6.34,5.42-5.42ZM186.36,184.34c-.81-.87,2.33-2.82,3.25-2.44-.27.76-2.28,3.41-3.25,2.44ZM197.47,136.7c-1.52,3.09-5.15,3.36-6.83,4.55-.43.33-4.61,4.44-4.82,4.72-.11.16,1.25,2.66-1.14,3.2-.22-2.82.92-4.28,1.9-6.5.6-1.3,0-4.17,2.17-1.08,2.38-3.58,6.34-6.23,9.16-9.27,3.96-4.23,7.53-8.73,11.44-12.95.81-.87,6.12-8.08,7.32-7.05-5.64,8.73-13.55,15.77-19.24,24.39h.05ZM215.09,151.82c-.38-.38,2.28-6.83,3.79-5.42-.16,2.28-.98,5.31-3.79,5.42ZM215.9,130.68c-.49-.05-.33-1.25-.27-1.63-2.76,1.57-3.74,5.15-7.05,5.69,1.79-1.46,6.34-8.83,7.86-9.49,1.95-.81-.7,3.14-.81,3.79l3.79-3.25c.49,2.76-1.95,3.41-3.52,4.88ZM219.8,125.31c-.11,0-1.46-1.25-1.46-1.36.11-.6,2.38-4.39,3.25-3.52l-1.08,2.71c1.03.43,2.6-2.38,3.25-1.63,1.19,1.36-2.06,4.17-3.96,3.79ZM233.79,218.49v-.54c.33.16.33.38,0,.54ZM237.85,219.57c-4.55.33-2.6,0-3.52-2.71-.54-1.68-.76,1.19-2.17.54-.7-.33-.92-2.01-1.57-2.76-.76-.81-7.05-4.88-6.29-5.91,4.55-1.63,8.89,4.17,11.54,7.37.81.98,2.6.98,2.01,3.41v.05ZM232.43,124.72l2.17-2.98,2.71-.81c-.98,2.6-2.01,3.41-4.88,3.79ZM240.02,172.96c-.92.38-2.49-2.17-2.6-2.55-.27-.92-.11-1.9-.11-2.87,1.63,1.36,3.14,3.2,2.71,5.42ZM232.43,104.66c-.92-.7.05-.98.81-1.08,1.57-.22,5.04.49,5.15-1.63h.54c0,.27,0,.81.16.92.54.33,2.17.6,2.93.65,1.14.11,4.17-1.3,4.01,1.14h-13.6ZM257.04,140.98c-4.28,3.47-9.38,5.8-13.28,9.76-.7-4.39,5.58-5.58,8.13-8.35.87-.92.98-2.17,1.63-2.71.7-.7,2.38-.87,3.41-1.46,1.73-1.03,3.04-2.93,5.26-2.6.7.6-4.5,4.88-5.15,5.42v-.05ZM261.16,132.85c-.16-.16,1.19-3.36,1.41-3.74.22-.43,1.08-.38,1.3-.98.16-.54-.16-1.52,0-1.79,0-.05.81.49,1.57.27.87-.22,2.17-2.55,2.76-1.9.38.43-4.5,9.43-7.05,8.13ZM267.77,118.76c-6.99,3.2,0-1.73.33-2.22.87-1.52-1.46-2.49,3.36-2.06l-3.69,4.28h0ZM271.46,136.1c.27-.98,2.38-1.41,3.25-1.63-.33,1.03-2.28,1.68-3.25,1.63ZM272,104.66c.87-1.79,2.33-2.49,4.34-2.17-.7,2.38-2.11,2.38-4.34,2.17ZM280.51,119.46c-1.03.65-2.33.16-3.31.43-.43.11-.38.92-.43.98-.6.38-1.52-.49-1.52-.7,0-.49,6.67-4.39,7.53-5.47l8.18-1.3-10.46,6.07h0ZM312.11,104.66c-2.82,1.08-13.33,7.64-15.72,5.47-1.14-1.03,2.76-1.36,3.58-2.11.7-.76.76-2.11,1.3-2.49,1.3-.87,5.47-1.84,7.75-3.52,2.38-1.79,1.36-2.71,1.95-3.52.38-.49,3.58-2.22,3.85-1.9,1.14,1.36-4.34,6.02-2.71,8.08Z"/>
        <path class="cls-3" d="M252.27,89.32c7.05.33,13.82.98,21.03,1.3,5.8.27,16.26.7,21.73,0,.6-.05,2.71-2.11,5.47-2.17,3.14,0,2.28,2.38,6.56-.98.43-.33.98,0,.7-1.25-1.41-.11-2.66.49-4.07.54-12.03.49-23.79-.38-35.77-.6-5.96-.11-17.67-.81-22.87,1.03-.54.22-1.57.33-.76,1.14.33.27,6.83.81,7.97.87v.11Z"/>
        <path class="cls-3" d="M270.97,224.67c.11.6.81,2.17,1.25,2.55,2.17,1.73,1.68-.16,2.17-.92.16-.22.76-.16.87-.54,0-.16.05-2.98,0-3.14,0-.54-1.03,0-1.68-.65-.65-.6-2.06-4.44-1.57-5.09l1.63.54-1.08-3.79-1.63,2.17c0-1.9-1.36-4.07-1.63-5.75-.43-2.82-.27-6.99-.7-9.7-1.03-6.78-6.56-21.68-9.38-28.46-.54-1.25-1.3-3.31-2.98-3.25.6,1.52-.11,2.82.22,4.34,1.03,5.26,5.96,13.88,6.29,19.3.05.98-1.03.65-1.14,1.08-.43,2.06,1.52,3.14,2.22,4.77,2.55,6.02,3.41,13.98,6.23,20.33.6,1.36,2.44,3.41,2.93,4.66.6,1.63-2.44-.11-2.11,1.57h.11Z"/>
        <path class="cls-3" d="M135.14,92.74c2.01.54,8.73,0,11.38,0s2.06,1.57,2.28,1.63c1.95.54,1.63-.81,2.22-1.03,1.08-.43,3.41.33,3.41-2.22-6.67,0-13.39-.11-20.05.54,0,.33.65,1.03.81,1.08h-.05Z"/>
        <path class="cls-3" d="M251.89,170.03c0,2.66,2.98,6.18,4.17,8.83,1.25,2.82,1.9,6.07,3.14,8.78.38.81-.05,1.36,1.36,1.08-1.9-4.44-2.87-10.19-4.77-14.47-.81-1.9-2.49-2.98-2.82-5.04-1.03-.05-1.08-.27-1.08.81Z"/>
        <path class="cls-3" d="M128.91,171.87c-.43-.49-1.68.33-2.17.81-1.63,1.57-3.47,8.67-4.34,11.11,2.33-1.95,4.82-6.61,5.96-9.43.22-.6.92-2.06.49-2.44l.05-.05Z"/>
        <path class="cls-3" d="M118.07,195.72c-.16-.11-1.25-.16-1.68.33-1.73,2.11-2.82,8.89-4.28,11.6.49-.05,1.3-1.19,1.57-1.57.76-1.25,5.15-9.76,4.39-10.35Z"/>
        <path class="cls-3" d="M257.36,166.45c.7-.7-1.52-6.94-3.79-6.5-.65,1.52,2.22,8.02,3.79,6.5Z"/>
        <path class="cls-3" d="M316.71,89.49c1.36,0,1.9-2.17,1.08-2.17l-5.85.65-4.17,1.52h8.94Z"/>
        <path class="cls-3" d="M119.69,162.66c-9.27-1.08-18.65-.27-27.91-.54-19.46-.54-39.08-1.68-58.48-2.22-2.49-.05-5.75-.22-8.18,0-.98.05-2.11-.11-2.38,1.08l14.09,1.08c.54,2.28-2.87.11-3.25,1.63h9.21l-.54-1.08c3.85.11,7.7.22,11.54.33,5.09.16,10.19.65,15.28.81,2.44.05,3.63-.81,6.23.27.87.38,1.36-.05,1.08,1.3-8.02,0-16.1.92-24.12.92-10.62.05-21.73-.76-31.98-1.41-5.31-.38-10.57-1.73-15.99-1.14l3.25,1.08c-3.2,0-6.23-.27-7.32,3.25-.16.6-.54.81.27,1.36,2.17,1.36,9.21.6,12.14.87.54.05,2.55.22,2.49,1.03-2.82,1.03-6.23,0-8.83,1.63-.81.54-3.79,3.79-3.09,4.88.76,1.08,7.81.7,9.32,0,.65-.27,0-1.3,1.19-1.08.49.11.11.76.65,1.08,1.08.6,4.5.33,5.75,0,.7-.16,0-1.3.92-1.08l.54,5.42c-4.61.11-9.21.38-13.82.54-.76,0-1.68.6-2.11.6s.16-2.44-2.38,0c-.76,1.73,3.14,2.49,4.23,2.66l-1.08.54c-.16,2.76,3.96.76,4.88,2.71-1.46,0-3.25-.11-4.66.43-.98.38-.87,1.14-1.3,1.41-1.73,1.14-3.36.27-3.25,4.12,1.63.81,2.55-.54,4.07-.6,11.6-.43,23.52,1.36,35.23,1.68.87,0,2.01.7,2.66.49.92-.27.54-1.73,1.25-2.17.92-.6,4.99-1.03,5.58.54h-2.71v1.63c2.76.11,5.64-.16,8.4,0,11.82.6,23.47,1.52,35.18,1.63,2.6,0,6.4,1.57,7.86-.49l-12.2-.54-20.87-1.36c.7-1.03,1.3-.76,2.28-.7,10.14.49,20.27,1.14,30.41,1.41l.92-.98-26.02-1.08c.27-.98,2.66-1.03,3.52-1.08,5.09-.38,12.68-.16,17.94,0,1.9.05,13.23,1.52,13.77,1.03,1.3-2.49,1.36-5.04,2.06-7.43.65-2.17,3.25-5.64,3.96-7.97.49-1.57-2.38-.49-2.71-.81-.16-.16.11-2.6,0-3.25.92-.16,3.85.33,4.28-.05.05-.05.7-2.01.6-2.06-1.14-1.14-.87,1.36-1.63,1.08.6-2.49-1.08-.98-1.63-2.17l3.25-1.08c-3.2-.65-6.45-1.25-9.76-1.08l1.63-1.08c-2.6-.05-5.26.05-7.86,0-4.88-.11-9.65-.76-14.63-1.08-2.49-.16-5.09.11-7.59,0-.65,0-2.01.43-1.9-.54,2.22-.16,4.55.22,6.72-.05.76-.11,2.11-.33,1.95-1.03l-2.17-.54c2.49.43,5.09-.38,7.37-.49,4.34-.16,15.45-.6,19.51-.05,1.14.16,2.28,1.19,2.38,1.14.11-.11,0-1.25.87-1.52.54-.16,5.37.22,5.64-.11.11-.11-.05-1.19,0-1.63v-.05ZM15.62,189.22c.7-1.25,3.63-.22,4.88-.54-.76,1.25-3.63.22-4.88.54ZM21.32,188.13v-.54c.33.16.33.38,0,.54ZM42.73,175.13l3.25-1.08-1.63-1.63c5.37.7,10.35,0,15.72,0l-.54,1.08,1.63.54c-6.12.16-12.2,1.84-18.43,1.08ZM69.28,167c2.22.76,5.75-1.73,7.05.54-1.73,0-3.47.05-5.15,0-.65,0-2.01.43-1.9-.54ZM80.12,185.97c.27-1.63,5.64-1.95,5.96-1.63v1.63h-5.96ZM95.84,171.87v1.63c-2.49,1.25-4.07-.98-5.09-1.03-1.95-.11-5.91.98-8.13,1.08l-12.74-.81c8.51-1.73,17.4-.27,26.02-.81l-.05-.05Z"/>
        <path class="cls-3" d="M16.44,96.53c-2.71.7-8.08-.49-11.11,0l.22,2.22c3.52.98,7.75,0,11.44.49.54.05,2.28,2.6,3.47.6l-2.17-.54c7.37-.98,13.93,1.95,21.14,1.63,0,.81-1.95.98-2.49,1.03-4.66.54-9.05.05-13.39.27-5.69.27-11.44,1.03-17.18.87-1.08,1.52,3.69,1.52,4.34,1.9.81.49,1.73,4.07,2.44,4.07h19.24v1.63h-10.03c-.6,0-10.46,1.79-11,2.01-.49.22-.54.81-.87,1.08-.38.33-1.3,0-1.46.49-.92,3.09,2.76,3.31,5.15,3.52,2.87.22,6.88-.65,9.16-.38,7.7.76,15.66.11,22.82.92,1.25.16,3.63.43,3.52,2.17-4.12.27-8.18-.87-12.2-1.08-4.77-.27-9.38-.11-14.04,0-2.6.05-5.26-.11-7.86,0l2.17,4.34c-.33.43-8.46.76-7.05,2.71l73.17,3.25c.22-.92-.27-1.08-.81-1.63-6.78-6.61-16.69-4.55-25.2-6.5.38-.43,1.79-2.17,1.95-2.22,2.11-.22,1.73,2.06,1.84,2.22.16.22,4.07-1.03,5.15-.98,1.46.05,3.41,1.25,4.99,1.41.54.05,1.68.43,1.25-.7-.6-1.41-5.69-3.79-7.32-5.15-3.09-2.66-5.37-5.91-9-8.35-1.9-1.25-6.34-2.66-7.32-3.52-.98-.81-.65-2.22-.76-2.22h-7.59c-.05-1.25-.16-.98.81-1.08,2.01-.27,8.08.81,8.4.54,1.19-1.03-2.28-1.52-2.76-2.01-.65-.65-.92-2.82-1.36-2.93l-11.82.43c-1.95-1.36-3.31-.7-5.47-.38l-6.78-1.08c2.49-1.79,1.03-.6,1.73-.16.81.49,3.69-.43,5.04-.43,4.55-.11,9.32-.11,13.55-.22,1.73,0,3.96.49,5.69.81.38-1.63-.98-.76-1.84-1.63-.33-.33-.27-1.79-1.36-1.03-.05,0,.11.92-.38,1.03-1.19.33-3.2-.22-4.5,0l1.63-1.63c-3.2.7-6.72-.65-10.03-.54-4.61.16-9.65,1.9-14.36,1.63l3.79,1.08-14.09.54c-.87.65,0,.98.81,1.08,3.2.43,6.34-.65,9.49-.54,0,.33-.65,1.03-.81,1.08v-.11ZM47.6,108.46c.16.54-2.28,1.08-2.44,1.08h-7.86c-.22-1.41.22-.98,1.19-1.25,3.04-.87,5.96.65,9.11.16Z"/>
        <path class="cls-3" d="M362.24,107.37c-7.05-.81-13.06-.98-20.16-1.95-3.14-.43-6.23.33-9.38.33v1.63c.33,4.66,2.55,2.28,5.69,2.28,4.88,0,11.6.92,16.31.49,2.17-.22,4.77-1.19,7.48-.92,1.3.11,2.71,1.3,4.39.98.54-.11-.33-2.38,1.9-1.68-1.08-1.9-4.23-.87-6.23-1.08v-.05ZM334.6,106.83v-.54c.33.16.33.38,0,.54Z"/>
        <path class="cls-3" d="M333.25,100.92c-.16.98-1.57.11-1.08,2.17,8.73-.43,17.72.76,26.29-1.08.49-.05,7.1.38,5.15-1.08h-20.05l11.92-1.63c-2.49-1.63-5.04.43-6.83.49-.22,0-.16-1.03-.6-1.08-.92-.16-5.42.76-5.64.6-.87-.98.49-1.9,1.63-1.9-2.06-1.19-.22-3.14-2.98-2.44-.76.22.43,1.41.27,1.63-.33.38-8.51,2.38-9.76,2.17-.22,1.41.27,2.01,1.63,2.17h.05ZM344.09,101.95c-.11,1.19-3.74.43-3.79-.54l3.79.54Z"/>
        <path class="cls-3" d="M329.72,130.14c-2.17-.6-6.94.43-9.49,0v1.63c1.36-.49,9.92.33,10.3,0,.33-.27-.38-1.52-.81-1.63Z"/>
        <path class="cls-3" d="M369.56,123.09c-5.26.27-2.87,0-3.52-1.57-1.3-3.31-3.2-2.22-5.31-2.87-4.07-1.19,2.49-3.09,4.23-2.6.22-.22-.33-1.46-.38-1.52-1.41-1.08-13.66-1.08-16.15-1.19.38-.76,2.66-.87,3.58-1.03.76-.16,1.57-.05,2.38-.05.11-1.36.11-.92-.81-1.08-3.85-.54-5.37-.65-9.05.6-.38.11-.38.92-.81,1.03-2.44.54-6.29.38-8.83.54l1.63-1.63c-2.6.76-2.55-1.63-4.88-1.08l.81,1.63c-1.03.16-1.63-2.71-2.98-1.63-1.63,1.3,2.01.27,1.08,1.36-2.93.22-.81,1.57-1.08,1.9-.22.27-5.91,1.52-6.72,2.11-.54.43-.05,1.25-.7,1.68-1.57,1.03-5.37.98-7.15,2.49l-.76-.33c1.08.11,1.19-2.01-.05-1.63-1.79.54-3.52,2.93-5.69,2.71l3.25.81c0,.49-2.11.6-2.71,1.08s-.43,1.25-.54,1.36c3.2-.05-.27,1.68-2.17,2.17-1.3,1.14-3.63,2.01-3.79,2.17-.54.54-.11,1.14.81,1.08,2.33-.16,4.82-.98,7.32-.54l-1.63-1.08c5.31-.49,10.68-.33,15.99-.54,9.54-.38,19.51-.76,29.27-1.08,4.61-.16,7.7.76,11.98-1.08.43-.16.16,1.03.54,1.14,1.79.33,3.41-2.87,2.98-3.25l-.11-.05ZM309.94,124.18l3.79-2.17c-.65,1.25-2.49,1.95-3.79,2.17ZM323.44,120.98c.05,0,.22,1.3.54,1.63-6.29,1.95-1.79-2.6-.54-1.63ZM348.42,125.26l6.78-1.08c2.33.38,6.29-1.08,7.86,1.08h-14.63Z"/>
        <path class="cls-3" d="M311.76,166.3h-14.53c-.18,0-1.41,1.23-1.32,1.76h13.65c.53,0,2.99-1.41,2.2-1.76Z"/>
        <path class="cls-3" d="M289.76,100.93c-.53-.18-1.41.18-1.76,0-.35,2.91,2.29,2.64,1.76,0Z"/>
        <path class="cls-3" d="M352.37,190.61c1.76-.53,1.59-2.29,2.2-2.29,1.15,0,2.47.88,3.52.88,2.99-.18,5.99-1.41,9.16-.79.79-3.43-5.64-.97-6.17-3.52,2.38.18,7.93.79,6.96-2.99-.62-2.64-9.25-.88-11.71-1.41-.7-.18-.7-1.59-1.67-2.03-1.67-.7-23.16-1.59-26.6-1.5-2.64,0-18.14,2.73-19.02,1.76-1.5-6.43,5.99-2.64,10.13-2.55,8.54.26,11.19-1.32,19.55.79,5.02,1.23,9.69-2.11,13.21-2.47,1.32-.09,1.85,1.59,3.35,1.67.79,0,0-1.59.88-1.76,2.03-.44,1.06,1.23,1.5,1.5.7.44,5.2.53,6.25.26,2.11-.53-.62-1.06,5.46-.88,4.58.18,9.07-.09,13.65,0-.18-.97.26-4.14,0-4.4l-104.81-.44c.44,4.14,7.93,1.85,8.63,2.29.35.26.44,1.67,1.06,2.03.79.53,12.07.88,14.8,1.14,1.15.09,1.76-.35,2.82-.7-.35,4.23-4.32,2.99-6.52,3.52-.88.18-.53,1.67-.62,1.76-.53.44-2.03-2.11-2.64-1.76,0,0,.18,1.32-.62,1.76-1.5.88-3.96.7-5.55,1.76l.44-2.64-5.72.88.88,1.76-5.28.88c-.35.35.62,5.11.88,5.28.88.62,10.92-2.91,11.8-2.73.79.18.7,2.11,1.94,2.55,2.29.79,6.52-.26,9.16.18l-1.76,1.76c11.54,2.29,23.08.97,34.79.88,5.37,0,9.42,1.32,15.5-.35l.18-.09ZM360.21,184.79l-8.54,2.29-7.31-.53c.26-1.67,1.41-1.32,2.55-1.5,4.32-.7,8.98,0,13.3-.26ZM344.35,180.39c2.2-.26,4.67,0,4.4,2.64h-4.4v-2.64ZM342.15,174.22c.53.26.53.62,0,.88v-.88Z"/>
      </g>
      <g>
        <path class="cls-1" d="M204.77,369.89c-.97-1.03,3.82-3.03,4.67-3.82,6.3-6.06,6.55-17.94-1.39-22.73-12.12-7.27-25.28.3-37.83,1.15l3.64,1.52c-1.03,1.76-5.21.73-5.4.91-.12.06-.73,2.12-.61,2.36.3.48,2.97.73,2.97,1.88-1.39.48-2.3.79-3.64,0-.97,3.64,3.21,2.91,5.46,4,.12,6.55-1.82,12.91-2.42,19.34-.61,6.18-.61,12.61-1.21,18.79-.36,3.64-2.49,11.4-1.7,14.43,0,.18,1.52,3.33,1.7,3.46.3.24,2.12-1.45,2.42-1.21.91,5.03,2.55,1.45,4.55-.61-.73,2.06.85,2,1.94,3.64,9.4-1.82,20.61-4,28.85-9.21,3.64-2.3,10.73-7.76,11.76-11.88,2.91-11.46-4.06-17.88-13.82-22h.06ZM185.97,352.61c.79-.67,6.36-2.49,7.64-2.67,1.27-.18,8.67-.3,9.21,0,.3.18,1.39,3.15,1.33,3.82-.3,3.39-15.88,12.67-20,12.43-.48-.55,1.03-12.97,1.82-13.64v.06ZM197.98,394.38c-2.85,1.45-12.37,6-14.85,2.85-.67-.85.42-2.36.36-3.39-.12-2-.97-3.76-.67-6.12.24-1.64,1.58-4.12,1.82-6.06,2.24-1.45,17.82-1.15,20.49.18.97.48,1.09,1.52,1.52,1.76.79.48,1.94.61,2.85.79,1.7,2.42-9.64,8.97-11.58,9.94l.06.06Z"/>
        <path class="cls-1" d="M162.48,378.68c.06-.36-.91-.18-1.15-.73-.91-2,.12-4.24,0-4.36-.18-.3-1.88,0-2.12-.12-.42-.18-.24-2-2.73-.73-4.73,4.12-9.46,8.49-13.64,13.03-3.76-3.82-7.82-7.27-10.55-11.94,1.15-2.12,4.12-4.12,5.82-5.88,5.4-5.7,11.09-11.7,9.03-20.43-1.15-4.97-7.58-7.52-12.18-7.27-1.45.06-2.42,1.03-3.7,1.21-7.58.97-12.06,1.09-17.58,7.27-7.64,8.61.3,15.03,2.79,23.94-4.36,2.55-8.67,6.73-11.82,10.73-4.24,5.46-6.18,8.73-5.15,15.94.97,7.15,9.15,9.88,15.4,9.94,3.39,0,11.52-1.82,14.25-3.82.61-.42.42-1.52,1.03-2.12,1.39-1.45,6-1.94,7.76-3.64.67,0,4.85,5.03,6.06,6.06,1.82,1.52,3.46,2.55,5.46,4.24,3.03,2.61,2.73,0,3.09,0,.79,0,2.85,1.27,3.82.55.42-.3.55-2.85.67-2.97.61-.48,2.79.85,3.64.3,2.42-1.58.18-2.3,0-2.61-2.3-4.49-3.09-4.12-5.76-7.46-.79-1.03-4.06-5.88-3.88-6.85.42-2.12,10.61-8.24,11.4-12.24l.06-.06ZM122.17,356.62c.18-.48,3.82-4.43,4.36-4.73,3.33-1.82,11.94-3.46,8.97,2.91-.48,1.03-7.33,8.43-8.43,9.15-.61.42-1.33.91-2.06.48-.73-.42-3.27-6.49-2.79-7.76l-.06-.06ZM130.9,392.87c-.3.55-9.46,5.09-10.67,5.4-3.76.91-10.61,1.27-9.82-4.36.3-2.12,8.55-10.18,10.67-11.15,1.03-.48,2.73-1.21,3.76-.55.42.24,2.06,4.06,2.67,4.91.85,1.21,4.3,4.3,3.46,5.76h-.06Z"/>
        <path class="cls-1" d="M326,406.57c-5.27-6.36-9.34-13.7-14.31-20.25-.79-1.03-4.36-4.12-4.49-4.67-.18-.91.55-.97.97-1.39,1.7-1.64,6.61-3.09,7.94-4.49.3-.36,0-1.21.61-1.7,1.03-.91,3.46-2.24,4.24-3.21,5.94-6.97,4.36-17.88-.42-24.91-4.06-1.15-7.33-3.88-11.46-4.91-5.46-1.27-13.88-.67-19.34.73-3.21.85-7.09,4.73-10.73,5.64,1.03,2.18,1.45,2.85-.3,4.85h4.85c-.48,1.39.55,2.3.67,3.88.73,14.85-3.76,33.46-4.3,48.56,0,1.45.24,2.55.61,3.88.85-.18,1.76-3.03,3.03-1.82.42.42-1.27,3.46-.3,4.24l.36-1.09c1.52.85,2.24-.67,3.27-.73.55,0-.12,2.73,4.06,1.15,3.58-1.39,2.91-13.76,2.91-17.22l1.21-7.58c.61,1.82,2.55,3.09,3.64,4.55,2.06,2.73,3.46,5.33,5.33,7.94,4.49,6.18,5.88,9.4,12,13.82.55.42,1.45,2.06,1.58,2.06.61.24,1.39-.55,1.94-.42.79.18,1.09,2.55,3.82,2.79,3.76.42,2.18-3.39,3.46-3.52l4.55,1.82c.3-4.24-3.21-5.52-5.46-8.18l.06.18ZM284.18,400.2c0-2.49.24-5.09.61-7.58.18-1.03-.3-1.03,1.21-.91-.06,2.55.3,6.67-1.82,8.49ZM295.09,373.53c1.09-4.12.67-17.88,3.33-20.61,1.58-1.64,13.88-.12,15.22,1.82.85,1.21-.36,5.46-1.21,6.73-1.52,2.18-15.94,13.52-17.34,12.06Z"/>
        <path class="cls-1" d="M370.96,277.38c.06-1.52-.67-2.79-.61-4.12.36-4.91,1.7-9.88,1.21-14.85l-2.42.61v-2.42c-2.12-.3-1.64,3.46-3.39,4.18-1.76.73-1.45-1.09-2.06-1.45-.85-.55-3.76-.24-4.18.42-.18.24-1.15,4.91-1.27,5.7-1.03,6.43-.55,13.94-1.33,20.49-1.7,2.42-4.97.91-6.85,1.03-1.64.12-10.67,1.76-11.28,1.15l.55-29.04c-2.06-1.7-5.15.85-6.79.55-.61-.12-.73-1.82-1.27-1.88-.3,0-5.46,2.85-5.64,3.15-1.27,2.18.91,6.85,1.09,9.21.36,4.3-1.09,9.03-1.27,13.34-.18,3.76.91,8.61.73,11.58-.06,1.21-1.33.97-1.76,1.88-.73,1.45-2.24,5.21-.12,5.33-4.36,2.42-.12,1.88,0,2.42.85,3.21-2.36,15.03-1.27,16.67l1.21-.61,1.21,7.88,2.73-1.82v3.03c2.55-.48,1.09-3.09,1.52-3.64.12-.12,1.03.3,1.52.24.55-.06.91-.55,1.58-.55,2.36-.06,4.18,2.24,4.85-3.03.3-2.73-.36-18.43,1.15-19.46.3-.18,6.24-.91,6.97-.91,1.52,0,2.67,1.03,3.82,1.09,1.52.12,3.21-.97,5.03.12l-1.82-1.82h2.42c-.97,5.4,1.27,3.76,1.82,4.24.91.91-1.21,3.15-1.21,3.94,0,.42,1.21.24,1.27.67,0,.48-.61,1.52-.67,2.36-.12,4.24-.48,12.79,1.09,16.49,1.03,2.49,4.12,2.61,5.33,4.97,2.55.24,1.88-2.18,2.06-2.36,1.15-1.27,1.15,1.09,1.27,1.15,1.09.91,1.09-.61,1.39-.91.42-.42,1.27-.61,1.45-1.27.42-1.27.18-6.12.12-7.76-.61-9.15-1.94-23.22-1.21-32.19.36-4.55,2.85-9.64,3.03-14v.18ZM327.38,313.87c-.12.91-.48,1.88-1.21.91.18-1.82-.24-4,0-5.76.12-.91.48-1.88,1.21-.91-.18,1.82.24,4,0,5.76ZM330.41,318.35v-4.85c.48.06,1.64-.12,1.82,0,.18.18-.91,4.73-1.82,4.85Z"/>
        <path class="cls-1" d="M158.25,330.78c1.09.48,2.3.12,3.33.91.48.36,3.15,4.18,3.7,4.3,2.18.42,4.55-.55,4.43-3.03-1.82-.79-2.91.18-2.42-3.03.91.73,2.36,1.94,2.42,3.03.67.3,4,2.12,4.24,1.82-.3-6.79-6.97-11.09-10.55-16.43-2.97-4.36-5.03-8.73-8.18-12.85-.55-.67-1.52-.91-2.12-1.7-5.94-7.88-3.09-5.46,3.09-8.97,9.09-5.09,15.88-12.43,10.31-23.28-6.12-11.88-25.04-13.28-36.37-9.4-1.76.61-2.3,1.76-3.7,2.36-.85.42-5.09,1.52-5.27,1.7-1.21,1.21,2.42,1.21,1.21,2.42-.3.3-2.36-.79-1.82,1.21,4.18-.48,2.18,2.06,2.42,2.36.36.48,3.58.67,3.7,3.33.18,4.61-1.45,12.06-1.88,17.03-.36,4.55-.24,9.34-.61,13.94-.61,7.15-2.49,14.37-1.82,21.52l1.82-3.64.3,2.42.91-1.21-.61,5.46c1.15,0,.55-1.88,2.12-1.82.55,0,.12,1.27.67,1.27s1.21-.67,1.76-.67c.18,0,1.33,3.76,1.58-.55,1.09-.24.06,1.76,1.52,1.21.36-.12,1.58-1.39,1.76-1.88,2.61-8.24,1.09-17.16,2.18-25.7l1.21-.3c2.85,4.61,5.7,9.46,8.85,13.88,2.18,3.03,9.09,13.03,11.82,14.25ZM127.94,315.32c-.36,0-1.21-.79-1.21-.91v-10c1.82-.3.97.48,1.21,1.45.85,3.39-.3,5.94,0,9.46ZM129.15,283.19c-1.39,1.82-1.33-3.27-1.27-4,.18-1.09,1.09-.73,1.27-1.27.24-.79-.55-2.12.61-2l-.61,7.27ZM139.28,279.74c.73-3.33-.55-6.3,4.24-7.27,2.3-.48,12.67,1.33,13.88,2.85.18.18-.42,4.3-.67,4.85-.55,1.27-6.73,6.36-8.18,6.97-3.09,1.33-7.7,1.7-10.91,3.33-1.03-1.09,1.27-8.91,1.64-10.79v.06Z"/>
        <path class="cls-1" d="M175.71,326.72c.18,0,1.7-3.27,2.55-2.3-.79,4.67,3.76,7.33,6.55,3.21,1.27-2.73,3.21-16.31,4.55-17.58.3-.3,3.52-.85,4.55-1.21,1.09-.42,2.18-1.58,3.03-1.82,2.3-.61,6.3-.73,8.85-1.27.79.18.73.85.97,1.45,1.33,3.27,1.58,10.12,2.73,14.25.36,1.15,2.97,8.79,3.33,9.09.06.06,1.82-.67,1.88-.97.18-.79-2.18-6.36-2.42-8.49-.06-.67-.61-2.73.55-2.67.97,2.91,2.73,16.25,4.85,17.28,2.55,1.27,5.09-1.21,4.24-3.94l1.82.61c1.52-2-5.27-27.22-5.46-31.52,4.18,1.15,2.18-3.46,2.42-3.64.18-.12,4.91-.42,4.24-2.12-.85-2.3-8.43-3.39-9.15-4.36-1.45-2-1.94-11.28-2.67-14.18-.91-3.94-3.58-8.97-4.43-12.55-.24-.97,0-3.64-.12-3.82-.24-.24-1.52.67-2.06.55-.73-.18-1.52-3.88-3.03-.55-3.03-3.76-3.82,2.3-6.85.48-1.03-.61-.36-2.79-4.24-1.27-.48.18-4.73,4.97-4.91,5.46-.67,1.82,1.21,1.03,1.15,2.3,0,.97-.97,4.18-1.33,5.46-4.24,15.7-9.64,31.28-14.37,46.86-.55,1.94-.24,8.24,2.79,7.27ZM213.41,315.32c-.91.18-.73-1.15-.91-1.82-.55-2.42-.73-4.91-1.52-7.27,1.88-2.06,2.97,8.49,2.42,9.09ZM198.87,272.89c1.76,1.21,2.24,4.06,2.73,6,.3,1.27.18,2.61.42,3.82.36,1.76,2.49,8,1.58,9.46-.42.73-4.3.61-5.46.97-1.09.3-.97,1.27-1.58,1.52-1.03.36-3.15.3-4.36.67l6.67-22.43Z"/>
        <path class="cls-1" d="M267.81,382.62l2.42.61c-.85-3.52,2.55-4.73,1.82-8.49-2.36,1.33-1.39-.67-2.67-.61-1.15,0-2.85.85-4,1.21-1.64-11.09-4.61-21.82-7.88-32.49-3.09.73-2-1.58-2.49-2.06-.67-.61-6.61,2.06-7.64,2.24-1.7.24-3.03-1.82-6.36-.24-1.94.85-6.12,5.94-2.91,6.79-4.79,12.91-7.7,26.61-11.7,39.83-1.21,4-7.46,15.58-3.09,18.61,2.49,1.76,2.73.3,3.58-1.76.91.55,3.33,4.79,3.7,4.85.18,0,3.76-1.39,3.88-1.52.73-.55,3.15-15.88,4.55-17.88l16.06-4.18c1.76,6.97,2,15.15,5.4,21.64,1.64,3.15,3.33,2.67,4.3,4.18,1.09,1.64-.06,4,2.73,3.88,4.55-.18,3.21-2.85,2.79-6.06l1.52,1.82c.91.24,1.39-.73,1.52-1.52.55-3.21-2.61-10.49-3.46-14.12-1.09-4.79-2.18-9.76-2-14.67l-.06-.06ZM252.53,374.07c-.36.55-4.49,1.03-5.52,1.33-.48.18-.42.97-.97,1.09-1.15.36-3.09.36-4.36.67l6.06-20.61c1.15-.24,1.52.55,1.94,1.39,1.09,2.06,3.76,14.67,2.79,16.12h.06ZM261.14,388.08l1.21,8.49c-.91,0-1.15-1.82-1.39-2.55-.24-.91-2.18-6.55.18-5.94ZM262.96,408.69c-.85,0-1.39-2.36-1.52-2.97-.36-1.82.06-3.64-.85-5.21-.06-.48,1.15-.36,1.21-.3.3.3,1.58,7.4,1.21,8.49h-.06Z"/>
        <path class="cls-1" d="M66.11,309.62c-1.09-10.37-12.91-16.97-20.73-22.19-1.88-1.27-2.97-1.76-4.67-2.79-.79-.48-5.27-3.33-5.52-3.58-2.24-2.49.85-2.91,1.82-4.24.91-1.21,1.09-2.55,2.42-3.64,3.58-2.97,9.15-3.03,13.34-1.52l-3.03,1.52c2.85.24,1.33.91,1.82,2.24.3.79,1.76-.12.61,2.24,1.15.24,1.82-.97,2.85-1.09,1.58-.18,2.3,1.52,2.91-.73,1.15-.24.79,2.06,3.33,1.21.12-1.39-.97-3.03-.67-4.43.12-.48,1.52-.85,2.12-1.64,2.49-3.09,1.58-7.52-1.15-10.06-6.43-6-18.13-8.12-25.52-2.67-1.39,1.03-2.55,2.85-3.94,3.94-4.3,3.52-14,10.49-12.73,16.97,0,.3,2.18,4.79,2.55,5.4,2.12,3.94,11.4,13.15,15.09,15.82,4.18,2.97,10.67,5.03,14.97,8,1.39.97.79,2.18,0,3.46-1.21,2.18-11.82,8.24-14.31,8.73-5.52.97-10.91-2.85-16.19-3.52-1.09.79,2.3.55.91,1.82-.42.36-3.27-.97-4.24-.61-.12.06.42,2.3.61,2.61.48.97,2.36-.36,1.82,1.64-2.91-1.64-5.03.36-2.73,3.03.61.73,1.76,2.36,1.88,2.49,1.58,1.15,10.67,4.43,12.85,4.61,5.52.55,15.34-2.61,20.06-5.64,4.18-2.61,13.94-12.31,13.4-17.46l.06.06Z"/>
        <path class="cls-1" d="M363.77,375.47c-5.94-3.94-13.03-6.79-18.67-11.03-1.03-.79-3.39-.24-1.7-2.36,3.27-1.27,10.24-2.97,12.73-5.03,1.88-1.58,2-3.88,5.94-4.06.79.91-.18,3.27.36,4.12.48.79,5.15,1.58,4.49-1.09l-.91-1.21c1.64-4.97,3.7,1.94,3.03,4.24,1.52-.73,1.52-2.24,2.12,0,2.85-4.97,4-8.12,0-12.97-2.12-2.55-3.7-3.52-7.27-3.94-6.55-.85-18.49,2.91-24.07,6.73-4.24,2.91-10.85,9.82-10.67,15.28.12,3.03,2.06,6.06,3.64,8.55l28.49,15.82c.18,2.18-8.91,7.7-10.97,8.43-5.4,1.94-12.61.61-18.19.3.97,3.21-1.7,2.18-1.82,2.73-.42,2.24,1.03,3.09,3.03,3.33,1.03,1.09-4.24,2.79-.61,3.03l-1.21,1.82c1.7-.55,3.21,1.39,4.49,1.27.3,0,.3-1.09.73-1.21,4.12-1.21,0,3.39,2.42,4.12,3.15.97,7.58.3,10.67-.67,8.43-2.61,22.49-12.24,23.94-21.52.12-.97.3-1.88.12-2.85-.55-3.03-7.46-10-10.12-11.76v-.06Z"/>
        <path class="cls-1" d="M113.39,308.65c-.12-.12.12-2.12-1.21-2.79-3.03-1.58-6,3.94-7.7,5.21-2.42,1.82-9.82,5.64-12.79,5.94-1.39.12-6.12-1.03-6.85-2.12-.91-1.33-2.12-7.82-2.3-9.7-.91-11.15,3.21-22.79,10.79-30.85,2.3,1.39,9.7.91,10.18,3.76.18.91-.97,2.18-.18,3.27,1.58,2.24,7.88,2.18,8.67-1.09,1.15-4.55.3-13.34-2.61-17.09-1.09-1.45-6.85-4.36-8.61-4.73-1.82-.36-10.73.97-12.12,1.82-.36.24-5.46,6.06-6.12,6.91-2.3,2.97-4.73,7.09-6.67,10.31-.61.97-1.76,4.3-1.94,4.43-.12.06-1.58-.85-1.82-.61-.85,1.88,0,3.88-.24,5.52-.3,2.55-1.88,5.46-2.18,8.79-.61,7.46,2.24,26.55,9.34,30.61,1.09.67,2.67.48,2.79.61.18.18-2.12,2.12,2.24,2.91,4.67.85,12.61-.06,17.16-1.09l-.61-1.21,3.64-1.82c-.12-.06.12-.48,0-.61s.06-.42,0-.61c-.12-.18-.97-.3-1.03-.85-.18-1.58,3.39-2.3,4.97-3.39,1.33-.91,8.18-7.82,8.18-8.79,0-.18-1.09-3.21-1.21-3.33s-1.58.85-1.82.61h.06ZM73.38,286.23h-.61v-3.64c1.88.61.67,2.18.61,3.64Z"/>
        <path class="cls-1" d="M276.15,323.81c1.7,2.42,7.82,6.79,10.91,6.73,3.76-.06,13.52-1.52,16.79-3.15.3-.18,2.3-1.76,1.7-2.36-.18-.18-3.7,1.94-5.27,2.3-.61.12-2.67.67-2.55-.42,1.76.36,2.42-1.76,3.15-2,1.64-.61,3.27-.42,5.33-1.27,1.39-.61,8-4.97,8.43-6.12.67-1.58-3.15-.36-3.46-.12-.36.24-2.73,4.49-3.82,3.46-1.15-1.15,2.67-2.49,3.03-2.85,1.09-1.03,6.24-6.85,5.46-8.06l-3.03-.61,1.21-2.12c-2.06.91-1.82-.91-2.12-.97-1.94-.12-11.4,6.79-13.88,7.94-3.88,1.82-8.18,2.06-12.37,1.7-.85-3.82-4.73-9.21-4.85-13.03,0-1.21.48-5.7.73-7.09.18-1.03,1.94-7.52,2.3-7.76.12-.06,1.58.85,1.82.61,0-.79.12-1.58.48-2.24.79-1.64,8.79-11.94,10-12.73,6.24-4,5.52,1.03,7.7,3.76,3.82,4.85,4.36-.3,5.82-.91,1.94-.79.97,1.03,2.06,1.15,0-1.58.79-3.09,1.03-4.67.06-.61-.61-1.82-.42-2,.06-.12,2.24,1.03,2.42-.3,0-.18-.61-2.36-.79-2.55-.48-.61-5.03-2.79-5.88-3.52-1.15-.97-.61-2.67-2.91-3.76-4.55-2.12-11.03-1.45-14.97,1.64-2.97,2.36-4.18,3.46-7.52,5.82-15.76,10.97-16.55,40.68-6.43,55.41l-.12.12Z"/>
        <path class="cls-1" d="M253.36,293.2c.18-2.73,1.03-5.76,1.21-8.49.3-3.58-.61-7.4.55-10.85,6.67-.55,13.15-1.82,19.46-4,.18-1.03-1.45-.67-2.12-.61-4.24.24-8.73,1.15-13.03,1.21-.12-1.52-.12-1.03.91-1.21,2.18-.3,12.97-.73,13.58-1.33.24-.3,0-1.21.06-1.7l1.21-.3c.18-1.09-3.33-2.42-2.42-3.33.18-.18,3.76-.42,3.33-3.03-.61.55-1.64.67-2.42.67-12.49-.73-28.73,1.03-41.22,2.36-3.64.36-8.97,2.97-11.82,5.15l3.03.91c-.36,1.39-2.55-.36-1.82,2.12.18.55,1.52-.12,1.21.91h-3.03c-.24,1.03.85.36,1.03.73.42.67.12,1.58.18,2.3.97.24.36-1.03.91-1.21,2.3-.73,1.27,1.58,1.52,1.82.79.73,3.94-2,4.24.91,0,.18-2.24.36-1.21,1.52,1.82,1.94,15.03-1.94,15.76-1.21l-3.7,48.8c.12.61,2.67-.3,1.88,2.18,4-1.76,2.24,0,3.94,2.42l.91-2.42c.48.97.97,5.82,1.21,6.06.12.12,1.33-.06,1.82,0l.3-1.82.91,3.03c.85-.48,2.12-3.21,2.3-4.06,2.12-10.49.67-26.31,1.33-37.46v-.06Z"/>
        <path class="cls-2" d="M89.46,380.87c.65-.65,1.28-1.6,1.99-2.26s2.16-.78,1.44-1.86c-.36-.56-1.47-.72-1.8-.98-.07,1.05-1.83-.75-.33-.33-5.33-5.72-10.63-11.44-16.19-17-3.73-3.73-7.29-7.81-11.12-11.44-1.05-.98-6.83-6.02-7.72-6.34-2.68-1.05-9.68-.36-12.92-.49-.78,0-1.5-.33-2.26-.36-3.4-.13-6.77-.26-10.14-.33-.56.43,1.37,1.83,0,1.63-1.31-.2-3.69-2.78-4.58-.98-.88,1.73,3.69,4.41,4.94,5.56,5.59,5.23,10.76,11.93,16.51,17.17,1.21,1.08,2.81,1.47,4.09,3.11,2.52,3.2,4.28,5.23,7.32,8.04.75.69,4.28,3.17,4.28,3.92s-1.54.72-1.01,2.13c-.56.16-.16-.65-.49-.65-.39,0-.98.39-1.31.65-1.8,1.63-3.83,4.32-5.72,6.05-6.15,5.66-12.62,11.15-18.64,17-1.63,1.6-3.73,3.3-5.49,4.81-.78,4.64,2.22,3.79,5,1.9.03.65-.46,1.18.36,1.6,6.47-2.22,13.44-2.29,20.24-2.91.65.69-.46.88-1.01.95-4.09.49-8.5.49-12.69,1.05-.98.13-2.39.16-3.14.78-.2.82,1.01.52,1.47.49,4.28-.33,9.61-1.14,14.03-1.67,3.37-.43,3.76-2.35,5.59-2.91,1.47-.43-.98,2.26.33,1.96,4.61-4.25,9.52-8.17,14.42-12.1.72-1.83,2.42-3.07,3.43-4.58-.29.03-.65,0-.98,0,0-1.11,1.14-1.5,1.96-1.96.13-.26-.23-.88.98-.82-.36,1.08-.69.65-.98.82-.29.52-.69,1.5-.98,1.96.36-.07.49-.13.82-.29.16-.1,2.98-2.65,3.11-2.81.39-.49.29-1.08.33-1.11h-.65v-.98h.65v.98s.72,0,1.14-.33c2.78-2.19,5.36-5.3,8.17-7.55v-.98c-.65.62-1.28,1.34-1.96,1.96-.33.29-2.55,2.19-2.78,1.96.07-1.24,1.6-1.73,2.29-2.42l-.03-.03ZM36.62,346.67v-.33c.2.1.2.23,0,.33ZM42.34,351.57c-.75-.78-1.7-1.54-2.65-2.09-1.37-.78-2.26-.36-2.91-2.49.46-.36,4.81,2.52,5.2,3.14.26.43.43.92.36,1.44ZM43.32,355.5c-.07-.07-.13-.69.16-.65.26.36.72.49,1.05.75.36.33,1.08,1.34,1.28,1.83-.2-.59-2.32-1.77-2.45-1.96l-.03.03ZM46.92,357.79c1.24-.16,1.8,1.14,2.62,1.8-1.34-.07-2.58-.2-2.62-1.8ZM59.51,350.59c.2.1.2.23,0,.33v-.33ZM56.4,347c.62.52,2.42.75,2.78,1.31.26.36-.39.49-.39.82,0,.26.85.82.56,1.14-.39.43-3.4-2.71-2.94-3.27ZM60.82,367.92c-2.03-1.37-4.02-3.43-4.58-5.89,1.8,1.73,3.63,3.5,4.58,5.89ZM54.11,364.65l-.98-.33v-.33h.98v.65ZM54.44,365.31c-.23-.1.2-.56.65-.33.23.1-.2.56-.65.33ZM53.1,344.9c-.29-.46.03-.72,0-.95,0-.2-1.24-.29-.62-.85.43-.39.85.52,1.05.75.29.39,2.06,2.65,1.9,2.84-.29.29-2.16-1.54-2.32-1.8ZM55.42,365.31v-.65h1.31c.39.16-1.11.82-1.31.65ZM55.75,365.96c.2-.16,1.83.56,2.19.78.52.33,1.31,1.63,1.73,2.16-2.03.46-3.34-1.18-3.92-2.94ZM59.8,371.1c-2.78-2.71.33-2.06,1.18.62-.29.13-1.01-.43-1.18-.62ZM75.2,362.69c.49-.1,1.18,1.01,1.11,1.28,0,.07-.95.72-1.08.72-.39-.03-1.7-.69-1.5-.98l1.47-1.01h0ZM74.39,389.5c-.49-.49.88-1.05,1.14-1.31.16.49-.75,1.67-1.14,1.31ZM73.08,390.49c-.33-.33.65-1.31.98-.98s-.65,1.31-.98.98ZM69.16,358.44c.07-.62,1.05-.39,1.34-.2.43.29.2,1.21.43,1.73.13.36,1.14.69,1.21.75,0-.03-.46-1.18,0-.82l2.29,2.29c-.23.13-.72-.1-.98-.16.1.2.52,1.21.16,1.31-3.14-1.34-4.9-4.45-7.68-6.38,1.8-.78,1.86.88,3.27,1.47h-.03ZM72.75,386.89c.59.98-1.57,1.73-1.63,1.63-.56-.75.52-2.09,1.63-1.63ZM71.77,386.23v-1.31h.65v1.31h-.65ZM65.56,367.6l1.63-1.31c.2.2-.82.59-.49.98.13.13,1.41.43.82.98-.07.07-1.31-1.01-1.96-.65ZM67.19,400.46c-.43.39-.69.95-1.31.82-.26-.13.95-.88,1.31-.82ZM65.56,353.21c.43-.43,1.77,1.18,1.31,1.63-.43.43-1.77-1.18-1.31-1.63ZM48.56,394.41c.49.49-1.28,1.31-1.47,1.63-.13-.39,1.08-2.03,1.47-1.63ZM42.67,401.6c-.62,1.44.16.78.29.98.33.43-1.11,1.47-1.47,1.6-.65.23-.29-.88-.95-.65-.62.56-3.24,3.66-4.09,2.94-.59-.49,1.7-1.63,1.83-1.77,1.8-1.5,2.09-2.29,4.38-3.14.1-.23.43-1.54.98-.98s-.72.88-.98.98v.03ZM43.98,400.13l.82-.82c.29-.03.2.62.16.65s-.78.23-.98.16ZM47.74,398.69l-2.78,2.29.78-1.63,3.43-2.62-1.47,1.96h.03ZM50.94,403.27l-1.37.49c1.01-1.18,2.13-2.94,3.92-2.78l-2.52,2.29h-.03ZM57.12,389.9c-.16.1-.82,1.5-1.24,1.86-.39.36-.95.39-1.28.69-1.11.95-2.09,2.06-3.27,2.94.49-1.14,1.34-2.81,2.13-3.76,1.99-2.39,2.91-2.78,4.68-5.62.1-.16,1.86-1.77,2.42-2.35.72-.78,1.54-1.54,2.26-2.32l.33,1.31c.52-.82,1.14-.95,1.8-1.31.13-.26-.23-.88.98-.82-.39,1.08-.69.65-.98.82-1.99,3.63-4.97,4.64-6.44,7.62-.2.39-.1.78-.1,1.21l-.33-.65c-.56-.13-.2.46-.36.59-.1.07-.46-.26-.56-.2h-.03ZM60,399.31c.07-.43,1.05-1.24,1.31-.98.39.39-.65,1.31-1.31.98ZM58.53,400.62v-.33c.2.1.2.23,0,.33ZM57.71,404.22c.46-.69.59-1.57,1.63-1.31.07.88-.85,1.44-1.63,1.31ZM59.02,400.29c-.36-.36.29-1.01.65-.65s-.29,1.01-.65.65ZM59.67,406.18l2.98-2.75,3.24-1.83c-1.93,1.5-3.86,3.89-6.21,4.58ZM60.98,407c.29-.36.49-.59.98-.49.33.16-.65.62-.98.49ZM62.29,406.02c.49-.75.16-1.01,1.31-.82.2.13-.95,1.01-1.31.82ZM65.36,403.69c-.36.29-.69.95-1.28,1.18.29-1.37,2.52-2.45,3.76-3.11-.82.65-1.67,1.28-2.49,1.93ZM76.02,393.43c-.62,1.08-3.86,4.71-4.9,5.4-.92.59-2.52,1.05-3.6,1.47l3.76-3.6c1.67-.98,3.11-2.35,4.74-3.27.1-.16.39-1.57.98-.98s-.82.88-.98.98ZM79.55,386.5c-1.01,1.28-2.81,0,.26-1.21.1.23-.16,1.11-.26,1.21ZM81.68,374.72l-1.05-2.22c.65-.56,4.58,3.47,1.05,2.22ZM82.56,376.1v.98c-.62-.33-1.18-.2-.98-.98h.98ZM80.76,389.5v-.33c.2.1.2.23,0,.33ZM81.58,388.85c-.1.23-.56-.2-.33-.65.1-.23.56.2.33.65ZM83.22,386.89c-.33-.39.65-1.28.98-.98.49.49-.92,1.05-.98.98ZM84.36,385.58v-.33c.2.1.2.23,0,.33ZM80.27,385.09c.07-.85,4.22-4.12,4.58-3.76.59.56-3.79,3.83-4.58,3.76ZM85.5,384.44l.49-.49c.33.29-.49.82-.49.49ZM84.52,375.44c.56,1.11,1.6,1.01,2.62.65v.98c-.72-.1-1.73.16-2.39,0-.33-.07-.82-1.86-2.19-1.31,0-.62,1.5-.46,1.63-.65.07-.13-1.01-2.35,1.21-1.37.1.07,1.96,1.31,2.06,1.41.95,1.14-2.52.1-2.94.33v-.03Z"/>
      </g>
    </g>
  </g>
</svg>